<svg width="148" height="29" viewBox="0 0 148 29" fill="none" xmlns="http://www.w3.org/2000/svg">
<path d="M129.153 4.81967C129.153 5.04539 129.109 5.26889 129.024 5.47741C128.94 5.68592 128.816 5.87537 128.659 6.03488C128.503 6.1944 128.317 6.32088 128.113 6.40709C127.908 6.49329 127.689 6.53753 127.468 6.53727H125.803C125.582 6.53702 125.363 6.58127 125.158 6.6675C124.954 6.75373 124.769 6.88024 124.612 7.03978C124.456 7.19933 124.332 7.38877 124.248 7.59728C124.163 7.80578 124.12 8.02925 124.12 8.25488V18.5411C124.12 18.654 124.099 18.7658 124.057 18.8701C124.014 18.9744 123.952 19.0692 123.874 19.149C123.796 19.2288 123.703 19.292 123.601 19.3351C123.499 19.3781 123.389 19.4002 123.279 19.3999C122.946 19.3999 122.621 19.5006 122.345 19.6892C122.068 19.8778 121.853 20.1459 121.726 20.4595C121.599 20.7731 121.566 21.1182 121.631 21.451C121.696 21.7839 121.856 22.0896 122.091 22.3294C122.326 22.5693 122.626 22.7326 122.952 22.7985C123.278 22.8645 123.616 22.8303 123.923 22.7001C124.23 22.57 124.493 22.3498 124.677 22.0674C124.862 21.785 124.96 21.4531 124.959 21.1137V19.3999C124.959 19.1722 125.048 18.9537 125.206 18.7927C125.364 18.6316 125.578 18.5411 125.801 18.5411C126.021 18.5416 126.24 18.4977 126.444 18.4117C126.648 18.3258 126.833 18.1996 126.989 18.0403C127.145 17.8811 127.269 17.692 127.353 17.4838C127.437 17.2757 127.48 17.0526 127.48 16.8274C127.48 16.6001 127.568 16.3822 127.725 16.2215C127.883 16.0608 128.096 15.9705 128.319 15.9705C128.429 15.9705 128.539 15.9483 128.641 15.9051C128.743 15.8619 128.835 15.7987 128.913 15.7189C128.991 15.6391 129.053 15.5444 129.095 15.4402C129.137 15.3361 129.159 15.2244 129.158 15.1117V6.5392C129.158 6.31143 129.247 6.093 129.405 5.93194C129.563 5.77089 129.777 5.6804 130 5.6804C130.217 5.67206 130.423 5.57845 130.575 5.419C130.727 5.25954 130.813 5.04651 130.815 4.82416C130.817 4.60181 130.735 4.38723 130.586 4.22502C130.437 4.06281 130.232 3.96544 130.015 3.95312C129.786 3.95516 129.568 4.04872 129.406 4.21369C129.244 4.37867 129.153 4.60185 129.151 4.83515" fill="white"/>
<path d="M135.879 8.25375V18.542C135.879 18.6548 135.858 18.7666 135.815 18.8709C135.773 18.9752 135.711 19.07 135.633 19.1498C135.555 19.2296 135.462 19.2928 135.36 19.3359C135.258 19.379 135.148 19.401 135.038 19.4008C134.872 19.4012 134.71 19.4517 134.572 19.5461C134.434 19.6405 134.327 19.7745 134.264 19.9311C134.2 20.0877 134.184 20.2599 134.217 20.426C134.249 20.5921 134.329 20.7446 134.447 20.8642C134.564 20.9839 134.714 21.0653 134.877 21.0982C135.039 21.1311 135.208 21.114 135.361 21.0491C135.515 20.9842 135.646 20.8744 135.738 20.7335C135.83 20.5926 135.879 20.427 135.879 20.2576C135.879 20.0321 135.922 19.8087 136.006 19.6003C136.091 19.3919 136.215 19.2026 136.371 19.0433C136.527 18.884 136.713 18.7579 136.917 18.6722C137.122 18.5865 137.341 18.5429 137.562 18.5439H140.929C141.039 18.5439 141.148 18.5662 141.249 18.6094C141.351 18.6527 141.443 18.7161 141.521 18.7959C141.598 18.8758 141.66 18.9705 141.701 19.0746C141.743 19.1788 141.763 19.2903 141.762 19.4027C141.762 19.5151 141.784 19.6265 141.826 19.7303C141.868 19.8342 141.93 19.9285 142.008 20.0079C142.086 20.0873 142.179 20.1503 142.281 20.1931C142.382 20.236 142.492 20.2579 142.602 20.2576C142.818 20.2681 143.021 20.3631 143.171 20.5228C143.32 20.6825 143.403 20.8948 143.403 21.1155C143.403 21.3362 143.32 21.5484 143.171 21.7082C143.021 21.8679 142.818 21.9628 142.602 21.9733H131.674C131.451 21.9733 131.237 22.0638 131.08 22.2248C130.922 22.3859 130.833 22.6043 130.833 22.8321C130.833 23.0588 130.745 23.2763 130.588 23.4366C130.431 23.597 130.218 23.687 129.996 23.687C129.774 23.687 129.561 23.597 129.403 23.4366C129.246 23.2763 129.158 23.0588 129.158 22.8321V21.1164C129.174 20.8823 129.276 20.6631 129.445 20.5038C129.614 20.3444 129.836 20.2571 130.066 20.2596C130.284 20.2597 130.5 20.2149 130.701 20.1279C130.902 20.0408 131.083 19.9133 131.235 19.753C131.386 19.5926 131.504 19.4027 131.582 19.1946C131.66 18.9865 131.696 18.7646 131.688 18.542V9.11061C131.688 8.88336 131.599 8.66541 131.442 8.50472C131.284 8.34402 131.071 8.25375 130.848 8.25375C130.735 8.25926 130.621 8.24116 130.514 8.20054C130.408 8.15991 130.31 8.09762 130.228 8.01742C130.145 7.93722 130.08 7.84078 130.035 7.73395C129.99 7.62712 129.967 7.51212 129.967 7.39591C129.967 7.2797 129.99 7.1647 130.035 7.05787C130.08 6.95105 130.145 6.85461 130.228 6.77441C130.31 6.69421 130.408 6.63191 130.514 6.59129C130.621 6.55067 130.735 6.53257 130.848 6.53808H134.208C134.429 6.53757 134.648 6.58157 134.852 6.66757C135.056 6.75356 135.242 6.87985 135.399 7.03922C135.555 7.19858 135.679 7.38789 135.764 7.5963C135.849 7.8047 135.892 8.02812 135.892 8.25375" fill="white"/>
<path d="M13.2499 18.5399C13.1393 18.5396 13.0297 18.5617 12.9274 18.6047C12.8251 18.6478 12.7322 18.711 12.6538 18.7908C12.5755 18.8705 12.5134 18.9653 12.471 19.0696C12.4286 19.1739 12.4068 19.2858 12.4068 19.3987V20.2169C12.4074 20.4496 12.319 20.6734 12.1605 20.8406C12.0019 21.0079 11.7858 21.1054 11.5579 21.1124C11.3348 21.1124 11.1208 21.2029 10.963 21.364C10.8052 21.525 10.7166 21.7435 10.7166 21.9712C10.7063 22.1922 10.6131 22.4007 10.4563 22.5533C10.2995 22.706 10.0911 22.7912 9.87438 22.7912C9.65767 22.7912 9.44929 22.706 9.29246 22.5533C9.13564 22.4007 9.04242 22.1922 9.03215 21.9712C9.03215 21.7435 8.94351 21.525 8.78574 21.364C8.62797 21.2029 8.41399 21.1124 8.19086 21.1124C7.74477 21.1119 7.31709 20.9308 7.00166 20.6088C6.68622 20.2868 6.50879 19.8502 6.50829 19.3948V9.98093C6.50834 9.75614 6.42205 9.54031 6.26794 9.37975C6.11384 9.21918 5.90421 9.12668 5.68406 9.12213C5.46093 9.12213 5.24695 9.03165 5.08918 8.87059C4.93141 8.70953 4.84277 8.4911 4.84277 8.26333C4.84277 8.03557 4.93141 7.81712 5.08918 7.65606C5.24695 7.495 5.46093 7.40452 5.68406 7.40452C5.79454 7.40402 5.90403 7.42572 6.00629 7.46841C6.10855 7.5111 6.20158 7.57395 6.28005 7.65333C6.35852 7.73272 6.42091 7.8271 6.46365 7.9311C6.50638 8.0351 6.52864 8.14668 6.52913 8.25946C6.52156 8.48948 6.55941 8.71872 6.64042 8.9335C6.72142 9.14828 6.84394 9.34424 7.00066 9.50969C7.15739 9.67514 7.34512 9.8067 7.55268 9.89656C7.76025 9.98642 7.9834 10.0327 8.20886 10.0327C8.43432 10.0327 8.65748 9.98642 8.86504 9.89656C9.07261 9.8067 9.26034 9.67514 9.41707 9.50969C9.57379 9.34424 9.6963 9.14828 9.77731 8.9335C9.85832 8.71872 9.89616 8.48948 9.88859 8.25946C9.88759 7.80426 9.70962 7.36808 9.39377 7.04674C9.07793 6.72541 8.65004 6.54521 8.20413 6.54572C7.981 6.54572 7.76702 6.45524 7.60925 6.29419C7.45148 6.13313 7.36284 5.91469 7.36284 5.68692C7.36284 5.45915 7.45148 5.24072 7.60925 5.07966C7.76702 4.9186 7.981 4.82812 8.20413 4.82812C8.42725 4.82812 8.64123 4.9186 8.799 5.07966C8.95678 5.24072 9.04541 5.45915 9.04541 5.68692C9.04541 5.91469 9.13405 6.13313 9.29182 6.29419C9.44959 6.45524 9.66358 6.54572 9.8867 6.54572L22.4965 6.52832C22.713 6.53881 22.9172 6.63396 23.0667 6.79405C23.2163 6.95414 23.2997 7.16686 23.2997 7.38808C23.2997 7.6093 23.2163 7.82203 23.0667 7.98212C22.9172 8.14221 22.713 8.23737 22.4965 8.24785C22.2734 8.24785 22.0594 8.33833 21.9016 8.49939C21.7439 8.66044 21.6552 8.87888 21.6552 9.10665C21.6552 9.33442 21.5666 9.55286 21.4088 9.71392C21.251 9.87497 21.0371 9.96545 20.8139 9.96545H14.0893C13.9784 9.96545 13.8685 9.98785 13.7661 10.0314C13.6636 10.0749 13.5706 10.1387 13.4924 10.219C13.4142 10.2994 13.3524 10.3947 13.3104 10.4996C13.2685 10.6045 13.2473 10.7168 13.248 10.83V12.5438C13.248 12.7715 13.1594 12.99 13.0016 13.151C12.8439 13.3121 12.6299 13.4026 12.4068 13.4026C12.2398 13.4022 12.0765 13.4524 11.9376 13.5468C11.7986 13.6413 11.6903 13.7757 11.6262 13.933C11.5622 14.0904 11.5453 14.2636 11.5778 14.4308C11.6103 14.5979 11.6906 14.7514 11.8086 14.8719C11.9267 14.9924 12.0771 15.0744 12.2408 15.1076C12.4046 15.1407 12.5743 15.1235 12.7284 15.0581C12.8826 14.9928 13.0142 14.8821 13.1067 14.7403C13.1992 14.5985 13.2484 14.4318 13.248 14.2614C13.248 14.0336 13.3367 13.8152 13.4944 13.6541C13.6522 13.4931 13.8662 13.4026 14.0893 13.4026H19.137C19.5579 13.438 19.9504 13.6337 20.2365 13.9508C20.5226 14.2679 20.6814 14.6833 20.6814 15.1144C20.6814 15.5455 20.5226 15.9608 20.2365 16.278C19.9504 16.5951 19.5579 16.7908 19.137 16.8262H14.9287C14.7056 16.8262 14.4916 16.9166 14.3338 17.0777C14.1761 17.2388 14.0874 17.4572 14.0874 17.685C14.0874 17.9127 13.9988 18.1312 13.841 18.2922C13.6833 18.4533 13.4693 18.5438 13.2461 18.5438" fill="white"/>
<path d="M75.4132 13.3998V15.9723C75.4142 16.1984 75.5025 16.415 75.659 16.5751C75.8154 16.7351 76.0274 16.8257 76.2488 16.8273C76.472 16.8273 76.686 16.9177 76.8437 17.0788C77.0015 17.2399 77.0901 17.4583 77.0901 17.6861V18.5294C77.0901 18.7572 77.0015 18.9756 76.8437 19.1367C76.686 19.2977 76.472 19.3882 76.2488 19.3882C75.8026 19.3882 75.3746 19.5692 75.0591 19.8913C74.7435 20.2134 74.5663 20.6503 74.5663 21.1058C74.5663 21.5613 74.7435 21.9982 75.0591 22.3203C75.3746 22.6424 75.8026 22.8234 76.2488 22.8234H76.2375C76.6837 22.8234 77.1117 22.6424 77.4272 22.3203C77.7428 21.9982 77.92 21.5613 77.92 21.1058V19.3901C77.92 19.1624 78.0087 18.9439 78.1665 18.7829C78.3242 18.6218 78.5382 18.5313 78.7613 18.5313H79.4207C79.6438 18.5313 79.8578 18.4408 80.0156 18.2798C80.1734 18.1187 80.262 17.9003 80.262 17.6725V8.25666C80.2623 8.03103 80.2189 7.80757 80.1344 7.59907C80.05 7.39056 79.926 7.20111 79.7697 7.04157C79.6135 6.88203 79.4279 6.75552 79.2236 6.66929C79.0194 6.58306 78.8005 6.53881 78.5794 6.53906H73.7288C73.2825 6.53906 72.8546 6.72002 72.539 7.04214C72.2235 7.36425 72.0462 7.80113 72.0462 8.25666V9.92785C72.0465 10.0408 72.0249 10.1527 71.9827 10.2571C71.9405 10.3615 71.8786 10.4564 71.8005 10.5364C71.7223 10.6163 71.6295 10.6797 71.5273 10.723C71.4251 10.7663 71.3156 10.7886 71.2049 10.7886C70.7616 10.7932 70.338 10.9762 70.0262 11.2978C69.7143 11.6194 69.5394 12.0536 69.5394 12.5062C69.5394 12.734 69.628 12.9524 69.7858 13.1134C69.9436 13.2745 70.1576 13.365 70.3807 13.365C70.6038 13.365 70.8178 13.4555 70.9756 13.6165C71.1333 13.7776 71.222 13.996 71.222 14.2238C71.222 14.4516 71.1333 14.67 70.9756 14.831C70.8178 14.9921 70.6038 15.0826 70.3807 15.0826C70.1576 15.0826 69.9436 15.1731 69.7858 15.3341C69.628 15.4952 69.5394 15.7136 69.5394 15.9414C69.5394 16.1692 69.4508 16.3876 69.293 16.5486C69.1352 16.7097 68.9212 16.8002 68.6981 16.8002C68.475 16.8002 68.261 16.7097 68.1032 16.5486C67.9455 16.3876 67.8568 16.1692 67.8568 15.9414C67.8563 15.8283 67.834 15.7164 67.791 15.6121C67.748 15.5079 67.6853 15.4133 67.6064 15.3339C67.5275 15.2544 67.4341 15.1917 67.3314 15.1492C67.2287 15.1068 67.1188 15.0854 67.008 15.0865C66.8975 15.0865 66.7881 15.0642 66.686 15.0211C66.5839 14.9779 66.4912 14.9147 66.4131 14.8349C66.335 14.7552 66.273 14.6605 66.2307 14.5563C66.1884 14.4521 66.1667 14.3404 66.1667 14.2277C66.1667 14.1149 66.1884 14.0032 66.2307 13.899C66.273 13.7948 66.335 13.7001 66.4131 13.6204C66.4912 13.5406 66.5839 13.4774 66.686 13.4342C66.7881 13.3911 66.8975 13.3689 67.008 13.3689C67.2311 13.3689 67.4451 13.2784 67.6028 13.1173C67.7606 12.9563 67.8492 12.7378 67.8492 12.5101C67.8492 12.0545 67.672 11.6176 67.3564 11.2955C67.0409 10.9734 66.6129 10.7924 66.1667 10.7924C66.056 10.7924 65.9465 10.7702 65.8443 10.7269C65.7421 10.6836 65.6493 10.6202 65.5711 10.5402C65.493 10.4603 65.4311 10.3654 65.3889 10.261C65.3467 10.1565 65.3251 10.0447 65.3254 9.93171V8.25666C65.3256 8.03103 65.2823 7.80757 65.1978 7.59907C65.1134 7.39056 64.9894 7.20111 64.8331 7.04157C64.6768 6.88203 64.4913 6.75552 64.287 6.66929C64.0828 6.58306 63.8638 6.53881 63.6428 6.53906H58.6084C58.1621 6.53906 57.7342 6.72002 57.4186 7.04214C57.1031 7.36425 56.9258 7.80113 56.9258 8.25666V21.1135C56.9263 21.5689 57.1037 22.0055 57.4192 22.3275C57.7346 22.6495 58.1623 22.8306 58.6084 22.8311H59.4421C59.5527 22.8311 59.6623 22.8089 59.7645 22.7656C59.8667 22.7223 59.9595 22.6589 60.0376 22.5789C60.1158 22.499 60.1777 22.4041 60.2199 22.2996C60.262 22.1952 60.2836 22.0833 60.2834 21.9704C60.2834 21.7426 60.372 21.5242 60.5298 21.3631C60.6875 21.2021 60.9015 21.1116 61.1246 21.1116C61.2352 21.1119 61.3447 21.0898 61.4469 21.0467C61.5491 21.0037 61.6419 20.9404 61.7201 20.8606C61.7982 20.7808 61.8602 20.6861 61.9024 20.5817C61.9446 20.4774 61.9662 20.3656 61.9659 20.2528V13.3998V12.5449C61.9659 12.3171 61.8773 12.0987 61.7195 11.9376C61.5618 11.7765 61.3478 11.6861 61.1246 11.6861C60.9015 11.6861 60.6875 11.5956 60.5298 11.4345C60.372 11.2735 60.2834 11.055 60.2834 10.8273C60.2834 10.5995 60.372 10.3811 60.5298 10.22C60.6875 10.0589 60.9015 9.96846 61.1246 9.96846C61.3474 9.97 61.5605 10.0617 61.7172 10.2234C61.8738 10.3851 61.9613 10.6037 61.9602 10.8311C61.9602 11.0589 62.0489 11.2773 62.2067 11.4384C62.3644 11.5995 62.5784 11.6899 62.8015 11.6899C63.0247 11.6899 63.2386 11.7804 63.3964 11.9415C63.5542 12.1025 63.6428 12.321 63.6428 12.5487V15.1251C63.6431 15.2372 63.6651 15.3481 63.7076 15.4515C63.7501 15.5548 63.8123 15.6485 63.8906 15.7271C63.9688 15.8057 64.0616 15.8677 64.1635 15.9095C64.2653 15.9512 64.3743 15.9719 64.4841 15.9704C64.5941 15.9694 64.7033 15.9906 64.8052 16.033C64.9071 16.0753 64.9998 16.1379 65.0779 16.217C65.1559 16.2962 65.2178 16.3904 65.26 16.4941C65.3022 16.5979 65.3238 16.7091 65.3235 16.8215V18.5429C65.3235 18.7702 65.4119 18.9881 65.5693 19.1488C65.7268 19.3095 65.9403 19.3998 66.1629 19.3998C66.386 19.3998 66.6 19.4903 66.7578 19.6513C66.9155 19.8124 67.0042 20.0308 67.0042 20.2586C67.0042 20.7131 67.181 21.149 67.4959 21.4704C67.8107 21.7918 68.2377 21.9723 68.683 21.9723C69.1282 21.9723 69.5552 21.7918 69.87 21.4704C70.1849 21.149 70.3617 20.7131 70.3617 20.2586C70.362 20.1458 70.384 20.0342 70.4265 19.9301C70.469 19.826 70.5312 19.7315 70.6095 19.6519C70.6878 19.5723 70.7807 19.5093 70.8828 19.4664C70.985 19.4234 71.0944 19.4015 71.2049 19.4017C71.428 19.4017 71.642 19.3113 71.7998 19.1502C71.9576 18.9891 72.0462 18.7707 72.0462 18.5429V16.8273C72.0452 16.7149 72.066 16.6035 72.1075 16.4995C72.149 16.3954 72.2103 16.3008 72.2878 16.2211C72.3653 16.1414 72.4576 16.0782 72.5592 16.0352C72.6609 15.9922 72.7699 15.9701 72.8799 15.9704C72.9904 15.9707 73.0998 15.9487 73.202 15.9058C73.3042 15.8628 73.397 15.7998 73.4753 15.7202C73.5536 15.6407 73.6158 15.5461 73.6583 15.442C73.7008 15.3379 73.7228 15.2263 73.7231 15.1135V13.3998C73.7231 13.172 73.8117 12.9536 73.9695 12.7925C74.1273 12.6315 74.3413 12.541 74.5644 12.541C74.7875 12.541 75.0015 12.6315 75.1593 12.7925C75.317 12.9536 75.4057 13.172 75.4057 13.3998" fill="white"/>
<path d="M37.6025 21.1146C37.3794 21.1146 37.1653 21.0241 37.0075 20.8631C36.8498 20.702 36.7612 20.4836 36.7612 20.2558V18.5421C36.7612 18.3148 36.6728 18.0969 36.5154 17.9362C36.3579 17.7755 36.1443 17.6852 35.9217 17.6852C35.6993 17.6842 35.4862 17.5933 35.3293 17.4323C35.1723 17.2714 35.0843 17.0535 35.0843 16.8264V14.2229C35.0843 13.9952 34.9956 13.7767 34.8378 13.6157C34.6801 13.4546 34.4662 13.3641 34.243 13.3641C34.0199 13.3641 33.8059 13.2736 33.6482 13.1126C33.4904 12.9515 33.4017 12.7331 33.4017 12.5053V9.95989C33.4017 9.84721 33.38 9.73562 33.3377 9.63154C33.2954 9.52745 33.2334 9.43291 33.1552 9.35331C33.0771 9.27372 32.9842 9.21064 32.8822 9.1677C32.7801 9.12475 32.6708 9.10277 32.5604 9.10303C32.0961 9.10303 31.7172 8.85738 31.7172 8.38349V8.26937C31.7172 7.81366 31.5401 7.37658 31.2246 7.05416C30.9091 6.73174 30.481 6.55035 30.0346 6.54983C29.9241 6.55009 29.8147 6.52805 29.7125 6.48498C29.6103 6.44191 29.5174 6.37866 29.4392 6.29887C29.361 6.21907 29.2992 6.12429 29.257 6.01998C29.2148 5.91567 29.1931 5.80389 29.1933 5.69103C29.1831 5.47006 29.0899 5.26161 28.9331 5.10894C28.7763 4.95626 28.5679 4.87109 28.3512 4.87109C28.1345 4.87109 27.926 4.95626 27.7692 5.10894C27.6124 5.26161 27.5191 5.47006 27.5089 5.69103C27.5091 5.80302 27.4876 5.91394 27.4455 6.01735C27.4034 6.12076 27.3417 6.2146 27.2638 6.29342C27.1859 6.37225 27.0933 6.43448 26.9916 6.4765C26.8899 6.51853 26.7811 6.53951 26.6714 6.53823C26.2289 6.54383 25.8066 6.72732 25.4958 7.04889C25.1851 7.37045 25.011 7.80414 25.0115 8.25583V8.13011C25.0115 8.35787 24.923 8.57631 24.7652 8.73737C24.6075 8.89843 24.3934 8.98891 24.1702 8.98891C23.9471 8.98891 23.7331 9.07939 23.5754 9.24044C23.4176 9.4015 23.3291 9.61994 23.3291 9.84771V12.4918C23.3276 12.7185 23.2383 12.9355 23.0807 13.0953C22.923 13.2551 22.7098 13.3448 22.4877 13.3448C22.2646 13.3448 22.0506 13.4353 21.8928 13.5963C21.735 13.7574 21.6465 13.9758 21.6465 14.2036V16.8129C21.6465 17.0406 21.5578 17.2591 21.4 17.4201C21.2422 17.5812 21.0282 17.6717 20.8051 17.6717C20.582 17.6717 20.368 17.7622 20.2102 17.9232C20.0525 18.0843 19.9639 18.3027 19.9639 18.5305V20.2423C19.9639 20.47 19.8752 20.6885 19.7174 20.8495C19.5596 21.0106 19.3457 21.1011 19.1225 21.1011C18.8994 21.1011 18.6855 21.1916 18.5278 21.3526C18.37 21.5137 18.2812 21.7321 18.2812 21.9599C18.2812 22.1876 18.37 22.4061 18.5278 22.5671C18.6855 22.7282 18.8994 22.8187 19.1225 22.8187L23.3158 22.8303C23.7619 22.8298 24.1895 22.6486 24.5049 22.3266C24.8203 22.0046 24.9979 21.5681 24.9984 21.1127C24.9984 20.8849 25.0869 20.6665 25.2447 20.5054C25.4025 20.3444 25.6164 20.2539 25.8396 20.2539C26.0627 20.2539 26.2768 20.1634 26.4345 20.0023C26.5923 19.8413 26.6808 19.6228 26.6808 19.3951V18.5672C26.6808 18.3395 26.5923 18.121 26.4345 17.96C26.2768 17.7989 26.0627 17.7084 25.8396 17.7084C25.3933 17.7084 24.9653 17.5275 24.6498 17.2053C24.3343 16.8832 24.157 16.4464 24.157 15.9908C24.1716 15.545 24.3554 15.1225 24.6695 14.8124C24.9837 14.5023 25.4035 14.3289 25.8405 14.3289C26.2775 14.3289 26.6973 14.5023 27.0115 14.8124C27.3256 15.1225 27.5094 15.545 27.524 15.9908C27.524 16.2186 27.6127 16.437 27.7704 16.5981C27.9282 16.7591 28.1422 16.8496 28.3653 16.8496H29.1952C29.3054 16.8489 29.4146 16.8703 29.5166 16.9127C29.6186 16.955 29.7115 17.0175 29.7899 17.0966C29.8682 17.1757 29.9304 17.2697 29.973 17.3734C30.0157 17.477 30.038 17.5883 30.0385 17.7007V19.4125C30.0385 19.525 30.0602 19.6364 30.1024 19.7404C30.1446 19.8444 30.2063 19.9388 30.2843 20.0184C30.3622 20.0979 30.4548 20.1611 30.5567 20.2041C30.6585 20.2472 30.7676 20.2694 30.8778 20.2694C30.9881 20.2691 31.0975 20.2911 31.1994 20.3341C31.3014 20.377 31.394 20.4401 31.472 20.5198C31.55 20.5994 31.6117 20.6939 31.6538 20.798C31.6959 20.9021 31.7174 21.0136 31.7172 21.1262C31.7172 21.5818 31.8945 22.0186 32.21 22.3407C32.5255 22.6629 32.9535 22.8438 33.3998 22.8438H37.591C37.8142 22.8438 38.0282 22.7533 38.186 22.5923C38.3438 22.4312 38.4324 22.2128 38.4324 21.985C38.4324 21.7573 38.3438 21.5388 38.186 21.3778C38.0282 21.2167 37.8142 21.1262 37.591 21.1262L37.6025 21.1146ZM31.7286 13.3989C31.7296 13.6237 31.6872 13.8465 31.6038 14.0546C31.5205 14.2627 31.3978 14.452 31.2428 14.6116C31.0878 14.7713 30.9035 14.8983 30.7004 14.9852C30.4973 15.0722 30.2795 15.1175 30.0593 15.1185C29.839 15.1195 29.6208 15.0762 29.417 14.9911C29.2131 14.9061 29.0277 14.7808 28.8713 14.6226C28.7149 14.4643 28.5906 14.2762 28.5054 14.0689C28.4202 13.8616 28.3758 13.6392 28.3748 13.4144V10.8187C28.3748 10.5909 28.2862 10.3725 28.1285 10.2114C27.9707 10.0504 27.7567 9.95989 27.5336 9.95989H26.6941C26.472 9.95989 26.259 9.86982 26.1019 9.70949C25.9448 9.54916 25.8566 9.3317 25.8566 9.10496C25.8566 8.87822 25.9448 8.66076 26.1019 8.50043C26.259 8.3401 26.472 8.25003 26.6941 8.25003C26.9166 8.25105 27.1297 8.34198 27.2866 8.50293C27.4436 8.66387 27.5317 8.88173 27.5317 9.10883C27.5322 9.22126 27.5543 9.3325 27.597 9.43615C27.6397 9.53981 27.7019 9.63386 27.7802 9.71292C27.8586 9.79197 27.9514 9.85448 28.0534 9.89686C28.1554 9.93924 28.2646 9.96066 28.3748 9.95989C28.4842 9.96273 28.5931 9.94323 28.695 9.90256C28.7969 9.86189 28.8899 9.80085 28.9684 9.72302C29.047 9.6452 29.1095 9.55216 29.1523 9.44935C29.1952 9.34654 29.2176 9.23603 29.2181 9.1243C29.2181 8.89654 29.3066 8.6781 29.4644 8.51704C29.6221 8.35598 29.8361 8.2655 30.0593 8.2655C30.2824 8.2655 30.4965 8.35598 30.6542 8.51704C30.812 8.6781 30.9005 8.89654 30.9005 9.1243C30.9 9.35174 30.8112 9.56968 30.6535 9.73032C30.4957 9.89096 30.282 9.98117 30.0593 9.98117C29.8361 9.98117 29.6221 10.0716 29.4644 10.2327C29.3066 10.3937 29.2181 10.6122 29.2181 10.84C29.2181 11.0677 29.3066 11.2862 29.4644 11.4472C29.6221 11.6083 29.8361 11.6988 30.0593 11.6988C30.2787 11.6964 30.4966 11.7387 30.6999 11.8229C30.9033 11.9072 31.0882 12.0318 31.244 12.1896C31.3998 12.3474 31.5234 12.5352 31.6075 12.7422C31.6917 12.9491 31.7348 13.171 31.7342 13.3951L31.7286 13.3989Z" fill="white"/>
<path d="M54.4103 15.1135H53.5747C53.3515 15.1135 53.1376 15.023 52.9798 14.862C52.822 14.7009 52.7334 14.4825 52.7334 14.2547C52.7334 14.0269 52.822 13.8085 52.9798 13.6474C53.1376 13.4864 53.3515 13.3959 53.5747 13.3959H53.5538C53.9999 13.3954 54.4276 13.2143 54.743 12.8923C55.0585 12.5703 55.2359 12.1337 55.2364 11.6783L55.2535 9.97037C55.2535 9.7426 55.1648 9.52416 55.007 9.3631C54.8493 9.20205 54.6353 9.11157 54.4122 9.11157C54.189 9.11157 53.9751 9.02109 53.8173 8.86003C53.6595 8.69897 53.5709 8.48053 53.5709 8.25277C53.5709 7.79723 53.3936 7.36034 53.0781 7.03823C52.7625 6.71612 52.3346 6.53517 51.8883 6.53517H40.9724C40.862 6.53466 40.7525 6.55637 40.6502 6.59905C40.5479 6.64174 40.4549 6.70457 40.3764 6.78395C40.298 6.86334 40.2356 6.95773 40.1928 7.06173C40.1501 7.16573 40.1279 7.27731 40.1274 7.39009C40.1276 7.50303 40.106 7.61491 40.0639 7.71933C40.0217 7.82375 39.9598 7.91866 39.8816 7.99861C39.8035 8.07856 39.7107 8.14199 39.6085 8.18527C39.5063 8.22854 39.3967 8.25082 39.2861 8.25082C39.0651 8.25082 38.8463 8.29526 38.6422 8.38158C38.438 8.46789 38.2526 8.59441 38.0963 8.75391C37.9401 8.9134 37.8161 9.10275 37.7316 9.31114C37.647 9.51952 37.6035 9.74287 37.6035 9.96842V18.5506C37.6035 18.7784 37.6921 18.9968 37.8499 19.1579C38.0077 19.319 38.2217 19.4094 38.4448 19.4094H39.2823C39.5054 19.4094 39.7194 19.319 39.8772 19.1579C40.0349 18.9968 40.1236 18.7784 40.1236 18.5506C40.1228 18.3806 40.1715 18.2142 40.2635 18.0725C40.3555 17.9307 40.4866 17.8201 40.6403 17.7545C40.7939 17.6889 40.9632 17.6713 41.1266 17.704C41.2901 17.7367 41.4403 17.8182 41.5584 17.9381C41.6764 18.0581 41.7569 18.2111 41.7897 18.3778C41.8225 18.5445 41.806 18.7174 41.7425 18.8745C41.6789 19.0317 41.5711 19.166 41.4326 19.2606C41.2942 19.3551 41.1314 19.4056 40.9649 19.4056C40.7417 19.4056 40.5277 19.4961 40.37 19.6571C40.2122 19.8182 40.1236 20.0366 40.1236 20.2644V21.9684C40.1236 22.1962 40.2122 22.4146 40.37 22.5757C40.5277 22.7368 40.7417 22.8272 40.9649 22.8272H52.7125C52.9357 22.8272 53.1497 22.7368 53.3074 22.5757C53.4652 22.4146 53.5538 22.1962 53.5538 21.9684C53.5538 21.7407 53.6425 21.5222 53.8002 21.3612C53.958 21.2001 54.172 21.1096 54.3951 21.1096H54.4084C54.6294 21.1099 54.8483 21.0656 55.0526 20.9794C55.2568 20.8932 55.4424 20.7667 55.5987 20.6071C55.755 20.4476 55.8789 20.2581 55.9634 20.0496C56.0478 19.8411 56.0912 19.6177 56.0909 19.392V16.8272C56.0899 16.3727 55.9125 15.9371 55.5975 15.6159C55.2824 15.2947 54.8555 15.114 54.4103 15.1135ZM51.0508 17.6899C51.0483 18.1436 50.8699 18.5778 50.5545 18.8975C50.2392 19.2172 49.8127 19.3964 49.3682 19.3959H44.3224C44.0993 19.3959 43.8853 19.3054 43.7275 19.1444C43.5698 18.9833 43.4811 18.7649 43.4811 18.5371C43.4811 18.4246 43.4594 18.3132 43.4172 18.2092C43.3751 18.1052 43.3132 18.0108 43.2353 17.9312C43.1573 17.8516 43.0648 17.7885 42.963 17.7455C42.8611 17.7024 42.752 17.6802 42.6417 17.6802C42.4258 17.6698 42.222 17.5748 42.0728 17.4151C41.9236 17.2554 41.8404 17.0431 41.8404 16.8224C41.8404 16.6017 41.9236 16.3894 42.0728 16.2297C42.222 16.07 42.4258 15.975 42.6417 15.9646H49.3986H49.3645C49.8091 15.9646 50.2356 16.1442 50.5509 16.4642C50.8661 16.7842 51.0445 17.2186 51.047 17.6725L51.0508 17.6899ZM51.0508 12.5526H46.0088C45.564 12.549 45.1387 12.366 44.8256 12.0435C44.5125 11.721 44.3371 11.2852 44.3376 10.8311V9.9839C44.3376 9.75613 44.4262 9.5377 44.584 9.37664C44.7418 9.21559 44.9557 9.1251 45.1789 9.1251H49.3758C49.5973 9.12662 49.8093 9.21725 49.9657 9.3773C50.1221 9.53736 50.2104 9.75393 50.2114 9.98003V9.93749C50.2112 10.0503 50.2328 10.1621 50.275 10.2664C50.3171 10.3707 50.3791 10.4655 50.4573 10.5453C50.5354 10.6251 50.6283 10.6884 50.7305 10.7314C50.8326 10.7745 50.9422 10.7965 51.0527 10.7963C51.2799 10.8053 51.4947 10.9042 51.6518 11.0721C51.8088 11.24 51.8956 11.4636 51.894 11.6957C51.894 11.9223 51.8061 12.1397 51.6495 12.3002C51.4929 12.4608 51.2804 12.5516 51.0584 12.5526H51.0508Z" fill="white"/>
<path d="M100.613 8.25414H99.7755C99.6648 8.25439 99.5552 8.23237 99.4529 8.18932C99.3506 8.14628 99.2577 8.08306 99.1794 8.00329C99.101 7.92351 99.0389 7.82876 98.9965 7.72443C98.9541 7.62011 98.9323 7.50828 98.9323 7.39534C98.9318 6.93996 98.7543 6.50338 98.4389 6.18138C98.1235 5.85937 97.6958 5.67825 97.2497 5.67774H87.1713C87.0609 5.67723 86.9514 5.69894 86.8491 5.74163C86.7468 5.78432 86.6538 5.84715 86.5753 5.92654C86.4969 6.00592 86.4345 6.10031 86.3917 6.20431C86.349 6.30831 86.3268 6.41989 86.3263 6.53267C86.3263 6.76044 86.2376 6.97888 86.0799 7.13993C85.9221 7.30099 85.7081 7.39147 85.485 7.39147H84.6456C84.1992 7.39198 83.7712 7.57337 83.4557 7.89579C83.1402 8.21821 82.963 8.65529 82.963 9.11101V11.6816C82.963 11.7945 82.9412 11.9062 82.8988 12.0104C82.8563 12.1147 82.7942 12.2093 82.7158 12.2889C82.6375 12.3685 82.5445 12.4316 82.4422 12.4744C82.3399 12.5172 82.2304 12.539 82.1198 12.5385C81.898 12.5405 81.686 12.6319 81.5298 12.7928C81.3737 12.9536 81.2861 13.1709 81.2861 13.3973V18.5385C81.2861 18.7663 81.3748 18.9847 81.5325 19.1458C81.6903 19.3068 81.9043 19.3973 82.1274 19.3973C82.238 19.397 82.3475 19.4191 82.4497 19.4622C82.5518 19.5052 82.6447 19.5685 82.7228 19.6483C82.801 19.7281 82.863 19.8228 82.9052 19.9272C82.9474 20.0315 82.9689 20.1433 82.9687 20.2561C82.9692 20.7115 83.1466 21.1481 83.4621 21.4701C83.7775 21.7921 84.2052 21.9732 84.6513 21.9737H86.3319C86.5551 21.9737 86.7691 22.0642 86.9268 22.2252C87.0846 22.3863 87.1732 22.6047 87.1732 22.8325C87.1735 22.9453 87.1955 23.0569 87.238 23.161C87.2805 23.2651 87.3427 23.3596 87.421 23.4392C87.4993 23.5188 87.5922 23.5818 87.6943 23.6247C87.7965 23.6677 87.9059 23.6896 88.0164 23.6894H96.4065C96.6295 23.6894 96.8434 23.5992 97.0014 23.4386C97.1594 23.2781 97.2487 23.0601 97.2497 22.8325C97.2497 22.7197 97.2715 22.6081 97.3137 22.5039C97.356 22.3997 97.418 22.305 97.4961 22.2252C97.5742 22.1455 97.667 22.0822 97.7691 22.0391C97.8711 21.9959 97.9805 21.9737 98.091 21.9737C98.5372 21.9737 98.9652 21.7927 99.2808 21.4706C99.5963 21.1485 99.7736 20.7116 99.7736 20.2561C99.7746 20.0293 99.8634 19.8122 100.021 19.652C100.178 19.4919 100.391 19.4017 100.613 19.4012C101.06 19.4012 101.488 19.2202 101.803 18.8981C102.119 18.576 102.296 18.1391 102.296 17.6836V9.97174C102.296 9.74611 102.253 9.52265 102.168 9.31414C102.084 9.10564 101.96 8.91619 101.804 8.75664C101.647 8.5971 101.462 8.47059 101.258 8.38437C101.053 8.29814 100.834 8.25388 100.613 8.25414ZM98.0929 15.113V15.9698C98.0937 16.0833 98.0722 16.1958 98.0299 16.3008C97.9875 16.4057 97.9251 16.5009 97.8462 16.5809C97.7673 16.6609 97.6736 16.724 97.5705 16.7665C97.4674 16.8091 97.3571 16.8302 97.2459 16.8286C97.1355 16.8281 97.0261 16.8499 96.924 16.8926C96.8218 16.9353 96.7289 16.9981 96.6506 17.0776C96.5723 17.157 96.5101 17.2514 96.4675 17.3554C96.425 17.4593 96.403 17.5709 96.4027 17.6836C96.4027 18.6333 95.7434 19.4031 94.9286 19.4031H90.527C90.3059 19.4031 90.0869 19.3586 89.8827 19.2722C89.6784 19.1857 89.4928 19.059 89.3366 18.8993C89.1803 18.7397 89.0564 18.5501 88.972 18.3415C88.8875 18.1328 88.8442 17.9093 88.8444 17.6836V16.8286C88.8444 16.6009 88.9331 16.3824 89.0908 16.2214C89.2486 16.0603 89.4626 15.9698 89.6857 15.9698C89.8517 15.9691 90.0138 15.9181 90.1514 15.8233C90.289 15.7285 90.396 15.5942 90.4589 15.4373C90.5217 15.2804 90.5376 15.1081 90.5044 14.942C90.4713 14.776 90.3907 14.6236 90.2728 14.5044C90.1549 14.3851 90.0049 14.3041 89.842 14.2718C89.679 14.2395 89.5103 14.2573 89.3572 14.3228C89.2041 14.3884 89.0735 14.4988 88.9819 14.6401C88.8903 14.7815 88.8418 14.9474 88.8425 15.1168C88.8425 15.3421 88.799 15.5652 88.7143 15.7733C88.6297 15.9813 88.5057 16.1703 88.3494 16.3293C88.1931 16.4884 88.0075 16.6143 87.8034 16.7C87.5993 16.7857 87.3807 16.8294 87.16 16.8286C86.9367 16.8266 86.7233 16.7342 86.5666 16.5718C86.41 16.4093 86.3228 16.19 86.3244 15.9621V13.3973C86.3246 13.2844 86.3467 13.1726 86.3893 13.0684C86.4319 12.9641 86.4943 12.8695 86.5728 12.7899C86.6513 12.7103 86.7444 12.6473 86.8468 12.6045C86.9491 12.5617 87.0588 12.5399 87.1694 12.5404C87.2798 12.5407 87.3892 12.5187 87.4912 12.4758C87.5933 12.4328 87.6861 12.3697 87.7642 12.2902C87.8423 12.2106 87.9043 12.116 87.9466 12.0119C87.9889 11.9078 88.0107 11.7963 88.0107 11.6836C88.0107 10.7339 88.6758 9.96594 89.4887 9.96594H93.8865C94.3326 9.96645 94.7602 10.1476 95.0757 10.4696C95.3911 10.7916 95.5685 11.2282 95.569 11.6836V12.5404C95.5698 12.6527 95.5488 12.764 95.5072 12.8679C95.4656 12.9718 95.4044 13.0663 95.3269 13.146C95.2494 13.2256 95.1572 13.2888 95.0557 13.332C94.9542 13.3751 94.8453 13.3973 94.7353 13.3973C94.5146 13.3976 94.2961 13.4422 94.0923 13.5286C93.8885 13.6151 93.7034 13.7417 93.5475 13.9012C93.2326 14.2233 93.056 14.6599 93.0565 15.1149C93.057 15.5699 93.2346 16.0061 93.5501 16.3275C93.8657 16.6489 94.2934 16.8292 94.7391 16.8286H94.7277C95.1742 16.8292 95.6025 16.6487 95.9187 16.327C96.2349 16.0054 96.4131 15.5687 96.4141 15.113V13.3973C96.4087 13.2812 96.4264 13.1652 96.4662 13.0564C96.506 12.9475 96.5671 12.848 96.6456 12.7639C96.7242 12.6798 96.8187 12.6128 96.9233 12.5671C97.028 12.5213 97.1406 12.4978 97.2545 12.4978C97.3683 12.4978 97.4809 12.5213 97.5856 12.5671C97.6902 12.6128 97.7847 12.6798 97.8633 12.7639C97.9418 12.848 98.0029 12.9475 98.0427 13.0564C98.0824 13.1652 98.1002 13.2812 98.0948 13.3973V13.3876L98.0929 15.113Z" fill="white"/>
<path d="M121.735 17.686C121.624 17.6868 121.514 17.6652 121.411 17.6223C121.308 17.5795 121.215 17.5164 121.136 17.4366C121.057 17.3567 120.995 17.2618 120.952 17.1572C120.91 17.0527 120.888 16.9405 120.888 16.8272C120.888 16.6015 120.844 16.378 120.76 16.1695C120.675 15.961 120.551 15.7716 120.394 15.612C120.238 15.4525 120.052 15.326 119.848 15.2398C119.643 15.1536 119.424 15.1094 119.203 15.1096C119.09 15.1152 118.976 15.0971 118.87 15.0566C118.764 15.016 118.666 14.9539 118.584 14.8739C118.502 14.7938 118.437 14.6976 118.392 14.591C118.347 14.4844 118.324 14.3697 118.324 14.2537C118.324 14.1378 118.347 14.023 118.392 13.9165C118.437 13.8099 118.502 13.7136 118.584 13.6336C118.666 13.5536 118.764 13.4915 118.87 13.4509C118.976 13.4104 119.09 13.3923 119.203 13.3978C119.65 13.3978 120.078 13.2169 120.393 12.8948C120.709 12.5727 120.886 12.1358 120.886 11.6802V9.97231C120.886 9.85953 120.864 9.74786 120.822 9.64366C120.78 9.53947 120.718 9.4448 120.639 9.36505C120.561 9.2853 120.469 9.22204 120.367 9.17888C120.264 9.13573 120.155 9.11351 120.045 9.11351C119.821 9.11351 119.607 9.02303 119.45 8.86197C119.292 8.70092 119.203 8.48248 119.203 8.25471C119.203 7.79917 119.026 7.3623 118.71 7.04018C118.395 6.71807 117.967 6.53711 117.521 6.53711H106.614C106.504 6.53711 106.395 6.55934 106.293 6.60252C106.191 6.6457 106.098 6.70899 106.02 6.78876C105.942 6.86854 105.88 6.96322 105.838 7.06741C105.796 7.17159 105.775 7.28322 105.775 7.39591C105.775 7.5086 105.753 7.62018 105.711 7.72427C105.669 7.82835 105.607 7.9229 105.528 8.00249C105.45 8.08208 105.358 8.14516 105.255 8.18811C105.153 8.23106 105.044 8.25303 104.934 8.25278C104.713 8.25278 104.494 8.29723 104.29 8.3836C104.086 8.46996 103.901 8.59654 103.745 8.75608C103.589 8.91563 103.466 9.10501 103.382 9.31337C103.297 9.52174 103.254 9.745 103.255 9.97038V18.541C103.255 18.6536 103.276 18.7651 103.318 18.8692C103.36 18.9733 103.422 19.0678 103.5 19.1474C103.578 19.2271 103.671 19.2902 103.773 19.3331C103.875 19.3761 103.984 19.3981 104.094 19.3978C104.205 19.3978 104.314 19.4201 104.416 19.4632C104.518 19.5064 104.611 19.5696 104.689 19.6494C104.767 19.7291 104.829 19.8238 104.872 19.928C104.914 20.0322 104.936 20.1439 104.936 20.2566C104.936 20.3696 104.957 20.4814 105 20.5857C105.042 20.6901 105.104 20.7848 105.183 20.8646C105.261 20.9444 105.354 21.0076 105.456 21.0506C105.559 21.0937 105.668 21.1157 105.779 21.1154C105.889 21.1154 105.999 21.1377 106.101 21.1808C106.203 21.224 106.295 21.2872 106.374 21.367C106.452 21.4467 106.514 21.5414 106.556 21.6456C106.598 21.7498 106.62 21.8615 106.62 21.9742C106.615 22.0825 106.631 22.1907 106.667 22.2925C106.704 22.3944 106.76 22.4876 106.832 22.5668C106.905 22.6461 106.992 22.7096 107.089 22.7537C107.186 22.7977 107.291 22.8214 107.397 22.8234H118.371C118.593 22.8236 118.811 22.7794 119.016 22.6932C119.22 22.6069 119.406 22.4804 119.562 22.3209C119.718 22.1613 119.842 21.9719 119.927 21.7634C120.011 21.5549 120.054 21.3314 120.054 21.1058C120.054 20.8807 120.097 20.6577 120.181 20.4497C120.266 20.2416 120.389 20.0526 120.545 19.8934C120.701 19.7342 120.886 19.608 121.09 19.522C121.294 19.4359 121.512 19.3918 121.733 19.392C121.955 19.392 122.169 19.3018 122.326 19.1411C122.484 18.9804 122.572 18.7624 122.572 18.5352C122.572 18.3079 122.484 18.09 122.326 17.9293C122.169 17.7686 121.955 17.6783 121.733 17.6783L121.735 17.686ZM109.14 9.96844C109.14 9.85576 109.161 9.74412 109.203 9.63994C109.246 9.53576 109.307 9.44107 109.385 9.3613C109.463 9.28152 109.556 9.21824 109.658 9.17505C109.76 9.13187 109.869 9.10964 109.979 9.10964H115.853C116.075 9.10964 116.289 9.19932 116.446 9.35913C116.604 9.51893 116.693 9.73588 116.695 9.96264C116.693 10.1891 116.603 10.4055 116.446 10.5649C116.288 10.7243 116.075 10.8137 115.853 10.8137C115.742 10.814 115.632 10.8367 115.53 10.8805C115.427 10.9244 115.334 10.9886 115.256 11.0693C115.178 11.1501 115.117 11.2458 115.075 11.351C115.033 11.4562 115.013 11.5687 115.014 11.6822C115.014 11.9071 114.971 12.13 114.888 12.338C114.804 12.546 114.68 12.7351 114.525 12.8944C114.369 13.0538 114.184 13.1802 113.981 13.2666C113.777 13.353 113.559 13.3976 113.339 13.3978C113.122 13.3874 112.918 13.2922 112.769 13.1321C112.619 12.972 112.536 12.7593 112.536 12.5381C112.536 12.3169 112.619 12.1041 112.769 11.944C112.918 11.784 113.122 11.6888 113.339 11.6783C113.505 11.6771 113.667 11.6257 113.805 11.5304C113.942 11.4351 114.049 11.3003 114.111 11.1431C114.174 10.9858 114.189 10.8132 114.155 10.6472C114.121 10.4811 114.04 10.329 113.921 10.2101C113.803 10.0912 113.652 10.011 113.489 9.97949C113.326 9.948 113.157 9.96669 113.004 10.0332C112.851 10.0997 112.721 10.211 112.63 10.3531C112.539 10.4951 112.492 10.6615 112.494 10.8311C112.494 11.2856 112.317 11.7215 112.002 12.0429C111.687 12.3643 111.26 12.5448 110.815 12.5448C110.371 12.5438 109.944 12.3628 109.63 12.0415C109.316 11.7203 109.14 11.285 109.14 10.8311V9.96844ZM115.772 19.4172H109.809C109.588 19.4147 109.371 19.3675 109.168 19.2784C108.966 19.1893 108.782 19.06 108.629 18.8981C108.476 18.7361 108.356 18.5447 108.276 18.335C108.196 18.1253 108.157 17.9014 108.162 17.6764V17.6977C108.162 17.244 107.985 16.809 107.671 16.4878C107.358 16.1666 106.932 15.9855 106.487 15.9839H106.472C106.363 15.9837 106.255 15.9612 106.154 15.9179C106.053 15.8745 105.962 15.8111 105.885 15.7313C105.809 15.6516 105.748 15.5571 105.708 15.4533C105.668 15.3496 105.648 15.2387 105.65 15.1271C105.65 14.8998 105.738 14.6817 105.895 14.5205C106.052 14.3592 106.265 14.2678 106.487 14.2663C106.71 14.2668 106.924 14.3575 107.081 14.5185C107.238 14.6795 107.327 14.8977 107.327 15.1251C107.327 15.3529 107.415 15.5713 107.573 15.7324C107.731 15.8934 107.945 15.9839 108.168 15.9839H115.776C116.212 15.9989 116.626 16.1865 116.93 16.5072C117.234 16.8278 117.404 17.2564 117.404 17.7025C117.404 18.1486 117.234 18.5772 116.93 18.8978C116.626 19.2185 116.212 19.4061 115.776 19.4211L115.772 19.4172Z" fill="white"/>
</svg>
