<svg width="148" height="29" viewBox="0 0 148 29" fill="none" xmlns="http://www.w3.org/2000/svg">
<path d="M129.153 4.81966C129.153 5.04538 129.109 5.26889 129.024 5.47741C128.94 5.68592 128.816 5.87536 128.659 6.03487C128.503 6.19439 128.317 6.32087 128.113 6.40708C127.908 6.49328 127.689 6.53752 127.468 6.53726H125.803C125.582 6.53701 125.363 6.58126 125.158 6.66749C124.954 6.75372 124.769 6.88023 124.612 7.03977C124.456 7.19932 124.332 7.38876 124.248 7.59727C124.163 7.80577 124.12 8.02924 124.12 8.25487V18.5411C124.12 18.654 124.099 18.7658 124.057 18.8701C124.014 18.9744 123.952 19.0692 123.874 19.149C123.796 19.2288 123.703 19.292 123.601 19.3351C123.499 19.3781 123.389 19.4002 123.279 19.3999C122.946 19.3999 122.621 19.5006 122.345 19.6892C122.068 19.8778 121.853 20.1459 121.726 20.4595C121.599 20.7731 121.566 21.1182 121.631 21.451C121.696 21.7839 121.856 22.0896 122.091 22.3294C122.326 22.5693 122.626 22.7326 122.952 22.7985C123.278 22.8645 123.616 22.8303 123.923 22.7001C124.23 22.57 124.493 22.3498 124.677 22.0674C124.862 21.785 124.96 21.4531 124.959 21.1137V19.3999C124.959 19.1722 125.048 18.9537 125.206 18.7927C125.364 18.6316 125.578 18.5411 125.801 18.5411C126.021 18.5416 126.24 18.4977 126.444 18.4117C126.648 18.3258 126.833 18.1996 126.989 18.0403C127.145 17.8811 127.269 17.692 127.353 17.4838C127.437 17.2757 127.48 17.0526 127.48 16.8274C127.48 16.6001 127.568 16.3822 127.725 16.2215C127.883 16.0608 128.096 15.9705 128.319 15.9705C128.429 15.9705 128.539 15.9483 128.641 15.9051C128.743 15.8619 128.835 15.7987 128.913 15.7189C128.991 15.6391 129.053 15.5444 129.095 15.4402C129.137 15.3361 129.159 15.2244 129.158 15.1117V6.5392C129.158 6.31143 129.247 6.09299 129.405 5.93193C129.563 5.77088 129.777 5.6804 130 5.6804C130.217 5.67206 130.423 5.57844 130.575 5.41899C130.727 5.25953 130.813 5.0465 130.815 4.82415C130.817 4.6018 130.735 4.38723 130.586 4.22502C130.437 4.06281 130.232 3.96544 130.015 3.95312C129.786 3.95515 129.568 4.04872 129.406 4.21369C129.244 4.37867 129.153 4.60184 129.151 4.83514" fill="#1D1D1B"/>
<path d="M135.879 8.25277V18.541C135.879 18.6538 135.858 18.7656 135.815 18.8699C135.773 18.9742 135.711 19.069 135.633 19.1488C135.555 19.2286 135.462 19.2918 135.36 19.3349C135.258 19.378 135.148 19.4 135.038 19.3998C134.872 19.4002 134.71 19.4507 134.572 19.5451C134.434 19.6395 134.327 19.7735 134.264 19.9301C134.2 20.0867 134.184 20.2589 134.217 20.425C134.249 20.5911 134.329 20.7436 134.447 20.8632C134.564 20.9829 134.714 21.0643 134.877 21.0972C135.039 21.1301 135.208 21.113 135.361 21.0481C135.515 20.9832 135.646 20.8734 135.738 20.7325C135.83 20.5916 135.879 20.426 135.879 20.2566C135.879 20.0311 135.922 19.8077 136.006 19.5993C136.091 19.3909 136.215 19.2016 136.371 19.0423C136.527 18.883 136.713 18.7569 136.917 18.6712C137.122 18.5855 137.341 18.5419 137.562 18.5429H140.929C141.039 18.5429 141.148 18.5652 141.249 18.6084C141.351 18.6517 141.443 18.7151 141.521 18.7949C141.598 18.8748 141.66 18.9695 141.701 19.0736C141.743 19.1778 141.763 19.2893 141.762 19.4017C141.762 19.5141 141.784 19.6255 141.826 19.7293C141.868 19.8332 141.93 19.9275 142.008 20.0069C142.086 20.0863 142.179 20.1493 142.281 20.1921C142.382 20.235 142.492 20.2569 142.602 20.2566C142.818 20.2671 143.021 20.3621 143.171 20.5218C143.32 20.6815 143.403 20.8938 143.403 21.1145C143.403 21.3352 143.32 21.5474 143.171 21.7072C143.021 21.8669 142.818 21.9618 142.602 21.9723H131.674C131.451 21.9723 131.237 22.0628 131.08 22.2238C130.922 22.3849 130.833 22.6033 130.833 22.8311C130.833 23.0578 130.745 23.2753 130.588 23.4356C130.431 23.596 130.218 23.686 129.996 23.686C129.774 23.686 129.561 23.596 129.403 23.4356C129.246 23.2753 129.158 23.0578 129.158 22.8311V21.1154C129.174 20.8813 129.276 20.6621 129.445 20.5028C129.614 20.3434 129.836 20.2561 130.066 20.2586C130.284 20.2587 130.5 20.2139 130.701 20.1269C130.902 20.0398 131.083 19.9123 131.235 19.752C131.386 19.5916 131.504 19.4017 131.582 19.1936C131.66 18.9855 131.696 18.7636 131.688 18.541V9.10963C131.688 8.88238 131.599 8.66443 131.442 8.50374C131.284 8.34304 131.071 8.25277 130.848 8.25277C130.735 8.25828 130.621 8.24018 130.514 8.19956C130.408 8.15893 130.31 8.09664 130.228 8.01644C130.145 7.93624 130.08 7.8398 130.035 7.73297C129.99 7.62614 129.967 7.51114 129.967 7.39493C129.967 7.27872 129.99 7.16372 130.035 7.05689C130.08 6.95007 130.145 6.85363 130.228 6.77343C130.31 6.69323 130.408 6.63093 130.514 6.59031C130.621 6.54969 130.735 6.53159 130.848 6.5371H134.208C134.429 6.53659 134.648 6.58059 134.852 6.66659C135.056 6.75258 135.242 6.87887 135.399 7.03824C135.555 7.1976 135.679 7.38691 135.764 7.59532C135.849 7.80372 135.892 8.02714 135.892 8.25277" fill="#1D1D1B"/>
<path d="M13.2504 18.5409C13.1398 18.5406 13.0302 18.5627 12.9279 18.6057C12.8256 18.6488 12.7327 18.712 12.6543 18.7918C12.576 18.8715 12.5139 18.9663 12.4715 19.0706C12.4291 19.1749 12.4073 19.2868 12.4073 19.3997V20.2179C12.4079 20.4506 12.3195 20.6744 12.161 20.8416C12.0024 21.0089 11.7863 21.1064 11.5584 21.1134C11.3353 21.1134 11.1213 21.2039 10.9635 21.365C10.8057 21.526 10.7171 21.7445 10.7171 21.9722C10.7068 22.1932 10.6136 22.4017 10.4568 22.5543C10.3 22.707 10.0916 22.7922 9.87487 22.7922C9.65816 22.7922 9.44978 22.707 9.29295 22.5543C9.13613 22.4017 9.04291 22.1932 9.03264 21.9722C9.03264 21.7445 8.944 21.526 8.78623 21.365C8.62846 21.2039 8.41448 21.1134 8.19135 21.1134C7.74526 21.1129 7.31758 20.9318 7.00215 20.6098C6.68671 20.2878 6.50928 19.8512 6.50878 19.3958V9.98191C6.50883 9.75712 6.42254 9.54128 6.26843 9.38072C6.11433 9.22015 5.9047 9.12766 5.68455 9.12311C5.46142 9.12311 5.24744 9.03263 5.08967 8.87157C4.9319 8.71051 4.84326 8.49207 4.84326 8.2643C4.84326 8.03654 4.9319 7.8181 5.08967 7.65704C5.24744 7.49598 5.46142 7.4055 5.68455 7.4055C5.79503 7.405 5.90452 7.4267 6.00678 7.46939C6.10904 7.51208 6.20207 7.57492 6.28054 7.6543C6.35901 7.73369 6.4214 7.82808 6.46414 7.93208C6.50687 8.03608 6.52913 8.14766 6.52962 8.26044C6.52205 8.49046 6.5599 8.71969 6.64091 8.93447C6.72191 9.14925 6.84443 9.34521 7.00115 9.51066C7.15788 9.67611 7.34561 9.80768 7.55317 9.89754C7.76074 9.9874 7.98389 10.0337 8.20935 10.0337C8.43481 10.0337 8.65797 9.9874 8.86553 9.89754C9.0731 9.80768 9.26083 9.67611 9.41756 9.51066C9.57428 9.34521 9.69679 9.14925 9.7778 8.93447C9.85881 8.71969 9.89665 8.49046 9.88908 8.26044C9.88808 7.80524 9.71011 7.36906 9.39426 7.04772C9.07842 6.72639 8.65053 6.54619 8.20462 6.5467C7.98149 6.5467 7.76751 6.45622 7.60974 6.29517C7.45197 6.13411 7.36333 5.91567 7.36333 5.6879C7.36333 5.46013 7.45197 5.2417 7.60974 5.08064C7.76751 4.91958 7.98149 4.8291 8.20462 4.8291C8.42774 4.8291 8.64172 4.91958 8.79949 5.08064C8.95727 5.2417 9.0459 5.46013 9.0459 5.6879C9.0459 5.91567 9.13454 6.13411 9.29231 6.29517C9.45008 6.45622 9.66407 6.5467 9.88719 6.5467L22.497 6.52929C22.7135 6.53978 22.9177 6.63494 23.0672 6.79503C23.2168 6.95512 23.3002 7.16784 23.3002 7.38906C23.3002 7.61028 23.2168 7.82301 23.0672 7.9831C22.9177 8.14319 22.7135 8.23835 22.497 8.24883C22.2739 8.24883 22.0599 8.33931 21.9021 8.50037C21.7444 8.66142 21.6557 8.87986 21.6557 9.10763C21.6557 9.3354 21.5671 9.55384 21.4093 9.7149C21.2515 9.87595 21.0376 9.96643 20.8144 9.96643H14.0898C13.9789 9.96643 13.869 9.98883 13.7666 10.0324C13.6641 10.0759 13.5711 10.1397 13.4929 10.22C13.4147 10.3004 13.3529 10.3957 13.3109 10.5006C13.269 10.6055 13.2478 10.7178 13.2485 10.831V12.5448C13.2485 12.7725 13.1599 12.991 13.0021 13.152C12.8444 13.3131 12.6304 13.4036 12.4073 13.4036C12.2403 13.4032 12.077 13.4534 11.9381 13.5478C11.7991 13.6423 11.6908 13.7767 11.6267 13.934C11.5627 14.0914 11.5458 14.2646 11.5783 14.4318C11.6108 14.5989 11.6911 14.7524 11.8091 14.8729C11.9272 14.9934 12.0776 15.0754 12.2413 15.1086C12.4051 15.1417 12.5748 15.1245 12.7289 15.0591C12.8831 14.9938 13.0147 14.8831 13.1072 14.7413C13.1997 14.5995 13.2489 14.4328 13.2485 14.2624C13.2485 14.0346 13.3372 13.8162 13.4949 13.6551C13.6527 13.4941 13.8667 13.4036 14.0898 13.4036H19.1375C19.5584 13.439 19.9509 13.6347 20.237 13.9518C20.5231 14.2689 20.6819 14.6843 20.6819 15.1154C20.6819 15.5465 20.5231 15.9618 20.237 16.279C19.9509 16.5961 19.5584 16.7918 19.1375 16.8272H14.9292C14.7061 16.8272 14.4921 16.9176 14.3343 17.0787C14.1766 17.2398 14.0879 17.4582 14.0879 17.686C14.0879 17.9137 13.9993 18.1322 13.8415 18.2932C13.6838 18.4543 13.4698 18.5448 13.2466 18.5448" fill="#1D1D1B"/>
<path d="M75.4127 13.3998V15.9723C75.4137 16.1984 75.502 16.415 75.6585 16.5751C75.8149 16.7351 76.0269 16.8257 76.2483 16.8273C76.4715 16.8273 76.6855 16.9177 76.8432 17.0788C77.001 17.2399 77.0896 17.4583 77.0896 17.6861V18.5294C77.0896 18.7572 77.001 18.9756 76.8432 19.1367C76.6855 19.2977 76.4715 19.3882 76.2483 19.3882C75.8021 19.3882 75.3741 19.5692 75.0586 19.8913C74.743 20.2134 74.5658 20.6503 74.5658 21.1058C74.5658 21.5613 74.743 21.9982 75.0586 22.3203C75.3741 22.6424 75.8021 22.8234 76.2483 22.8234H76.237C76.6832 22.8234 77.1112 22.6424 77.4267 22.3203C77.7423 21.9982 77.9195 21.5613 77.9195 21.1058V19.3901C77.9195 19.1624 78.0082 18.9439 78.166 18.7829C78.3237 18.6218 78.5377 18.5313 78.7608 18.5313H79.4202C79.6433 18.5313 79.8573 18.4408 80.0151 18.2798C80.1729 18.1187 80.2615 17.9003 80.2615 17.6725V8.25666C80.2618 8.03103 80.2184 7.80757 80.1339 7.59907C80.0495 7.39056 79.9255 7.20111 79.7692 7.04157C79.613 6.88203 79.4274 6.75552 79.2231 6.66929C79.0189 6.58306 78.8 6.53881 78.5789 6.53906H73.7283C73.282 6.53906 72.8541 6.72002 72.5385 7.04214C72.223 7.36425 72.0457 7.80113 72.0457 8.25666V9.92785C72.046 10.0408 72.0244 10.1527 71.9822 10.2571C71.94 10.3615 71.8781 10.4564 71.8 10.5364C71.7218 10.6163 71.629 10.6797 71.5268 10.723C71.4246 10.7663 71.3151 10.7886 71.2044 10.7886C70.7611 10.7932 70.3375 10.9762 70.0257 11.2978C69.7138 11.6194 69.5389 12.0536 69.5389 12.5062C69.5389 12.734 69.6275 12.9524 69.7853 13.1134C69.9431 13.2745 70.1571 13.365 70.3802 13.365C70.6033 13.365 70.8173 13.4555 70.9751 13.6165C71.1328 13.7776 71.2215 13.996 71.2215 14.2238C71.2215 14.4516 71.1328 14.67 70.9751 14.831C70.8173 14.9921 70.6033 15.0826 70.3802 15.0826C70.1571 15.0826 69.9431 15.1731 69.7853 15.3341C69.6275 15.4952 69.5389 15.7136 69.5389 15.9414C69.5389 16.1692 69.4503 16.3876 69.2925 16.5486C69.1347 16.7097 68.9207 16.8002 68.6976 16.8002C68.4745 16.8002 68.2605 16.7097 68.1027 16.5486C67.945 16.3876 67.8563 16.1692 67.8563 15.9414C67.8558 15.8283 67.8335 15.7164 67.7905 15.6121C67.7475 15.5079 67.6848 15.4133 67.6059 15.3339C67.527 15.2544 67.4336 15.1917 67.3309 15.1492C67.2282 15.1068 67.1183 15.0854 67.0075 15.0865C66.897 15.0865 66.7876 15.0642 66.6855 15.0211C66.5834 14.9779 66.4907 14.9147 66.4126 14.8349C66.3345 14.7552 66.2725 14.6605 66.2302 14.5563C66.1879 14.4521 66.1662 14.3404 66.1662 14.2277C66.1662 14.1149 66.1879 14.0032 66.2302 13.899C66.2725 13.7948 66.3345 13.7001 66.4126 13.6204C66.4907 13.5406 66.5834 13.4774 66.6855 13.4342C66.7876 13.3911 66.897 13.3689 67.0075 13.3689C67.2306 13.3689 67.4446 13.2784 67.6023 13.1173C67.7601 12.9563 67.8487 12.7378 67.8487 12.5101C67.8487 12.0545 67.6715 11.6176 67.3559 11.2955C67.0404 10.9734 66.6124 10.7924 66.1662 10.7924C66.0555 10.7924 65.946 10.7702 65.8438 10.7269C65.7416 10.6836 65.6488 10.6202 65.5706 10.5402C65.4925 10.4603 65.4306 10.3654 65.3884 10.261C65.3462 10.1565 65.3246 10.0447 65.3249 9.93171V8.25666C65.3251 8.03103 65.2818 7.80757 65.1973 7.59907C65.1129 7.39056 64.9889 7.20111 64.8326 7.04157C64.6763 6.88203 64.4908 6.75552 64.2865 6.66929C64.0823 6.58306 63.8633 6.53881 63.6423 6.53906H58.6079C58.1616 6.53906 57.7337 6.72002 57.4181 7.04214C57.1026 7.36425 56.9253 7.80113 56.9253 8.25666V21.1135C56.9258 21.5689 57.1032 22.0055 57.4187 22.3275C57.7341 22.6495 58.1618 22.8306 58.6079 22.8311H59.4416C59.5522 22.8311 59.6618 22.8089 59.764 22.7656C59.8662 22.7223 59.959 22.6589 60.0371 22.5789C60.1153 22.499 60.1772 22.4041 60.2194 22.2996C60.2615 22.1952 60.2831 22.0833 60.2829 21.9704C60.2829 21.7426 60.3715 21.5242 60.5293 21.3631C60.687 21.2021 60.901 21.1116 61.1241 21.1116C61.2347 21.1119 61.3442 21.0898 61.4464 21.0467C61.5486 21.0037 61.6414 20.9404 61.7196 20.8606C61.7977 20.7808 61.8597 20.6861 61.9019 20.5817C61.9441 20.4774 61.9657 20.3656 61.9654 20.2528V13.3998V12.5449C61.9654 12.3171 61.8768 12.0987 61.719 11.9376C61.5613 11.7765 61.3473 11.6861 61.1241 11.6861C60.901 11.6861 60.687 11.5956 60.5293 11.4345C60.3715 11.2735 60.2829 11.055 60.2829 10.8273C60.2829 10.5995 60.3715 10.3811 60.5293 10.22C60.687 10.0589 60.901 9.96846 61.1241 9.96846C61.3469 9.97 61.56 10.0617 61.7167 10.2234C61.8733 10.3851 61.9608 10.6037 61.9597 10.8311C61.9597 11.0589 62.0484 11.2773 62.2062 11.4384C62.3639 11.5995 62.5779 11.6899 62.801 11.6899C63.0242 11.6899 63.2381 11.7804 63.3959 11.9415C63.5537 12.1025 63.6423 12.321 63.6423 12.5487V15.1251C63.6426 15.2372 63.6646 15.3481 63.7071 15.4515C63.7496 15.5548 63.8118 15.6485 63.8901 15.7271C63.9683 15.8057 64.0611 15.8677 64.163 15.9095C64.2648 15.9512 64.3738 15.9719 64.4836 15.9704C64.5936 15.9694 64.7028 15.9906 64.8047 16.033C64.9066 16.0753 64.9993 16.1379 65.0774 16.217C65.1554 16.2962 65.2173 16.3904 65.2595 16.4941C65.3017 16.5979 65.3233 16.7091 65.323 16.8215V18.5429C65.323 18.7702 65.4114 18.9881 65.5688 19.1488C65.7263 19.3095 65.9398 19.3998 66.1624 19.3998C66.3855 19.3998 66.5995 19.4903 66.7573 19.6513C66.915 19.8124 67.0037 20.0308 67.0037 20.2586C67.0037 20.7131 67.1805 21.149 67.4954 21.4704C67.8102 21.7918 68.2372 21.9723 68.6825 21.9723C69.1277 21.9723 69.5547 21.7918 69.8695 21.4704C70.1844 21.149 70.3612 20.7131 70.3612 20.2586C70.3615 20.1458 70.3835 20.0342 70.426 19.9301C70.4685 19.826 70.5307 19.7315 70.609 19.6519C70.6873 19.5723 70.7802 19.5093 70.8823 19.4664C70.9845 19.4234 71.0939 19.4015 71.2044 19.4017C71.4275 19.4017 71.6415 19.3113 71.7993 19.1502C71.9571 18.9891 72.0457 18.7707 72.0457 18.5429V16.8273C72.0447 16.7149 72.0655 16.6035 72.107 16.4995C72.1485 16.3954 72.2098 16.3008 72.2873 16.2211C72.3648 16.1414 72.4571 16.0782 72.5587 16.0352C72.6604 15.9922 72.7694 15.9701 72.8794 15.9704C72.9899 15.9707 73.0993 15.9487 73.2015 15.9058C73.3037 15.8628 73.3965 15.7998 73.4748 15.7202C73.5531 15.6407 73.6153 15.5461 73.6578 15.442C73.7003 15.3379 73.7223 15.2263 73.7226 15.1135V13.3998C73.7226 13.172 73.8112 12.9536 73.969 12.7925C74.1268 12.6315 74.3408 12.541 74.5639 12.541C74.787 12.541 75.001 12.6315 75.1588 12.7925C75.3165 12.9536 75.4052 13.172 75.4052 13.3998" fill="#1D1D1B"/>
<path d="M37.6024 21.1156C37.3793 21.1156 37.1653 21.0251 37.0075 20.8641C36.8498 20.703 36.7611 20.4846 36.7611 20.2568V18.5431C36.7611 18.3158 36.6727 18.0979 36.5153 17.9372C36.3578 17.7765 36.1443 17.6862 35.9217 17.6862C35.6993 17.6852 35.4862 17.5943 35.3293 17.4333C35.1723 17.2724 35.0842 17.0545 35.0842 16.8274V14.2239C35.0842 13.9962 34.9956 13.7777 34.8378 13.6167C34.6801 13.4556 34.4661 13.3651 34.2429 13.3651C34.0198 13.3651 33.8058 13.2746 33.6481 13.1136C33.4903 12.9525 33.4017 12.7341 33.4017 12.5063V9.96087C33.4017 9.84819 33.3799 9.7366 33.3376 9.63252C33.2953 9.52843 33.2333 9.43389 33.1551 9.35429C33.077 9.2747 32.9842 9.21162 32.8822 9.16868C32.7801 9.12573 32.6708 9.10375 32.5604 9.10401C32.0961 9.10401 31.7172 8.85836 31.7172 8.38447V8.27035C31.7172 7.81464 31.54 7.37756 31.2245 7.05514C30.909 6.73272 30.481 6.55133 30.0346 6.55081C29.9241 6.55107 29.8146 6.52903 29.7124 6.48596C29.6102 6.44289 29.5174 6.37964 29.4392 6.29985C29.361 6.22005 29.2991 6.12527 29.2569 6.02096C29.2147 5.91665 29.1931 5.80487 29.1933 5.69201C29.1831 5.47104 29.0898 5.26259 28.933 5.10992C28.7762 4.95724 28.5678 4.87207 28.3511 4.87207C28.1344 4.87207 27.926 4.95724 27.7692 5.10992C27.6124 5.26259 27.5191 5.47104 27.5089 5.69201C27.5091 5.804 27.4876 5.91492 27.4455 6.01833C27.4034 6.12174 27.3416 6.21558 27.2637 6.2944C27.1858 6.37323 27.0933 6.43546 26.9916 6.47748C26.8899 6.51951 26.7811 6.54049 26.6714 6.53921C26.2289 6.54481 25.8065 6.7283 25.4957 7.04987C25.185 7.37143 25.011 7.80512 25.0115 8.25681V8.13109C25.0115 8.35885 24.9229 8.57729 24.7651 8.73835C24.6074 8.89941 24.3934 8.98989 24.1702 8.98989C23.9471 8.98989 23.7331 9.08037 23.5754 9.24142C23.4176 9.40248 23.329 9.62092 23.329 9.84869V12.4928C23.3275 12.7195 23.2382 12.9365 23.0806 13.0963C22.9229 13.2561 22.7098 13.3458 22.4877 13.3458C22.2646 13.3458 22.0506 13.4363 21.8928 13.5973C21.735 13.7584 21.6464 13.9768 21.6464 14.2046V16.8139C21.6464 17.0416 21.5578 17.2601 21.4 17.4211C21.2422 17.5822 21.0282 17.6727 20.8051 17.6727C20.582 17.6727 20.368 17.7632 20.2102 17.9242C20.0525 18.0853 19.9638 18.3037 19.9638 18.5315V20.2433C19.9638 20.471 19.8752 20.6895 19.7174 20.8505C19.5596 21.0116 19.3457 21.1021 19.1225 21.1021C18.8994 21.1021 18.6854 21.1926 18.5277 21.3536C18.3699 21.5147 18.2812 21.7331 18.2812 21.9609C18.2812 22.1886 18.3699 22.4071 18.5277 22.5681C18.6854 22.7292 18.8994 22.8197 19.1225 22.8197L23.3157 22.8313C23.7618 22.8308 24.1895 22.6496 24.5049 22.3276C24.8203 22.0056 24.9978 21.5691 24.9983 21.1137C24.9983 20.8859 25.0869 20.6675 25.2447 20.5064C25.4025 20.3454 25.6164 20.2549 25.8396 20.2549C26.0627 20.2549 26.2767 20.1644 26.4344 20.0033C26.5922 19.8423 26.6808 19.6238 26.6808 19.3961V18.5682C26.6808 18.3405 26.5922 18.122 26.4344 17.961C26.2767 17.7999 26.0627 17.7094 25.8396 17.7094C25.3933 17.7094 24.9653 17.5285 24.6498 17.2063C24.3343 16.8842 24.157 16.4474 24.157 15.9918C24.1716 15.546 24.3554 15.1235 24.6695 14.8134C24.9837 14.5033 25.4035 14.3299 25.8405 14.3299C26.2775 14.3299 26.6973 14.5033 27.0115 14.8134C27.3256 15.1235 27.5094 15.546 27.524 15.9918C27.524 16.2196 27.6127 16.438 27.7704 16.5991C27.9282 16.7601 28.1422 16.8506 28.3653 16.8506H29.1952C29.3054 16.8499 29.4146 16.8713 29.5166 16.9137C29.6186 16.956 29.7114 17.0185 29.7898 17.0976C29.8681 17.1767 29.9304 17.2707 29.973 17.3744C30.0157 17.478 30.0379 17.5893 30.0384 17.7017V19.4135C30.0384 19.526 30.0601 19.6374 30.1023 19.7414C30.1445 19.8454 30.2063 19.9398 30.2843 20.0194C30.3622 20.0989 30.4547 20.1621 30.5566 20.2051C30.6584 20.2482 30.7676 20.2704 30.8778 20.2704C30.9881 20.2701 31.0974 20.2921 31.1993 20.3351C31.3013 20.378 31.3939 20.4411 31.4719 20.5208C31.5499 20.6004 31.6117 20.6949 31.6538 20.799C31.6959 20.9031 31.7174 21.0146 31.7172 21.1272C31.7172 21.5828 31.8945 22.0196 32.21 22.3417C32.5255 22.6639 32.9535 22.8448 33.3998 22.8448H37.591C37.8142 22.8448 38.0281 22.7543 38.1859 22.5933C38.3437 22.4322 38.4323 22.2138 38.4323 21.986C38.4323 21.7583 38.3437 21.5398 38.1859 21.3788C38.0281 21.2177 37.8142 21.1272 37.591 21.1272L37.6024 21.1156ZM31.7286 13.3999C31.7296 13.6247 31.6872 13.8475 31.6038 14.0556C31.5205 14.2637 31.3978 14.453 31.2428 14.6126C31.0878 14.7723 30.9035 14.8993 30.7004 14.9862C30.4973 15.0732 30.2795 15.1185 30.0593 15.1195C29.839 15.1205 29.6208 15.0772 29.417 14.9921C29.2131 14.9071 29.0277 14.7818 28.8713 14.6236C28.7149 14.4653 28.5905 14.2772 28.5053 14.0699C28.4201 13.8626 28.3758 13.6402 28.3748 13.4154V10.8197C28.3748 10.5919 28.2861 10.3735 28.1284 10.2124C27.9706 10.0514 27.7566 9.96087 27.5335 9.96087H26.6941C26.472 9.96087 26.259 9.8708 26.1019 9.71047C25.9448 9.55014 25.8566 9.33268 25.8566 9.10594C25.8566 8.8792 25.9448 8.66174 26.1019 8.50141C26.259 8.34108 26.472 8.25101 26.6941 8.25101C26.9166 8.25203 27.1296 8.34296 27.2865 8.50391C27.4435 8.66485 27.5316 8.88271 27.5316 9.10981C27.5321 9.22224 27.5543 9.33348 27.597 9.43713C27.6397 9.54079 27.7019 9.63484 27.7802 9.7139C27.8586 9.79295 27.9514 9.85546 28.0534 9.89784C28.1554 9.94022 28.2646 9.96164 28.3748 9.96087C28.4842 9.96371 28.5931 9.94421 28.695 9.90354C28.7969 9.86287 28.8899 9.80183 28.9684 9.724C29.047 9.64618 29.1095 9.55314 29.1523 9.45033C29.1952 9.34752 29.2175 9.23701 29.218 9.12528C29.218 8.89752 29.3066 8.67908 29.4644 8.51802C29.6221 8.35696 29.8361 8.26648 30.0593 8.26648C30.2824 8.26648 30.4964 8.35696 30.6541 8.51802C30.8119 8.67908 30.9005 8.89752 30.9005 9.12528C30.9 9.35272 30.8112 9.57066 30.6535 9.7313C30.4957 9.89194 30.282 9.98215 30.0593 9.98215C29.8361 9.98215 29.6221 10.0726 29.4644 10.2337C29.3066 10.3947 29.218 10.6132 29.218 10.841C29.218 11.0687 29.3066 11.2872 29.4644 11.4482C29.6221 11.6093 29.8361 11.6998 30.0593 11.6998C30.2787 11.6974 30.4965 11.7397 30.6998 11.8239C30.9032 11.9082 31.0882 12.0328 31.244 12.1906C31.3998 12.3484 31.5234 12.5362 31.6075 12.7432C31.6917 12.9501 31.7348 13.172 31.7342 13.3961L31.7286 13.3999Z" fill="#1D1D1B"/>
<path d="M54.4108 15.1135H53.5752C53.352 15.1135 53.1381 15.023 52.9803 14.862C52.8225 14.7009 52.7339 14.4825 52.7339 14.2547C52.7339 14.0269 52.8225 13.8085 52.9803 13.6474C53.1381 13.4864 53.352 13.3959 53.5752 13.3959H53.5543C54.0004 13.3954 54.4281 13.2143 54.7435 12.8923C55.059 12.5703 55.2364 12.1337 55.2369 11.6783L55.254 9.97037C55.254 9.7426 55.1653 9.52416 55.0075 9.3631C54.8498 9.20205 54.6358 9.11157 54.4127 9.11157C54.1895 9.11157 53.9756 9.02109 53.8178 8.86003C53.66 8.69897 53.5714 8.48053 53.5714 8.25277C53.5714 7.79723 53.3941 7.36035 53.0786 7.03824C52.763 6.71613 52.3351 6.53517 51.8888 6.53517H40.9729C40.8625 6.53466 40.753 6.55637 40.6507 6.59905C40.5484 6.64174 40.4554 6.70458 40.3769 6.78396C40.2985 6.86335 40.2361 6.95774 40.1933 7.06174C40.1506 7.16574 40.1284 7.27732 40.1279 7.3901C40.1281 7.50304 40.1065 7.61492 40.0644 7.71934C40.0222 7.82376 39.9603 7.91866 39.8821 7.99861C39.804 8.07856 39.7112 8.142 39.609 8.18528C39.5068 8.22855 39.3972 8.25083 39.2866 8.25083C39.0656 8.25083 38.8468 8.29526 38.6427 8.38158C38.4385 8.46789 38.2531 8.59441 38.0968 8.75391C37.9406 8.9134 37.8166 9.10275 37.7321 9.31114C37.6475 9.51952 37.604 9.74288 37.604 9.96843V18.5506C37.604 18.7784 37.6926 18.9968 37.8504 19.1579C38.0082 19.319 38.2222 19.4094 38.4453 19.4094H39.2828C39.5059 19.4094 39.7199 19.319 39.8777 19.1579C40.0354 18.9968 40.1241 18.7784 40.1241 18.5506C40.1233 18.3806 40.172 18.2142 40.264 18.0725C40.356 17.9307 40.4871 17.8201 40.6408 17.7545C40.7944 17.6889 40.9637 17.6713 41.1271 17.704C41.2906 17.7367 41.4408 17.8182 41.5589 17.9381C41.6769 18.0581 41.7574 18.2111 41.7902 18.3778C41.823 18.5445 41.8065 18.7174 41.743 18.8745C41.6794 19.0317 41.5716 19.166 41.4331 19.2606C41.2947 19.3551 41.1319 19.4056 40.9654 19.4056C40.7422 19.4056 40.5282 19.4961 40.3705 19.6571C40.2127 19.8182 40.1241 20.0366 40.1241 20.2644V21.9684C40.1241 22.1962 40.2127 22.4146 40.3705 22.5757C40.5282 22.7368 40.7422 22.8272 40.9654 22.8272H52.713C52.9362 22.8272 53.1502 22.7368 53.3079 22.5757C53.4657 22.4146 53.5543 22.1962 53.5543 21.9684C53.5543 21.7407 53.643 21.5222 53.8007 21.3612C53.9585 21.2001 54.1725 21.1096 54.3956 21.1096H54.4089C54.6299 21.1099 54.8488 21.0656 55.0531 20.9794C55.2573 20.8932 55.4429 20.7667 55.5992 20.6071C55.7555 20.4476 55.8794 20.2581 55.9639 20.0496C56.0483 19.8411 56.0917 19.6177 56.0914 19.392V16.8272C56.0904 16.3727 55.913 15.9371 55.598 15.6159C55.2829 15.2947 54.856 15.114 54.4108 15.1135ZM51.0513 17.6899C51.0488 18.1436 50.8704 18.5778 50.555 18.8975C50.2397 19.2172 49.8132 19.3964 49.3687 19.3959H44.3229C44.0998 19.3959 43.8858 19.3054 43.728 19.1444C43.5703 18.9833 43.4816 18.7649 43.4816 18.5371C43.4816 18.4246 43.4599 18.3132 43.4177 18.2092C43.3756 18.1052 43.3137 18.0108 43.2358 17.9312C43.1578 17.8516 43.0653 17.7885 42.9635 17.7455C42.8616 17.7024 42.7525 17.6802 42.6422 17.6802C42.4263 17.6698 42.2225 17.5748 42.0733 17.4151C41.9241 17.2554 41.8409 17.0431 41.8409 16.8224C41.8409 16.6017 41.9241 16.3894 42.0733 16.2297C42.2225 16.07 42.4263 15.975 42.6422 15.9646H49.3991H49.365C49.8096 15.9646 50.2361 16.1442 50.5514 16.4642C50.8666 16.7842 51.045 17.2186 51.0475 17.6725L51.0513 17.6899ZM51.0513 12.5526H46.0093C45.5645 12.549 45.1392 12.366 44.8261 12.0435C44.513 11.721 44.3376 11.2852 44.3381 10.8311V9.98391C44.3381 9.75614 44.4267 9.5377 44.5845 9.37664C44.7423 9.21559 44.9562 9.12511 45.1794 9.12511H49.3763C49.5978 9.12663 49.8098 9.21726 49.9662 9.37731C50.1226 9.53737 50.2109 9.75394 50.2119 9.98004V9.93749C50.2117 10.0503 50.2333 10.1621 50.2755 10.2664C50.3176 10.3707 50.3796 10.4655 50.4578 10.5453C50.5359 10.6251 50.6288 10.6884 50.731 10.7314C50.8331 10.7745 50.9427 10.7965 51.0532 10.7963C51.2804 10.8053 51.4952 10.9042 51.6523 11.0721C51.8093 11.24 51.8961 11.4636 51.8945 11.6957C51.8945 11.9223 51.8066 12.1397 51.65 12.3002C51.4934 12.4608 51.2809 12.5516 51.0589 12.5526H51.0513Z" fill="#1D1D1B"/>
<path d="M100.613 8.25317H99.776C99.6653 8.25342 99.5557 8.2314 99.4534 8.18835C99.3511 8.14531 99.2582 8.08209 99.1799 8.00232C99.1015 7.92254 99.0394 7.82779 98.997 7.72346C98.9546 7.61914 98.9328 7.50731 98.9328 7.39437C98.9323 6.93899 98.7548 6.50241 98.4394 6.18041C98.124 5.8584 97.6963 5.67728 97.2502 5.67677H87.1718C87.0614 5.67626 86.9519 5.69797 86.8496 5.74066C86.7473 5.78335 86.6543 5.84618 86.5758 5.92557C86.4974 6.00495 86.435 6.09934 86.3922 6.20334C86.3495 6.30734 86.3273 6.41892 86.3268 6.5317C86.3268 6.75947 86.2381 6.97791 86.0804 7.13896C85.9226 7.30002 85.7086 7.3905 85.4855 7.3905H84.6461C84.1997 7.39101 83.7717 7.5724 83.4562 7.89482C83.1407 8.21724 82.9635 8.65432 82.9635 9.11004V11.6806C82.9635 11.7935 82.9417 11.9052 82.8993 12.0094C82.8568 12.1137 82.7947 12.2083 82.7163 12.2879C82.638 12.3675 82.545 12.4306 82.4427 12.4734C82.3404 12.5162 82.2309 12.538 82.1203 12.5375C81.8985 12.5395 81.6865 12.6309 81.5303 12.7918C81.3742 12.9526 81.2866 13.1699 81.2866 13.3963V18.5375C81.2866 18.7653 81.3753 18.9837 81.533 19.1448C81.6908 19.3058 81.9048 19.3963 82.1279 19.3963C82.2385 19.396 82.348 19.4181 82.4502 19.4612C82.5523 19.5042 82.6452 19.5675 82.7233 19.6473C82.8015 19.7271 82.8635 19.8218 82.9057 19.9262C82.9479 20.0305 82.9694 20.1423 82.9692 20.2551C82.9697 20.7105 83.1471 21.1471 83.4626 21.4691C83.778 21.7911 84.2057 21.9722 84.6518 21.9727H86.3324C86.5556 21.9727 86.7696 22.0632 86.9273 22.2242C87.0851 22.3853 87.1737 22.6037 87.1737 22.8315C87.174 22.9443 87.196 23.0559 87.2385 23.16C87.281 23.2641 87.3432 23.3586 87.4215 23.4382C87.4998 23.5178 87.5927 23.5808 87.6948 23.6237C87.797 23.6667 87.9064 23.6886 88.0169 23.6884H96.407C96.63 23.6884 96.8439 23.5982 97.0019 23.4376C97.1599 23.2771 97.2492 23.0591 97.2502 22.8315C97.2502 22.7187 97.272 22.6071 97.3142 22.5029C97.3565 22.3987 97.4185 22.304 97.4966 22.2242C97.5747 22.1445 97.6675 22.0812 97.7696 22.0381C97.8716 21.9949 97.981 21.9727 98.0915 21.9727C98.5377 21.9727 98.9657 21.7917 99.2813 21.4696C99.5968 21.1475 99.7741 20.7106 99.7741 20.2551C99.7751 20.0283 99.8639 19.8112 100.021 19.651C100.178 19.4909 100.391 19.4007 100.613 19.4002C101.06 19.4002 101.488 19.2192 101.803 18.8971C102.119 18.575 102.296 18.1381 102.296 17.6826V9.97077C102.296 9.74514 102.253 9.52168 102.168 9.31317C102.084 9.10467 101.96 8.91522 101.804 8.75567C101.647 8.59613 101.462 8.46962 101.258 8.3834C101.053 8.29717 100.834 8.25291 100.613 8.25317ZM98.0934 15.112V15.9688C98.0942 16.0823 98.0727 16.1948 98.0304 16.2998C97.988 16.4047 97.9256 16.4999 97.8467 16.5799C97.7678 16.6599 97.6741 16.723 97.571 16.7655C97.4679 16.8081 97.3576 16.8292 97.2464 16.8276C97.136 16.8271 97.0266 16.8489 96.9245 16.8916C96.8223 16.9343 96.7294 16.9971 96.6511 17.0766C96.5728 17.156 96.5106 17.2504 96.468 17.3544C96.4255 17.4583 96.4035 17.5699 96.4032 17.6826C96.4032 18.6323 95.7439 19.4021 94.9291 19.4021H90.5275C90.3064 19.4021 90.0874 19.3576 89.8832 19.2712C89.6789 19.1847 89.4933 19.058 89.3371 18.8983C89.1808 18.7387 89.0569 18.5491 88.9725 18.3405C88.888 18.1318 88.8447 17.9083 88.8449 17.6826V16.8276C88.8449 16.5999 88.9336 16.3814 89.0913 16.2204C89.2491 16.0593 89.4631 15.9688 89.6862 15.9688C89.8522 15.9681 90.0143 15.9171 90.1519 15.8223C90.2895 15.7275 90.3965 15.5932 90.4594 15.4363C90.5222 15.2794 90.5381 15.1071 90.5049 14.941C90.4718 14.775 90.3912 14.6226 90.2733 14.5034C90.1554 14.3841 90.0054 14.3031 89.8425 14.2708C89.6795 14.2385 89.5108 14.2563 89.3577 14.3218C89.2046 14.3874 89.074 14.4978 88.9824 14.6391C88.8908 14.7805 88.8423 14.9464 88.843 15.1158C88.843 15.3411 88.7995 15.5642 88.7148 15.7723C88.6302 15.9803 88.5062 16.1693 88.3499 16.3283C88.1936 16.4874 88.008 16.6133 87.8039 16.699C87.5998 16.7847 87.3812 16.8284 87.1605 16.8276C86.9372 16.8256 86.7238 16.7332 86.5671 16.5708C86.4105 16.4083 86.3233 16.189 86.3249 15.9611V13.3963C86.3251 13.2834 86.3472 13.1716 86.3898 13.0674C86.4324 12.9631 86.4948 12.8685 86.5733 12.7889C86.6518 12.7093 86.7449 12.6463 86.8473 12.6035C86.9496 12.5607 87.0593 12.5389 87.1699 12.5394C87.2803 12.5397 87.3897 12.5177 87.4917 12.4748C87.5938 12.4318 87.6866 12.3687 87.7647 12.2892C87.8428 12.2096 87.9048 12.115 87.9471 12.0109C87.9894 11.9068 88.0112 11.7953 88.0112 11.6826C88.0112 10.7329 88.6763 9.96497 89.4892 9.96497H93.887C94.3331 9.96548 94.7607 10.1466 95.0762 10.4686C95.3916 10.7906 95.569 11.2272 95.5695 11.6826V12.5394C95.5703 12.6517 95.5493 12.763 95.5077 12.8669C95.4661 12.9708 95.4049 13.0653 95.3274 13.145C95.2499 13.2246 95.1577 13.2878 95.0562 13.331C94.9547 13.3741 94.8458 13.3963 94.7358 13.3963C94.5151 13.3966 94.2966 13.4412 94.0928 13.5276C93.889 13.6141 93.7039 13.7407 93.548 13.9002C93.2331 14.2223 93.0565 14.6589 93.057 15.1139C93.0575 15.5689 93.2351 16.0051 93.5506 16.3265C93.8662 16.6479 94.2939 16.8282 94.7396 16.8276H94.7282C95.1747 16.8282 95.603 16.6477 95.9192 16.326C96.2354 16.0044 96.4136 15.5677 96.4146 15.112V13.3963C96.4092 13.2802 96.4269 13.1642 96.4667 13.0554C96.5065 12.9465 96.5676 12.847 96.6461 12.7629C96.7247 12.6788 96.8192 12.6118 96.9238 12.5661C97.0285 12.5203 97.1411 12.4968 97.255 12.4968C97.3688 12.4968 97.4814 12.5203 97.5861 12.5661C97.6907 12.6118 97.7852 12.6788 97.8638 12.7629C97.9423 12.847 98.0034 12.9465 98.0432 13.0554C98.0829 13.1642 98.1007 13.2802 98.0953 13.3963V13.3866L98.0934 15.112Z" fill="#1D1D1B"/>
<path d="M121.735 17.686C121.624 17.6868 121.514 17.6652 121.411 17.6223C121.308 17.5795 121.215 17.5164 121.136 17.4366C121.057 17.3567 120.995 17.2618 120.952 17.1572C120.91 17.0527 120.888 16.9405 120.888 16.8272C120.888 16.6015 120.844 16.378 120.76 16.1695C120.675 15.961 120.551 15.7716 120.394 15.612C120.238 15.4525 120.052 15.326 119.848 15.2398C119.643 15.1536 119.424 15.1094 119.203 15.1096C119.09 15.1152 118.976 15.0971 118.87 15.0566C118.764 15.016 118.666 14.9539 118.584 14.8739C118.502 14.7938 118.437 14.6976 118.392 14.591C118.347 14.4844 118.324 14.3697 118.324 14.2537C118.324 14.1378 118.347 14.023 118.392 13.9165C118.437 13.8099 118.502 13.7136 118.584 13.6336C118.666 13.5536 118.764 13.4915 118.87 13.4509C118.976 13.4104 119.09 13.3923 119.203 13.3978C119.65 13.3978 120.078 13.2169 120.393 12.8948C120.709 12.5727 120.886 12.1358 120.886 11.6802V9.97231C120.886 9.85953 120.864 9.74786 120.822 9.64366C120.78 9.53947 120.718 9.4448 120.639 9.36505C120.561 9.2853 120.469 9.22204 120.367 9.17888C120.264 9.13573 120.155 9.11351 120.045 9.11351C119.821 9.11351 119.607 9.02303 119.45 8.86197C119.292 8.70092 119.203 8.48248 119.203 8.25471C119.203 7.79917 119.026 7.3623 118.71 7.04018C118.395 6.71807 117.967 6.53711 117.521 6.53711H106.614C106.504 6.53711 106.395 6.55934 106.293 6.60252C106.191 6.6457 106.098 6.70899 106.02 6.78876C105.942 6.86854 105.88 6.96322 105.838 7.06741C105.796 7.17159 105.775 7.28322 105.775 7.39591C105.775 7.5086 105.753 7.62018 105.711 7.72427C105.669 7.82835 105.607 7.9229 105.528 8.00249C105.45 8.08208 105.358 8.14516 105.255 8.18811C105.153 8.23106 105.044 8.25303 104.934 8.25278C104.713 8.25278 104.494 8.29723 104.29 8.3836C104.086 8.46996 103.901 8.59654 103.745 8.75608C103.589 8.91563 103.466 9.10501 103.382 9.31337C103.297 9.52174 103.254 9.745 103.255 9.97038V18.541C103.255 18.6536 103.276 18.7651 103.318 18.8692C103.36 18.9733 103.422 19.0678 103.5 19.1474C103.578 19.2271 103.671 19.2902 103.773 19.3331C103.875 19.3761 103.984 19.3981 104.094 19.3978C104.205 19.3978 104.314 19.4201 104.416 19.4632C104.518 19.5064 104.611 19.5696 104.689 19.6494C104.767 19.7291 104.829 19.8238 104.872 19.928C104.914 20.0322 104.936 20.1439 104.936 20.2566C104.936 20.3696 104.957 20.4814 105 20.5857C105.042 20.6901 105.104 20.7848 105.183 20.8646C105.261 20.9444 105.354 21.0076 105.456 21.0506C105.559 21.0937 105.668 21.1157 105.779 21.1154C105.889 21.1154 105.999 21.1377 106.101 21.1808C106.203 21.224 106.295 21.2872 106.374 21.367C106.452 21.4467 106.514 21.5414 106.556 21.6456C106.598 21.7498 106.62 21.8615 106.62 21.9742C106.615 22.0825 106.631 22.1907 106.667 22.2925C106.704 22.3944 106.76 22.4876 106.832 22.5668C106.905 22.6461 106.992 22.7096 107.089 22.7537C107.186 22.7977 107.291 22.8214 107.397 22.8234H118.371C118.593 22.8236 118.811 22.7794 119.016 22.6932C119.22 22.6069 119.406 22.4804 119.562 22.3209C119.718 22.1613 119.842 21.9719 119.927 21.7634C120.011 21.5549 120.054 21.3314 120.054 21.1058C120.054 20.8807 120.097 20.6577 120.181 20.4497C120.266 20.2416 120.389 20.0526 120.545 19.8934C120.701 19.7342 120.886 19.608 121.09 19.522C121.294 19.4359 121.512 19.3918 121.733 19.392C121.955 19.392 122.169 19.3018 122.326 19.1411C122.484 18.9804 122.572 18.7624 122.572 18.5352C122.572 18.3079 122.484 18.09 122.326 17.9293C122.169 17.7686 121.955 17.6783 121.733 17.6783L121.735 17.686ZM109.14 9.96844C109.14 9.85576 109.161 9.74412 109.203 9.63994C109.246 9.53576 109.307 9.44107 109.385 9.3613C109.463 9.28152 109.556 9.21824 109.658 9.17505C109.76 9.13187 109.869 9.10964 109.979 9.10964H115.853C116.075 9.10964 116.289 9.19932 116.446 9.35913C116.604 9.51893 116.693 9.73588 116.695 9.96264C116.693 10.1891 116.603 10.4055 116.446 10.5649C116.288 10.7243 116.075 10.8137 115.853 10.8137C115.742 10.814 115.632 10.8367 115.53 10.8805C115.427 10.9244 115.334 10.9886 115.256 11.0693C115.178 11.1501 115.117 11.2458 115.075 11.351C115.033 11.4562 115.013 11.5687 115.014 11.6822C115.014 11.9071 114.971 12.13 114.888 12.338C114.804 12.546 114.68 12.7351 114.525 12.8944C114.369 13.0538 114.184 13.1802 113.981 13.2666C113.777 13.353 113.559 13.3976 113.339 13.3978C113.122 13.3874 112.918 13.2922 112.769 13.1321C112.619 12.972 112.536 12.7593 112.536 12.5381C112.536 12.3169 112.619 12.1041 112.769 11.944C112.918 11.784 113.122 11.6888 113.339 11.6783C113.505 11.6771 113.667 11.6257 113.805 11.5304C113.942 11.4351 114.049 11.3003 114.111 11.1431C114.174 10.9858 114.189 10.8132 114.155 10.6472C114.121 10.4811 114.04 10.329 113.921 10.2101C113.803 10.0912 113.652 10.011 113.489 9.97949C113.326 9.948 113.157 9.96669 113.004 10.0332C112.851 10.0997 112.721 10.211 112.63 10.3531C112.539 10.4951 112.492 10.6615 112.494 10.8311C112.494 11.2856 112.317 11.7215 112.002 12.0429C111.687 12.3643 111.26 12.5448 110.815 12.5448C110.371 12.5438 109.944 12.3628 109.63 12.0415C109.316 11.7203 109.14 11.285 109.14 10.8311V9.96844ZM115.772 19.4172H109.809C109.588 19.4147 109.371 19.3675 109.168 19.2784C108.966 19.1893 108.782 19.06 108.629 18.8981C108.476 18.7361 108.356 18.5447 108.276 18.335C108.196 18.1253 108.157 17.9014 108.162 17.6764V17.6977C108.162 17.244 107.985 16.809 107.671 16.4878C107.358 16.1666 106.932 15.9855 106.487 15.9839H106.472C106.363 15.9837 106.255 15.9612 106.154 15.9179C106.053 15.8745 105.962 15.8111 105.885 15.7313C105.809 15.6516 105.748 15.5571 105.708 15.4533C105.668 15.3496 105.648 15.2387 105.65 15.1271C105.65 14.8998 105.738 14.6817 105.895 14.5205C106.052 14.3592 106.265 14.2678 106.487 14.2663C106.71 14.2668 106.924 14.3575 107.081 14.5185C107.238 14.6795 107.327 14.8977 107.327 15.1251C107.327 15.3529 107.415 15.5713 107.573 15.7324C107.731 15.8934 107.945 15.9839 108.168 15.9839H115.776C116.212 15.9989 116.626 16.1865 116.93 16.5072C117.234 16.8278 117.404 17.2564 117.404 17.7025C117.404 18.1486 117.234 18.5772 116.93 18.8978C116.626 19.2185 116.212 19.4061 115.776 19.4211L115.772 19.4172Z" fill="#1D1D1B"/>
</svg>
