<svg width="370" height="204" viewBox="0 0 370 204" fill="none" xmlns="http://www.w3.org/2000/svg">
<path d="M40.8047 92.9618C77.0316 92.9618 112.666 91.0718 148.707 89.0123C160.038 88.3648 171.558 88.9378 182.911 88.9378C195.754 88.9378 209.926 87.2698 222.554 89.6084C232.733 91.4934 244.065 90.2791 254.374 90.2791C261.27 90.2791 272.057 89.4014 278.219 92.6637C286.532 97.0643 315.792 94.3031 306.387 94.3031" stroke="#F2F2F2" stroke-width="5" stroke-linecap="round"/>
<path d="M22.1072 42.3706L26.748 39.1642L48.0113 72.4937V73H30.7981V72.4937L36.1983 69.5405L19.7446 44.7332L16.0319 48.5303V69.203L22.3603 72.4937V73H0.759406V72.4937L7.00341 69.203V19.8416L0.759406 16.5508V16.0446H22.3603V16.5508L16.0319 19.8416V46.3364L30.2919 31.4858C36.8734 24.5668 34.7639 19.8416 30.3762 16.5508V16.0446H47.6738V16.5508L22.1072 42.3706ZM65.4909 74.0125C55.1123 74.0125 46.9276 66.1653 46.9276 52.496C46.9276 33.0046 61.1876 27.7732 64.8158 27.7732C75.2787 27.7732 83.4635 35.536 83.4635 49.2897C83.4635 68.6967 69.1191 74.0125 65.4909 74.0125ZM69.4566 70.0468C73.0005 69.6249 77.3038 65.7435 75.7006 52.496C74.0131 39.2486 68.3597 31.2327 60.9344 31.6546C57.3061 32.0765 53.0028 35.9579 54.606 49.2897C56.2936 62.4527 62.0313 70.4686 69.4566 70.0468ZM102.592 44.1426L107.824 47.4333C113.899 50.8085 119.468 54.268 119.468 61.3558C119.468 67.5998 115.165 74.0125 104.28 74.0125C97.8671 74.0125 93.9857 71.7343 89.1761 71.6499L86.9823 51.7366H87.6573C92.045 67.0091 103.605 71.3968 109.089 71.3968C112.549 71.3968 115.08 69.4561 115.08 65.9966C115.08 62.1152 111.452 59.4994 104.449 55.7868L99.3016 52.7492C93.4794 49.5428 89.0918 46.1677 89.0918 39.9237C89.0918 32.414 95.167 27.4356 103.689 27.4356C107.233 27.4356 111.452 28.2794 114.405 30.5576L117.021 27.6888H117.527V47.349H116.852C113.224 37.2235 107.064 29.967 99.4703 29.967C95.5889 29.967 93.7326 32.1608 93.7326 35.0297C93.7326 39.1642 97.614 41.5268 102.592 44.1426ZM146.859 65.2372L147.196 65.6591C142.724 70.7218 137.83 74.0125 135.805 74.0125C130.742 74.0125 127.789 70.6374 127.705 63.7184L127.62 30.9795L121.292 29.2076V28.7013H128.042L135.468 17.7321H135.889L135.805 28.7013H146.606V31.7389C144.074 31.7389 140.277 31.2327 135.805 30.5576L135.721 62.4527C135.721 66.2497 137.408 68.1904 140.699 68.1904C142.387 68.1904 143.99 67.6842 146.859 65.2372ZM181.938 64.6465L182.275 65.1528C176.622 70.3843 171.644 74.0125 169.028 74.0125C157.721 74.0125 148.693 66.3341 148.693 52.0741C148.693 33.0046 164.134 27.6044 168.1 27.6044C177.719 27.6044 181.431 33.5953 181.685 41.9487C181.685 43.7207 174.597 47.6865 172.656 47.6865H155.527C156.54 58.8244 163.206 67.5998 173.669 67.5998C176.959 67.5998 179.153 66.2497 181.938 64.6465ZM164.64 31.3171C160.674 31.3171 155.358 33.6796 155.358 44.6488V46.1677H173.415C173.922 36.7173 169.618 31.3171 164.64 31.3171ZM223.508 42.1175V70.0468L229.752 72.4937V73H208.91V72.4937L215.239 70.0468L215.323 42.455C215.323 36.3798 211.695 33.8484 207.729 33.8484C204.354 33.8484 201.57 36.9704 199.544 40.0924V70.0468L205.873 72.4937V73H185.031V72.4937L191.36 70.0468V34.1015L182.669 38.7424L182.416 38.3205C186.55 33.8484 190.685 27.6888 194.229 27.6888C196.422 27.6888 198.363 28.8701 199.123 37.8986C204.27 31.2327 208.91 27.8575 210.851 27.7732C218.276 27.6044 223.508 31.9077 223.508 42.1175ZM244.102 70.0468H244.186L250.43 72.4937V73H229.588V72.4937L235.748 70.1311V13.5132L228.492 13.0069V12.5007L243.595 8.53487H244.102V70.0468ZM270.339 74.0125C259.961 74.0125 251.776 66.1653 251.776 52.496C251.776 33.0046 266.036 27.7732 269.664 27.7732C280.127 27.7732 288.312 35.536 288.312 49.2897C288.312 68.6967 273.968 74.0125 270.339 74.0125ZM274.305 70.0468C277.849 69.6249 282.152 65.7435 280.549 52.496C278.861 39.2486 273.208 31.2327 265.783 31.6546C262.155 32.0765 257.851 35.9579 259.454 49.2897C261.142 62.4527 266.88 70.4686 274.305 70.0468ZM307.441 44.1426L312.672 47.4333C318.747 50.8085 324.316 54.268 324.316 61.3558C324.316 67.5998 320.013 74.0125 309.128 74.0125C302.716 74.0125 298.834 71.7343 294.025 71.6499L291.831 51.7366H292.506C296.893 67.0091 308.453 71.3968 313.938 71.3968C317.397 71.3968 319.929 69.4561 319.929 65.9966C319.929 62.1152 316.3 59.4994 309.297 55.7868L304.15 52.7492C298.328 49.5428 293.94 46.1677 293.94 39.9237C293.94 32.414 300.015 27.4356 308.538 27.4356C312.082 27.4356 316.3 28.2794 319.254 30.5576L321.869 27.6888H322.376V47.349H321.701C318.072 37.2235 311.913 29.967 304.319 29.967C300.437 29.967 298.581 32.1608 298.581 35.0297C298.581 39.1642 302.462 41.5268 307.441 44.1426ZM361.242 64.6465L361.579 65.1528C355.926 70.3843 350.948 74.0125 348.332 74.0125C337.025 74.0125 327.997 66.3341 327.997 52.0741C327.997 33.0046 343.438 27.6044 347.404 27.6044C357.023 27.6044 360.736 33.5953 360.989 41.9487C360.989 43.7207 353.901 47.6865 351.96 47.6865H334.831C335.844 58.8244 342.51 67.5998 352.973 67.5998C356.264 67.5998 358.457 66.2497 361.242 64.6465ZM343.944 31.3171C339.979 31.3171 334.663 33.6796 334.663 44.6488V46.1677H352.72C353.226 36.7173 348.923 31.3171 343.944 31.3171ZM43.708 118.551V118.045H59.6556V118.551L42.1048 176.266H41.5142L31.0513 143.949H30.7981L19.7446 176.266H19.1539L0.590649 118.551V118.045H17.2132V118.551L10.9692 121.926L23.1197 160.824H23.5416L28.0136 144.539C30.545 136.692 28.8574 134.245 23.0353 131.208V130.701H42.8642V131.208L36.5359 134.667L44.7206 160.824H45.2268L51.8927 136.777C55.0991 126.904 50.7114 122.179 43.708 118.551ZM73.5661 176.013C63.1876 176.013 55.0029 168.165 55.0029 154.496C55.0029 135.005 69.2628 129.773 72.8911 129.773C83.354 129.773 91.5387 137.536 91.5387 151.29C91.5387 170.697 77.1944 176.013 73.5661 176.013ZM77.5319 172.047C81.0758 171.625 85.3791 167.743 83.7759 154.496C82.0884 141.249 76.435 133.233 69.0097 133.655C65.3814 134.076 61.0781 137.958 62.6813 151.29C64.3689 164.453 70.1066 172.469 77.5319 172.047ZM130.067 133.739L130.32 134.076C128.97 136.102 126.185 141.417 123.232 141.417C120.194 141.417 117.41 136.692 114.457 136.692C113.022 136.692 110.997 139.392 109.563 142.008V172.047L115.891 174.494V175H95.0497V174.494L101.378 172.047V136.102L92.6871 140.742L92.4339 140.32C96.5685 135.848 100.703 129.689 104.247 129.689C106.441 129.689 108.381 130.87 109.141 140.067C112.01 135.68 116.819 129.689 117.916 129.689C120.194 129.689 124.498 134.92 127.451 134.92C128.548 134.92 129.223 134.414 130.067 133.739ZM146.704 151.543L152.864 148.252L169.655 174.494V175H152.948V174.494L158.939 172.131L145.945 152.302L143.161 154.749V172.047H143.245L149.489 174.494V175H128.647V174.494L134.807 172.131V115.513L127.551 115.007V114.501L142.654 110.535H143.161V152.808L153.37 143.021C159.108 138.042 158.011 133.655 152.105 131.208V130.701H169.065V131.123L146.704 151.543ZM187.218 146.143L192.449 149.433C198.525 152.808 204.094 156.268 204.094 163.356C204.094 169.6 199.79 176.013 188.906 176.013C182.493 176.013 178.611 173.734 173.802 173.65L171.608 153.737H172.283C176.671 169.009 188.23 173.397 193.715 173.397C197.175 173.397 199.706 171.456 199.706 167.997C199.706 164.115 196.078 161.499 189.074 157.787L183.927 154.749C178.105 151.543 173.717 148.168 173.717 141.924C173.717 134.414 179.793 129.436 188.315 129.436C191.859 129.436 196.078 130.279 199.031 132.558L201.647 129.689H202.153V149.349H201.478C197.85 139.224 191.69 131.967 184.096 131.967C180.215 131.967 178.358 134.161 178.358 137.03C178.358 141.164 182.24 143.527 187.218 146.143ZM245.66 144.117V172.047L251.904 174.494V175H231.062V174.494L237.306 172.047L237.391 144.455C237.391 138.38 233.763 135.848 229.797 135.848C226.253 135.848 223.384 139.308 221.359 142.599V172.047H221.443L227.687 174.494V175H206.846V174.494L213.005 172.131V115.513L205.749 115.007V114.501L220.853 110.535H221.359V139.645C226.506 133.233 230.978 129.858 232.919 129.773C240.344 129.604 245.66 133.908 245.66 144.117ZM270.998 176.013C260.62 176.013 252.435 168.165 252.435 154.496C252.435 135.005 266.695 129.773 270.323 129.773C280.786 129.773 288.971 137.536 288.971 151.29C288.971 170.697 274.627 176.013 270.998 176.013ZM274.964 172.047C278.508 171.625 282.811 167.743 281.208 154.496C279.521 141.249 273.867 133.233 266.442 133.655C262.814 134.076 258.51 137.958 260.114 151.29C261.801 164.453 267.539 172.469 274.964 172.047ZM315.186 129.942C324.974 130.448 331.64 137.62 331.64 150.361C331.64 169.6 316.62 175.422 312.823 175.422C309.617 175.422 307.17 175 305.313 174.494V193.141L311.642 195.588V196.095H290.8V195.588L297.044 193.141V136.102L288.438 140.827L288.185 140.405C292.319 135.933 296.454 129.773 299.998 129.773C302.023 129.773 303.963 130.786 304.723 138.633C309.532 134.076 314.004 129.942 315.186 129.942ZM313.076 172.637C317.886 172.637 323.877 169.684 323.877 155.846C323.877 144.033 319.742 135.848 312.908 135.848C309.786 135.848 307.254 137.873 305.313 140.067V168.334C307.001 171.034 309.701 172.637 313.076 172.637ZM350.948 146.143L356.18 149.433C362.255 152.808 367.824 156.268 367.824 163.356C367.824 169.6 363.521 176.013 352.636 176.013C346.223 176.013 342.342 173.734 337.532 173.65L335.338 153.737H336.013C340.401 169.009 351.961 173.397 357.445 173.397C360.905 173.397 363.436 171.456 363.436 167.997C363.436 164.115 359.808 161.499 352.805 157.787L347.658 154.749C341.835 151.543 337.448 148.168 337.448 141.924C337.448 134.414 343.523 129.436 352.045 129.436C355.589 129.436 359.808 130.279 362.761 132.558L365.377 129.689H365.883V149.349H365.208C361.58 139.224 355.42 131.967 347.826 131.967C343.945 131.967 342.089 134.161 342.089 137.03C342.089 141.164 345.97 143.527 350.948 146.143Z" fill="#1A1A1A"/>
</svg>
