<svg width="1266" height="329" viewBox="0 0 1266 329" fill="none" xmlns="http://www.w3.org/2000/svg">
<path d="M23.649 78H10.7121L10.7945 69.1007H23.649C27.1373 69.1007 30.0626 68.3316 32.4247 66.7935C34.7869 65.2279 36.5722 62.9893 37.7808 60.0778C38.9893 57.1389 39.5936 53.6231 39.5936 49.5305V46.4405C39.5936 43.2818 39.2503 40.4939 38.5636 38.0768C37.8769 35.6597 36.8606 33.6272 35.5148 31.9791C34.1963 30.3311 32.5621 29.0814 30.6119 28.2299C28.6617 27.3784 26.4232 26.9527 23.8962 26.9527H10.4649V18.0122H23.8962C27.9064 18.0122 31.5595 18.6851 34.8555 20.031C38.179 21.3769 41.0493 23.3133 43.4664 25.8403C45.911 28.3398 47.7787 31.3337 49.0697 34.822C50.3881 38.3103 51.0473 42.2106 51.0473 46.5229V49.5305C51.0473 53.8154 50.3881 57.7157 49.0697 61.2314C47.7787 64.7197 45.911 67.7136 43.4664 70.2131C41.0493 72.7126 38.1653 74.6353 34.8143 75.9812C31.4634 77.3271 27.7416 78 23.649 78ZM17.057 18.0122V78H5.72686V18.0122H17.057ZM84.4196 68.5239V47.9649C84.4196 46.4542 84.1587 45.1495 83.6368 44.0509C83.115 42.9522 82.3184 42.1007 81.2472 41.4964C80.176 40.8922 78.8164 40.59 77.1684 40.59C75.7126 40.59 74.4354 40.8372 73.3367 41.3316C72.2655 41.826 71.4415 42.5264 70.8647 43.4329C70.2879 44.3118 69.9995 45.3281 69.9995 46.4817H59.0814C59.0814 44.6414 59.5209 42.8973 60.3998 41.2492C61.2787 39.5738 62.5285 38.0905 64.149 36.7996C65.797 35.4812 67.7609 34.4512 70.0407 33.7096C72.3479 32.968 74.9298 32.5972 77.7864 32.5972C81.1648 32.5972 84.1724 33.174 86.8093 34.3276C89.4735 35.4537 91.561 37.1567 93.0717 39.4364C94.6099 41.7162 95.3789 44.5865 95.3789 48.0473V67.4939C95.3789 69.7187 95.5163 71.6277 95.7909 73.2208C96.0931 74.7864 96.5326 76.146 97.1094 77.2996V78H86.0264C85.5046 76.8739 85.1063 75.4456 84.8316 73.7152C84.557 71.9573 84.4196 70.2269 84.4196 68.5239ZM85.944 50.8489L86.0264 57.3174H79.146C77.443 57.3174 75.9461 57.4959 74.6551 57.853C73.3642 58.1826 72.3067 58.677 71.4827 59.3362C70.6587 59.968 70.0407 60.737 69.6287 61.6434C69.2167 62.5224 69.0107 63.5249 69.0107 64.6511C69.0107 65.7497 69.2579 66.7386 69.7523 67.6175C70.2742 68.4964 71.0158 69.1968 71.9771 69.7187C72.9659 70.2131 74.1195 70.4603 75.4379 70.4603C77.3606 70.4603 79.0361 70.0758 80.4644 69.3067C81.8927 68.5102 83.0051 67.5488 83.8016 66.4227C84.5982 65.2965 85.0239 64.2253 85.0788 63.2091L88.2101 67.9059C87.8255 69.032 87.2487 70.2269 86.4797 71.4903C85.7106 72.7538 84.7218 73.9349 83.5132 75.0336C82.3047 76.1322 80.8489 77.0387 79.146 77.7528C77.443 78.4669 75.4654 78.824 73.2131 78.824C70.3291 78.824 67.7472 78.2472 65.4674 77.0936C63.1877 75.94 61.3886 74.3606 60.0702 72.3555C58.7518 70.3505 58.0926 68.0707 58.0926 65.5163C58.0926 63.1541 58.532 61.0666 59.411 59.2538C60.2899 57.441 61.5946 55.9166 63.325 54.6806C65.0554 53.4171 67.1979 52.4695 69.7523 51.8377C72.3342 51.1785 75.2869 50.8489 78.6104 50.8489H85.944ZM129.699 65.8047C129.699 64.8708 129.452 64.0331 128.957 63.2915C128.463 62.5498 127.529 61.8769 126.156 61.2726C124.81 60.6409 122.832 60.0504 120.223 59.501C117.916 59.0066 115.787 58.3886 113.837 57.647C111.887 56.9054 110.211 56.0127 108.81 54.969C107.409 53.8978 106.311 52.648 105.514 51.2197C104.745 49.764 104.361 48.0885 104.361 46.1933C104.361 44.353 104.759 42.6226 105.555 41.002C106.352 39.354 107.506 37.912 109.016 36.676C110.527 35.4125 112.367 34.4237 114.537 33.7096C116.707 32.968 119.152 32.5972 121.871 32.5972C125.661 32.5972 128.916 33.2152 131.635 34.4512C134.382 35.6872 136.483 37.3901 137.939 39.56C139.395 41.7024 140.123 44.1195 140.123 46.8113H129.246C129.246 45.6302 128.971 44.559 128.422 43.5977C127.9 42.6363 127.09 41.8672 125.991 41.2904C124.892 40.6862 123.505 40.384 121.83 40.384C120.319 40.384 119.042 40.6312 117.998 41.1256C116.982 41.62 116.213 42.2655 115.691 43.0621C115.169 43.8586 114.908 44.7375 114.908 45.6989C114.908 46.413 115.045 47.0585 115.32 47.6353C115.622 48.1846 116.103 48.6928 116.762 49.1597C117.421 49.6267 118.314 50.0524 119.44 50.4369C120.594 50.8215 122.008 51.1923 123.684 51.5493C127.007 52.2085 129.905 53.0875 132.377 54.1862C134.876 55.2574 136.827 56.6857 138.227 58.471C139.628 60.2564 140.329 62.5361 140.329 65.3103C140.329 67.2879 139.903 69.1007 139.051 70.7487C138.2 72.3693 136.964 73.7838 135.343 74.9924C133.723 76.2009 131.786 77.1485 129.534 77.8352C127.282 78.4944 124.741 78.824 121.912 78.824C117.819 78.824 114.359 78.0961 111.529 76.6404C108.7 75.1572 106.558 73.2894 105.102 71.0371C103.646 68.7574 102.919 66.3952 102.919 63.9507H113.342C113.425 65.6811 113.892 67.0682 114.743 68.1119C115.595 69.1556 116.666 69.911 117.957 70.3779C119.275 70.8174 120.662 71.0371 122.118 71.0371C123.766 71.0371 125.153 70.8174 126.279 70.3779C127.405 69.911 128.257 69.293 128.834 68.5239C129.41 67.7274 129.699 66.821 129.699 65.8047ZM181.776 18.0122V78H170.446V18.0122H181.776ZM205.961 43.9273V52.8678H178.81V43.9273H205.961ZM209.133 18.0122V26.9527H178.81V18.0122H209.133ZM239.168 68.5239V47.9649C239.168 46.4542 238.907 45.1495 238.386 44.0509C237.864 42.9522 237.067 42.1007 235.996 41.4964C234.925 40.8922 233.565 40.59 231.917 40.59C230.461 40.59 229.184 40.8372 228.085 41.3316C227.014 41.826 226.19 42.5264 225.613 43.4329C225.037 44.3118 224.748 45.3281 224.748 46.4817H213.83C213.83 44.6414 214.27 42.8973 215.149 41.2492C216.027 39.5738 217.277 38.0905 218.898 36.7996C220.546 35.4812 222.51 34.4512 224.789 33.7096C227.097 32.968 229.679 32.5972 232.535 32.5972C235.914 32.5972 238.921 33.174 241.558 34.3276C244.222 35.4537 246.31 37.1567 247.82 39.4364C249.359 41.7162 250.128 44.5865 250.128 48.0473V67.4939C250.128 69.7187 250.265 71.6277 250.54 73.2208C250.842 74.7864 251.281 76.146 251.858 77.2996V78H240.775C240.253 76.8739 239.855 75.4456 239.58 73.7152C239.306 71.9573 239.168 70.2269 239.168 68.5239ZM240.693 50.8489L240.775 57.3174H233.895C232.192 57.3174 230.695 57.4959 229.404 57.853C228.113 58.1826 227.055 58.677 226.231 59.3362C225.407 59.968 224.789 60.737 224.377 61.6434C223.965 62.5224 223.759 63.5249 223.759 64.6511C223.759 65.7497 224.007 66.7386 224.501 67.6175C225.023 68.4964 225.764 69.1968 226.726 69.7187C227.715 70.2131 228.868 70.4603 230.187 70.4603C232.109 70.4603 233.785 70.0758 235.213 69.3067C236.641 68.5102 237.754 67.5488 238.55 66.4227C239.347 65.2965 239.773 64.2253 239.828 63.2091L242.959 67.9059C242.574 69.032 241.997 70.2269 241.228 71.4903C240.459 72.7538 239.47 73.9349 238.262 75.0336C237.053 76.1322 235.598 77.0387 233.895 77.7528C232.192 78.4669 230.214 78.824 227.962 78.824C225.078 78.824 222.496 78.2472 220.216 77.0936C217.936 75.94 216.137 74.3606 214.819 72.3555C213.501 70.3505 212.841 68.0707 212.841 65.5163C212.841 63.1541 213.281 61.0666 214.16 59.2538C215.039 57.441 216.343 55.9166 218.074 54.6806C219.804 53.4171 221.947 52.4695 224.501 51.8377C227.083 51.1785 230.036 50.8489 233.359 50.8489H240.693ZM259.892 14.7162H270.81V68.1531L269.739 78H259.892V14.7162ZM299.486 55.2574V56.1226C299.486 59.4461 299.115 62.4949 298.373 65.2691C297.659 68.0432 296.574 70.4466 295.119 72.4791C293.663 74.4842 291.85 76.0498 289.68 77.176C287.538 78.2747 285.024 78.824 282.14 78.824C279.394 78.824 277.004 78.2884 274.972 77.2172C272.966 76.146 271.277 74.6353 269.904 72.6851C268.531 70.7075 267.432 68.3866 266.608 65.7223C265.784 63.0305 265.166 60.0916 264.754 56.9054V54.557C265.166 51.3433 265.784 48.4044 266.608 45.7401C267.432 43.0758 268.531 40.7548 269.904 38.7772C271.277 36.7996 272.966 35.2752 274.972 34.204C276.977 33.1328 279.339 32.5972 282.058 32.5972C284.969 32.5972 287.51 33.1602 289.68 34.2864C291.877 35.385 293.69 36.9507 295.119 38.9832C296.574 40.9883 297.659 43.3779 298.373 46.1521C299.115 48.8988 299.486 51.9339 299.486 55.2574ZM288.568 56.1226V55.2574C288.568 53.3622 288.417 51.5768 288.114 49.9013C287.812 48.1984 287.318 46.7014 286.631 45.4105C285.945 44.1195 285.011 43.1033 283.83 42.3616C282.649 41.62 281.165 41.2492 279.38 41.2492C277.677 41.2492 276.221 41.5376 275.013 42.1144C273.832 42.6913 272.843 43.4878 272.046 44.5041C271.277 45.5203 270.673 46.7152 270.233 48.0885C269.821 49.4619 269.547 50.9451 269.409 52.5381V58.9654C269.602 61.0804 270.055 62.9893 270.769 64.6923C271.483 66.3678 272.541 67.6999 273.942 68.6887C275.37 69.6775 277.21 70.1719 279.462 70.1719C281.22 70.1719 282.69 69.8286 283.871 69.1419C285.052 68.4278 285.986 67.439 286.672 66.1755C287.359 64.8845 287.84 63.3876 288.114 61.6846C288.417 59.9817 288.568 58.1277 288.568 56.1226ZM318.232 42.5677V78H307.355V33.4212H317.614L318.232 42.5677ZM316.625 54.1038H313.288C313.288 51 313.659 48.1434 314.4 45.5341C315.169 42.9247 316.296 40.6587 317.779 38.736C319.262 36.7859 321.088 35.2752 323.258 34.204C325.456 33.1328 327.996 32.5972 330.88 32.5972C332.886 32.5972 334.726 32.8993 336.401 33.5036C338.077 34.0804 339.519 35.0005 340.727 36.264C341.963 37.5 342.911 39.1205 343.57 41.1256C344.229 43.1033 344.559 45.4791 344.559 48.2533V78H333.682V49.3657C333.682 47.2782 333.38 45.6439 332.776 44.4629C332.199 43.2818 331.361 42.4578 330.262 41.9908C329.164 41.4964 327.845 41.2492 326.307 41.2492C324.604 41.2492 323.135 41.5926 321.899 42.2792C320.69 42.9385 319.688 43.8586 318.891 45.0397C318.122 46.2208 317.545 47.5804 317.161 49.1185C316.804 50.6567 316.625 52.3184 316.625 54.1038ZM343.735 52.0849L339.244 52.909C339.272 50.1073 339.656 47.4842 340.398 45.0397C341.139 42.5677 342.224 40.4115 343.653 38.5712C345.108 36.7035 346.907 35.2477 349.05 34.204C351.22 33.1328 353.719 32.5972 356.548 32.5972C358.746 32.5972 360.723 32.913 362.481 33.5448C364.267 34.149 365.791 35.1241 367.054 36.47C368.318 37.7884 369.279 39.5051 369.938 41.62C370.625 43.735 370.968 46.3169 370.968 49.3657V78H360.009V49.3245C360.009 47.1546 359.707 45.4929 359.103 44.3393C358.526 43.1857 357.688 42.3891 356.59 41.9496C355.491 41.4827 354.2 41.2492 352.717 41.2492C351.206 41.2492 349.888 41.5376 348.761 42.1144C347.663 42.6638 346.729 43.4329 345.96 44.4217C345.218 45.4105 344.655 46.5641 344.271 47.8825C343.914 49.1734 343.735 50.5743 343.735 52.0849ZM378.797 56.1638V55.2986C378.797 52.03 379.263 49.0224 380.197 46.2757C381.131 43.5015 382.491 41.0982 384.276 39.0656C386.062 37.0331 388.245 35.4537 390.827 34.3276C393.409 33.174 396.348 32.5972 399.644 32.5972C402.995 32.5972 405.961 33.174 408.543 34.3276C411.153 35.4537 413.35 37.0331 415.135 39.0656C416.921 41.0982 418.28 43.5015 419.214 46.2757C420.148 49.0224 420.615 52.03 420.615 55.2986V56.1638C420.615 59.4049 420.148 62.4125 419.214 65.1867C418.28 67.9334 416.921 70.3367 415.135 72.3967C413.35 74.4293 411.166 76.0086 408.584 77.1348C406.003 78.2609 403.05 78.824 399.726 78.824C396.43 78.824 393.478 78.2609 390.868 77.1348C388.259 76.0086 386.062 74.4293 384.276 72.3967C382.491 70.3367 381.131 67.9334 380.197 65.1867C379.263 62.4125 378.797 59.4049 378.797 56.1638ZM389.673 55.2986V56.1638C389.673 58.1139 389.866 59.9405 390.25 61.6434C390.635 63.3464 391.225 64.8433 392.022 66.1343C392.818 67.4252 393.848 68.4415 395.112 69.1831C396.403 69.8973 397.941 70.2543 399.726 70.2543C401.484 70.2543 402.995 69.8973 404.258 69.1831C405.522 68.4415 406.552 67.4252 407.348 66.1343C408.172 64.8433 408.777 63.3464 409.161 61.6434C409.546 59.9405 409.738 58.1139 409.738 56.1638V55.2986C409.738 53.3759 409.546 51.5768 409.161 49.9013C408.777 48.1984 408.172 46.7014 407.348 45.4105C406.552 44.0921 405.508 43.0621 404.217 42.3204C402.954 41.5514 401.429 41.1668 399.644 41.1668C397.886 41.1668 396.375 41.5514 395.112 42.3204C393.848 43.0621 392.818 44.0921 392.022 45.4105C391.225 46.7014 390.635 48.1984 390.25 49.9013C389.866 51.5768 389.673 53.3759 389.673 55.2986ZM428.484 14.7162H439.402V68.1531L438.331 78H428.484V14.7162ZM468.078 55.2574V56.1226C468.078 59.4461 467.707 62.4949 466.965 65.2691C466.251 68.0432 465.166 70.4466 463.711 72.4791C462.255 74.4842 460.442 76.0498 458.272 77.176C456.13 78.2747 453.616 78.824 450.732 78.824C447.986 78.824 445.596 78.2884 443.564 77.2172C441.558 76.146 439.869 74.6353 438.496 72.6851C437.123 70.7075 436.024 68.3866 435.2 65.7223C434.376 63.0305 433.758 60.0916 433.346 56.9054V54.557C433.758 51.3433 434.376 48.4044 435.2 45.7401C436.024 43.0758 437.123 40.7548 438.496 38.7772C439.869 36.7996 441.558 35.2752 443.564 34.204C445.569 33.1328 447.931 32.5972 450.65 32.5972C453.562 32.5972 456.102 33.1602 458.272 34.2864C460.469 35.385 462.282 36.9507 463.711 38.9832C465.166 40.9883 466.251 43.3779 466.965 46.1521C467.707 48.8988 468.078 51.9339 468.078 55.2574ZM457.16 56.1226V55.2574C457.16 53.3622 457.009 51.5768 456.707 49.9013C456.404 48.1984 455.91 46.7014 455.223 45.4105C454.537 44.1195 453.603 43.1033 452.422 42.3616C451.241 41.62 449.757 41.2492 447.972 41.2492C446.269 41.2492 444.813 41.5376 443.605 42.1144C442.424 42.6913 441.435 43.4878 440.638 44.5041C439.869 45.5203 439.265 46.7152 438.826 48.0885C438.414 49.4619 438.139 50.9451 438.002 52.5381V58.9654C438.194 61.0804 438.647 62.9893 439.361 64.6923C440.075 66.3678 441.133 67.6999 442.534 68.6887C443.962 69.6775 445.802 70.1719 448.054 70.1719C449.812 70.1719 451.282 69.8286 452.463 69.1419C453.644 68.4278 454.578 67.439 455.265 66.1755C455.951 64.8845 456.432 63.3876 456.707 61.6846C457.009 59.9817 457.16 58.1277 457.16 56.1226ZM487.524 33.4212V78H476.606V33.4212H487.524ZM475.865 21.7614C475.865 20.1409 476.414 18.795 477.513 17.7238C478.639 16.6526 480.15 16.117 482.045 16.117C483.94 16.117 485.437 16.6526 486.536 17.7238C487.662 18.795 488.225 20.1409 488.225 21.7614C488.225 23.3545 487.662 24.6867 486.536 25.7579C485.437 26.8291 483.94 27.3647 482.045 27.3647C480.15 27.3647 478.639 26.8291 477.513 25.7579C476.414 24.6867 475.865 23.3545 475.865 21.7614ZM509.443 14.7162V78H498.525V14.7162H509.443ZM552.374 33.4212V78H541.456V33.4212H552.374ZM540.714 21.7614C540.714 20.1409 541.263 18.795 542.362 17.7238C543.488 16.6526 544.999 16.117 546.894 16.117C548.789 16.117 550.286 16.6526 551.385 17.7238C552.511 18.795 553.074 20.1409 553.074 21.7614C553.074 23.3545 552.511 24.6867 551.385 25.7579C550.286 26.8291 548.789 27.3647 546.894 27.3647C544.999 27.3647 543.488 26.8291 542.362 25.7579C541.263 24.6867 540.714 23.3545 540.714 21.7614ZM587.271 65.8047C587.271 64.8708 587.023 64.0331 586.529 63.2915C586.035 62.5498 585.101 61.8769 583.727 61.2726C582.381 60.6409 580.404 60.0504 577.795 59.501C575.487 59.0066 573.359 58.3886 571.408 57.647C569.458 56.9054 567.783 56.0127 566.382 54.969C564.981 53.8978 563.883 52.648 563.086 51.2197C562.317 49.764 561.932 48.0885 561.932 46.1933C561.932 44.353 562.331 42.6226 563.127 41.002C563.924 39.354 565.077 37.912 566.588 36.676C568.099 35.4125 569.939 34.4237 572.109 33.7096C574.279 32.968 576.723 32.5972 579.443 32.5972C583.233 32.5972 586.488 33.2152 589.207 34.4512C591.954 35.6872 594.055 37.3901 595.511 39.56C596.966 41.7024 597.694 44.1195 597.694 46.8113H586.817C586.817 45.6302 586.543 44.559 585.993 43.5977C585.472 42.6363 584.661 41.8672 583.563 41.2904C582.464 40.6862 581.077 40.384 579.401 40.384C577.891 40.384 576.613 40.6312 575.57 41.1256C574.553 41.62 573.784 42.2655 573.262 43.0621C572.741 43.8586 572.48 44.7375 572.48 45.6989C572.48 46.413 572.617 47.0585 572.892 47.6353C573.194 48.1846 573.674 48.6928 574.334 49.1597C574.993 49.6267 575.886 50.0524 577.012 50.4369C578.165 50.8215 579.58 51.1923 581.255 51.5493C584.579 52.2085 587.477 53.0875 589.949 54.1862C592.448 55.2574 594.398 56.6857 595.799 58.471C597.2 60.2564 597.9 62.5361 597.9 65.3103C597.9 67.2879 597.475 69.1007 596.623 70.7487C595.772 72.3693 594.536 73.7838 592.915 74.9924C591.295 76.2009 589.358 77.1485 587.106 77.8352C584.854 78.4944 582.313 78.824 579.484 78.824C575.391 78.824 571.93 78.0961 569.101 76.6404C566.272 75.1572 564.13 73.2894 562.674 71.0371C561.218 68.7574 560.49 66.3952 560.49 63.9507H570.914C570.996 65.6811 571.463 67.0682 572.315 68.1119C573.166 69.1556 574.238 69.911 575.528 70.3779C576.847 70.8174 578.234 71.0371 579.69 71.0371C581.338 71.0371 582.725 70.8174 583.851 70.3779C584.977 69.911 585.829 69.293 586.405 68.5239C586.982 67.7274 587.271 66.821 587.271 65.8047ZM627.276 33.4212V41.2492H601.732V33.4212H627.276ZM608.571 22.4619H619.489V65.1455C619.489 66.4639 619.668 67.4802 620.025 68.1943C620.382 68.9084 620.918 69.3891 621.632 69.6363C622.346 69.8835 623.197 70.0071 624.186 70.0071C624.9 70.0071 625.56 69.9659 626.164 69.8835C626.768 69.8011 627.276 69.7187 627.688 69.6363L627.729 77.794C626.823 78.0961 625.793 78.3433 624.639 78.5356C623.513 78.7279 622.236 78.824 620.808 78.824C618.363 78.824 616.221 78.412 614.38 77.588C612.54 76.7365 611.112 75.3769 610.096 73.5092C609.079 71.6139 608.571 69.1144 608.571 66.0107V22.4619ZM675.563 78.824C672.185 78.824 669.15 78.2747 666.458 77.176C663.766 76.0773 661.473 74.5529 659.577 72.6027C657.71 70.6251 656.268 68.3316 655.251 65.7223C654.262 63.0855 653.768 60.2564 653.768 57.235V55.587C653.768 52.1536 654.262 49.0361 655.251 46.2345C656.24 43.4054 657.641 40.9746 659.454 38.942C661.267 36.9095 663.436 35.3438 665.963 34.2452C668.49 33.1465 671.278 32.5972 674.327 32.5972C677.486 32.5972 680.274 33.1328 682.691 34.204C685.108 35.2477 687.127 36.7309 688.747 38.6536C690.368 40.5763 691.59 42.8835 692.414 45.5753C693.238 48.2396 693.65 51.1923 693.65 54.4334V59.0066H658.712V51.5081H682.938V50.6841C682.883 48.9537 682.553 47.3744 681.949 45.9461C681.345 44.4903 680.411 43.3367 679.148 42.4852C677.884 41.6063 676.25 41.1668 674.245 41.1668C672.624 41.1668 671.21 41.5239 670.001 42.238C668.82 42.9247 667.831 43.9135 667.035 45.2045C666.266 46.468 665.689 47.9786 665.304 49.7365C664.92 51.4944 664.727 53.4446 664.727 55.587V57.235C664.727 59.1027 664.975 60.8332 665.469 62.4262C665.991 64.0193 666.746 65.4064 667.735 66.5875C668.751 67.7411 669.96 68.6475 671.361 69.3067C672.789 69.9385 674.409 70.2543 676.222 70.2543C678.502 70.2543 680.562 69.8149 682.402 68.9359C684.27 68.0295 685.891 66.6974 687.264 64.9395L692.744 70.6251C691.81 71.9985 690.546 73.3169 688.953 74.5804C687.388 75.8438 685.492 76.8739 683.268 77.6704C681.043 78.4395 678.475 78.824 675.563 78.824ZM712.479 33.4212V78H701.561V33.4212H712.479ZM700.819 21.7614C700.819 20.1409 701.368 18.795 702.467 17.7238C703.593 16.6526 705.104 16.117 706.999 16.117C708.894 16.117 710.391 16.6526 711.49 17.7238C712.616 18.795 713.179 20.1409 713.179 21.7614C713.179 23.3545 712.616 24.6867 711.49 25.7579C710.391 26.8291 708.894 27.3647 706.999 27.3647C705.104 27.3647 703.593 26.8291 702.467 25.7579C701.368 24.6867 700.819 23.3545 700.819 21.7614ZM733.532 42.9385V78H722.655V33.4212H732.873L733.532 42.9385ZM731.802 54.1038H728.588C728.615 50.8627 729.055 47.9237 729.906 45.2869C730.758 42.6501 731.953 40.384 733.491 38.4888C735.056 36.5936 736.911 35.1378 739.053 34.1216C741.195 33.1053 743.585 32.5972 746.222 32.5972C748.364 32.5972 750.301 32.8993 752.031 33.5036C753.761 34.1078 755.245 35.0692 756.481 36.3876C757.744 37.706 758.706 39.4364 759.365 41.5788C760.051 43.6938 760.395 46.3032 760.395 49.4069V78H749.435V49.3245C749.435 47.292 749.133 45.6851 748.529 44.5041C747.952 43.323 747.101 42.4852 745.975 41.9908C744.876 41.4964 743.516 41.2492 741.896 41.2492C740.22 41.2492 738.751 41.5926 737.487 42.2792C736.251 42.9385 735.208 43.8586 734.356 45.0397C733.532 46.2208 732.9 47.5804 732.461 49.1185C732.021 50.6567 731.802 52.3184 731.802 54.1038ZM805.262 78H794.303V29.3011C794.303 25.9502 794.948 23.1348 796.239 20.855C797.53 18.5478 799.37 16.8037 801.76 15.6226C804.15 14.4415 806.965 13.851 810.206 13.851C811.277 13.851 812.293 13.9196 813.255 14.057C814.244 14.1943 815.219 14.3866 816.18 14.6338L815.974 22.9151C815.452 22.7777 814.875 22.6816 814.244 22.6267C813.639 22.5717 812.966 22.5443 812.225 22.5443C810.742 22.5443 809.478 22.8052 808.434 23.3271C807.391 23.8489 806.594 24.618 806.045 25.6343C805.523 26.6231 805.262 27.8454 805.262 29.3011V78ZM814.285 33.4212V41.2492H787.587V33.4212H814.285ZM845.556 68.5239V47.9649C845.556 46.4542 845.295 45.1495 844.773 44.0509C844.251 42.9522 843.455 42.1007 842.384 41.4964C841.312 40.8922 839.953 40.59 838.305 40.59C836.849 40.59 835.572 40.8372 834.473 41.3316C833.402 41.826 832.578 42.5264 832.001 43.4329C831.424 44.3118 831.136 45.3281 831.136 46.4817H820.218C820.218 44.6414 820.657 42.8973 821.536 41.2492C822.415 39.5738 823.665 38.0905 825.285 36.7996C826.933 35.4812 828.897 34.4512 831.177 33.7096C833.484 32.968 836.066 32.5972 838.923 32.5972C842.301 32.5972 845.309 33.174 847.946 34.3276C850.61 35.4537 852.697 37.1567 854.208 39.4364C855.746 41.7162 856.515 44.5865 856.515 48.0473V67.4939C856.515 69.7187 856.653 71.6277 856.927 73.2208C857.229 74.7864 857.669 76.146 858.246 77.2996V78H847.163C846.641 76.8739 846.243 75.4456 845.968 73.7152C845.693 71.9573 845.556 70.2269 845.556 68.5239ZM847.08 50.8489L847.163 57.3174H840.282C838.579 57.3174 837.082 57.4959 835.791 57.853C834.501 58.1826 833.443 58.677 832.619 59.3362C831.795 59.968 831.177 60.737 830.765 61.6434C830.353 62.5224 830.147 63.5249 830.147 64.6511C830.147 65.7497 830.394 66.7386 830.889 67.6175C831.41 68.4964 832.152 69.1968 833.113 69.7187C834.102 70.2131 835.256 70.4603 836.574 70.4603C838.497 70.4603 840.172 70.0758 841.601 69.3067C843.029 68.5102 844.141 67.5488 844.938 66.4227C845.734 65.2965 846.16 64.2253 846.215 63.2091L849.346 67.9059C848.962 69.032 848.385 70.2269 847.616 71.4903C846.847 72.7538 845.858 73.9349 844.65 75.0336C843.441 76.1322 841.985 77.0387 840.282 77.7528C838.579 78.4669 836.602 78.824 834.349 78.824C831.465 78.824 828.884 78.2472 826.604 77.0936C824.324 75.94 822.525 74.3606 821.207 72.3555C819.888 70.3505 819.229 68.0707 819.229 65.5163C819.229 63.1541 819.668 61.0666 820.547 59.2538C821.426 57.441 822.731 55.9166 824.461 54.6806C826.192 53.4171 828.334 52.4695 830.889 51.8377C833.47 51.1785 836.423 50.8489 839.747 50.8489H847.08ZM876.992 14.7162V78H866.074V14.7162H876.992ZM875.261 54.1038H872.048C872.048 51 872.46 48.1434 873.284 45.5341C874.108 42.9247 875.275 40.6587 876.786 38.736C878.297 36.7859 880.096 35.2752 882.183 34.204C884.298 33.1328 886.633 32.5972 889.187 32.5972C891.385 32.5972 893.376 32.913 895.161 33.5448C896.974 34.149 898.526 35.1241 899.817 36.47C901.108 37.8159 902.097 39.5738 902.783 41.7436C903.497 43.8861 903.855 46.4954 903.855 49.5717V78H892.895V49.4893C892.895 47.4293 892.593 45.8087 891.989 44.6277C891.385 43.4191 890.519 42.5539 889.393 42.032C888.294 41.5102 886.935 41.2492 885.314 41.2492C883.556 41.2492 882.046 41.5926 880.782 42.2792C879.519 42.9385 878.475 43.8586 877.651 45.0397C876.855 46.2208 876.25 47.5804 875.838 49.1185C875.454 50.6567 875.261 52.3184 875.261 54.1038ZM924.331 42.5264V78H913.454V33.4212H923.754L924.331 42.5264ZM937.886 33.1328L937.721 43.2681C937.117 43.1582 936.43 43.0758 935.661 43.0209C934.92 42.9659 934.219 42.9385 933.56 42.9385C931.885 42.9385 930.415 43.1719 929.152 43.6389C927.888 44.0783 926.831 44.7238 925.979 45.5753C925.155 46.4268 924.523 47.4705 924.084 48.7065C923.644 49.9151 923.397 51.2884 923.342 52.8266L920.994 52.5381C920.994 49.7091 921.282 47.086 921.859 44.6689C922.436 42.2518 923.274 40.1368 924.372 38.324C925.471 36.5112 926.844 35.1104 928.492 34.1216C930.168 33.1053 932.091 32.5972 934.26 32.5972C934.865 32.5972 935.51 32.6521 936.197 32.762C936.911 32.8444 937.474 32.968 937.886 33.1328ZM963.059 78.824C959.681 78.824 956.646 78.2747 953.954 77.176C951.262 76.0773 948.969 74.5529 947.074 72.6027C945.206 70.6251 943.764 68.3316 942.748 65.7223C941.759 63.0855 941.264 60.2564 941.264 57.235V55.587C941.264 52.1536 941.759 49.0361 942.748 46.2345C943.736 43.4054 945.137 40.9746 946.95 38.942C948.763 36.9095 950.933 35.3438 953.46 34.2452C955.987 33.1465 958.775 32.5972 961.823 32.5972C964.982 32.5972 967.77 33.1328 970.187 34.204C972.604 35.2477 974.623 36.7309 976.244 38.6536C977.864 40.5763 979.086 42.8835 979.91 45.5753C980.734 48.2396 981.146 51.1923 981.146 54.4334V59.0066H946.209V51.5081H970.434V50.6841C970.379 48.9537 970.05 47.3744 969.446 45.9461C968.841 44.4903 967.907 43.3367 966.644 42.4852C965.38 41.6063 963.746 41.1668 961.741 41.1668C960.121 41.1668 958.706 41.5239 957.497 42.238C956.316 42.9247 955.328 43.9135 954.531 45.2045C953.762 46.468 953.185 47.9786 952.801 49.7365C952.416 51.4944 952.224 53.4446 952.224 55.587V57.235C952.224 59.1027 952.471 60.8332 952.965 62.4262C953.487 64.0193 954.243 65.4064 955.231 66.5875C956.248 67.7411 957.456 68.6475 958.857 69.3067C960.285 69.9385 961.906 70.2543 963.719 70.2543C965.998 70.2543 968.058 69.8149 969.899 68.9359C971.767 68.0295 973.387 66.6974 974.76 64.9395L980.24 70.6251C979.306 71.9985 978.043 73.3169 976.45 74.5804C974.884 75.8438 972.989 76.8739 970.764 77.6704C968.539 78.4395 965.971 78.824 963.059 78.824ZM999.11 42.9385V78H988.233V33.4212H998.451L999.11 42.9385ZM997.379 54.1038H994.166C994.193 50.8627 994.633 47.9237 995.484 45.2869C996.336 42.6501 997.531 40.384 999.069 38.4888C1000.63 36.5936 1002.49 35.1378 1004.63 34.1216C1006.77 33.1053 1009.16 32.5972 1011.8 32.5972C1013.94 32.5972 1015.88 32.8993 1017.61 33.5036C1019.34 34.1078 1020.82 35.0692 1022.06 36.3876C1023.32 37.706 1024.28 39.4364 1024.94 41.5788C1025.63 43.6938 1025.97 46.3032 1025.97 49.4069V78H1015.01V49.3245C1015.01 47.292 1014.71 45.6851 1014.11 44.5041C1013.53 43.323 1012.68 42.4852 1011.55 41.9908C1010.45 41.4964 1009.09 41.2492 1007.47 41.2492C1005.8 41.2492 1004.33 41.5926 1003.07 42.2792C1001.83 42.9385 1000.79 43.8586 999.934 45.0397C999.11 46.2208 998.478 47.5804 998.039 49.1185C997.599 50.6567 997.379 52.3184 997.379 54.1038ZM1062.31 68.5239V14.7162H1073.27V78H1063.38L1062.31 68.5239ZM1033.68 56.2462V55.381C1033.68 51.9751 1034.06 48.885 1034.83 46.1109C1035.63 43.3093 1036.78 40.9059 1038.29 38.9008C1039.8 36.8957 1041.63 35.3438 1043.77 34.2452C1045.94 33.1465 1048.4 32.5972 1051.15 32.5972C1053.81 32.5972 1056.13 33.1328 1058.11 34.204C1060.11 35.2752 1061.82 36.7996 1063.22 38.7772C1064.65 40.7548 1065.79 43.1033 1066.64 45.8225C1067.49 48.5142 1068.11 51.4807 1068.49 54.7218V57.0702C1068.11 60.2289 1067.49 63.1267 1066.64 65.7635C1065.79 68.4003 1064.65 70.7075 1063.22 72.6851C1061.82 74.6353 1060.11 76.146 1058.11 77.2172C1056.1 78.2884 1053.76 78.824 1051.06 78.824C1048.34 78.824 1045.9 78.2609 1043.73 77.1348C1041.59 76.0086 1039.76 74.4293 1038.25 72.3967C1036.77 70.3642 1035.63 67.9746 1034.83 65.2279C1034.06 62.4812 1033.68 59.4873 1033.68 56.2462ZM1044.6 55.381V56.2462C1044.6 58.1689 1044.76 59.968 1045.09 61.6434C1045.42 63.3189 1045.95 64.8021 1046.7 66.0931C1047.44 67.3566 1048.39 68.3454 1049.54 69.0595C1050.72 69.7737 1052.15 70.1307 1053.82 70.1307C1055.97 70.1307 1057.72 69.6638 1059.1 68.7299C1060.5 67.7686 1061.58 66.4639 1062.35 64.8159C1063.12 63.1404 1063.62 61.2589 1063.84 59.1714V52.703C1063.73 51.0549 1063.44 49.5305 1062.97 48.1297C1062.53 46.7289 1061.9 45.5203 1061.08 44.5041C1060.28 43.4878 1059.29 42.6913 1058.11 42.1144C1056.93 41.5376 1055.53 41.2492 1053.91 41.2492C1052.23 41.2492 1050.8 41.62 1049.62 42.3616C1048.44 43.0758 1047.48 44.0783 1046.74 45.3693C1046 46.6602 1045.45 48.1572 1045.09 49.8601C1044.76 51.5631 1044.6 53.4034 1044.6 55.381ZM1103.14 78.824C1099.76 78.824 1096.73 78.2747 1094.04 77.176C1091.34 76.0773 1089.05 74.5529 1087.16 72.6027C1085.29 70.6251 1083.85 68.3316 1082.83 65.7223C1081.84 63.0855 1081.35 60.2564 1081.35 57.235V55.587C1081.35 52.1536 1081.84 49.0361 1082.83 46.2345C1083.82 43.4054 1085.22 40.9746 1087.03 38.942C1088.84 36.9095 1091.01 35.3438 1093.54 34.2452C1096.07 33.1465 1098.86 32.5972 1101.9 32.5972C1105.06 32.5972 1107.85 33.1328 1110.27 34.204C1112.69 35.2477 1114.7 36.7309 1116.32 38.6536C1117.95 40.5763 1119.17 42.8835 1119.99 45.5753C1120.82 48.2396 1121.23 51.1923 1121.23 54.4334V59.0066H1086.29V51.5081H1110.52V50.6841C1110.46 48.9537 1110.13 47.3744 1109.53 45.9461C1108.92 44.4903 1107.99 43.3367 1106.73 42.4852C1105.46 41.6063 1103.83 41.1668 1101.82 41.1668C1100.2 41.1668 1098.79 41.5239 1097.58 42.238C1096.4 42.9247 1095.41 43.9135 1094.61 45.2045C1093.84 46.468 1093.27 47.9786 1092.88 49.7365C1092.5 51.4944 1092.31 53.4446 1092.31 55.587V57.235C1092.31 59.1027 1092.55 60.8332 1093.05 62.4262C1093.57 64.0193 1094.32 65.4064 1095.31 66.5875C1096.33 67.7411 1097.54 68.6475 1098.94 69.3067C1100.37 69.9385 1101.99 70.2543 1103.8 70.2543C1106.08 70.2543 1108.14 69.8149 1109.98 68.9359C1111.85 68.0295 1113.47 66.6974 1114.84 64.9395L1120.32 70.6251C1119.39 71.9985 1118.12 73.3169 1116.53 74.5804C1114.97 75.8438 1113.07 76.8739 1110.85 77.6704C1108.62 78.4395 1106.05 78.824 1103.14 78.824ZM1153.03 65.8047C1153.03 64.8708 1152.79 64.0331 1152.29 63.2915C1151.8 62.5498 1150.86 61.8769 1149.49 61.2726C1148.15 60.6409 1146.17 60.0504 1143.56 59.501C1141.25 59.0066 1139.12 58.3886 1137.17 57.647C1135.22 56.9054 1133.55 56.0127 1132.15 54.969C1130.75 53.8978 1129.65 52.648 1128.85 51.2197C1128.08 49.764 1127.7 48.0885 1127.7 46.1933C1127.7 44.353 1128.09 42.6226 1128.89 41.002C1129.69 39.354 1130.84 37.912 1132.35 36.676C1133.86 35.4125 1135.7 34.4237 1137.87 33.7096C1140.04 32.968 1142.49 32.5972 1145.21 32.5972C1149 32.5972 1152.25 33.2152 1154.97 34.4512C1157.72 35.6872 1159.82 37.3901 1161.27 39.56C1162.73 41.7024 1163.46 44.1195 1163.46 46.8113H1152.58C1152.58 45.6302 1152.31 44.559 1151.76 43.5977C1151.24 42.6363 1150.43 41.8672 1149.33 41.2904C1148.23 40.6862 1146.84 40.384 1145.17 40.384C1143.65 40.384 1142.38 40.6312 1141.33 41.1256C1140.32 41.62 1139.55 42.2655 1139.03 43.0621C1138.5 43.8586 1138.24 44.7375 1138.24 45.6989C1138.24 46.413 1138.38 47.0585 1138.66 47.6353C1138.96 48.1846 1139.44 48.6928 1140.1 49.1597C1140.76 49.6267 1141.65 50.0524 1142.78 50.4369C1143.93 50.8215 1145.34 51.1923 1147.02 51.5493C1150.34 52.2085 1153.24 53.0875 1155.71 54.1862C1158.21 55.2574 1160.16 56.6857 1161.56 58.471C1162.96 60.2564 1163.66 62.5361 1163.66 65.3103C1163.66 67.2879 1163.24 69.1007 1162.39 70.7487C1161.54 72.3693 1160.3 73.7838 1158.68 74.9924C1157.06 76.2009 1155.12 77.1485 1152.87 77.8352C1150.62 78.4944 1148.08 78.824 1145.25 78.824C1141.16 78.824 1137.69 78.0961 1134.87 76.6404C1132.04 75.1572 1129.89 73.2894 1128.44 71.0371C1126.98 68.7574 1126.25 66.3952 1126.25 63.9507H1136.68C1136.76 65.6811 1137.23 67.0682 1138.08 68.1119C1138.93 69.1556 1140 69.911 1141.29 70.3779C1142.61 70.8174 1144 71.0371 1145.45 71.0371C1147.1 71.0371 1148.49 70.8174 1149.61 70.3779C1150.74 69.911 1151.59 69.293 1152.17 68.5239C1152.75 67.7274 1153.03 66.821 1153.03 65.8047ZM22.1072 149.371L26.748 146.164L48.0113 179.494V180H30.7981V179.494L36.1983 176.54L19.7446 151.733L16.0319 155.53V176.203L22.3603 179.494V180H0.759406V179.494L7.00341 176.203V126.842L0.759406 123.551V123.045H22.3603V123.551L16.0319 126.842V153.336L30.2919 138.486C36.8734 131.567 34.7639 126.842 30.3762 123.551V123.045H47.6738V123.551L22.1072 149.371ZM83.3751 174.515L91.9817 169.875L92.3192 170.296C88.1847 174.684 84.0501 180.844 80.5063 180.844C78.3968 180.844 76.4561 179.831 75.6123 171.225C70.5496 177.637 66.0775 180.928 64.1368 180.928C56.7115 181.181 51.3957 176.878 51.3957 166.668V138.57L45.0673 136.208V135.701H59.6648V166.246C59.6648 172.406 63.2931 174.937 67.2588 174.937C70.4652 174.937 73.1653 172.068 75.106 169.115V138.57L68.7777 136.208V135.701H83.3751V174.515ZM130.642 149.117V177.047L136.886 179.494V180H116.045V179.494L122.373 177.047L122.457 149.455C122.457 143.38 118.829 140.848 114.863 140.848C111.488 140.848 108.704 143.97 106.679 147.092V177.047L113.007 179.494V180H92.1656V179.494L98.494 177.047V141.102L89.803 145.742L89.5499 145.32C93.6845 140.848 97.819 134.689 101.363 134.689C103.557 134.689 105.497 135.87 106.257 144.899C111.404 138.233 116.045 134.858 117.985 134.773C125.411 134.604 130.642 138.908 130.642 149.117ZM154.422 151.143L159.654 154.433C165.729 157.808 171.298 161.268 171.298 168.356C171.298 174.6 166.995 181.013 156.11 181.013C149.697 181.013 145.816 178.734 141.006 178.65L138.812 158.737H139.487C143.875 174.009 155.435 178.397 160.92 178.397C164.379 178.397 166.91 176.456 166.91 172.997C166.91 169.115 163.282 166.499 156.279 162.787L151.132 159.749C145.31 156.543 140.922 153.168 140.922 146.924C140.922 139.414 146.997 134.436 155.519 134.436C159.063 134.436 163.282 135.279 166.235 137.558L168.851 134.689H169.357V154.349H168.682C165.054 144.224 158.894 136.967 151.3 136.967C147.419 136.967 145.563 139.161 145.563 142.03C145.563 146.164 149.444 148.527 154.422 151.143ZM198.689 172.237L199.026 172.659C194.554 177.722 189.66 181.013 187.635 181.013C182.573 181.013 179.619 177.637 179.535 170.718L179.451 137.98L173.122 136.208V135.701H179.872L187.298 124.732H187.72L187.635 135.701H198.436V138.739C195.904 138.739 192.107 138.233 187.635 137.558L187.551 169.453C187.551 173.25 189.238 175.19 192.529 175.19C194.217 175.19 195.82 174.684 198.689 172.237ZM201.602 157.387V155.868H228.265V157.387H201.602ZM245.663 175.19V175.612C245.579 177.131 245.41 179.578 239.335 195.188H234.778V194.682L243.047 180.084L242.794 179.916L242.879 179.831C242.204 180.084 241.36 180.253 240.516 180.253C237.394 180.253 235.285 178.228 235.285 175.19C235.285 172.322 237.394 170.212 240.516 170.212C243.638 170.212 245.663 172.322 245.663 175.19ZM288.674 149.371L293.315 146.164L314.578 179.494V180H297.365V179.494L302.765 176.54L286.311 151.733L282.599 155.53V176.203L288.927 179.494V180H267.326V179.494L273.57 176.203V126.842L267.326 123.551V123.045H288.927V123.551L282.599 126.842V153.336L296.858 138.486C303.44 131.567 301.331 126.842 296.943 123.551V123.045H314.24V123.551L288.674 149.371ZM349.942 174.515L358.548 169.875L358.886 170.296C354.751 174.684 350.617 180.844 347.073 180.844C344.963 180.844 343.023 179.831 342.179 171.225C337.116 177.637 332.644 180.928 330.703 180.928C323.278 181.181 317.962 176.878 317.962 166.668V138.57L311.634 136.208V135.701H326.231V166.246C326.231 172.406 329.86 174.937 333.825 174.937C337.032 174.937 339.732 172.068 341.673 169.115V138.57L335.344 136.208V135.701H349.942V174.515ZM372.317 177.047H372.402L378.646 179.494V180H357.804V179.494L363.964 177.131V120.513L356.707 120.007V119.501L371.811 115.535H372.317V177.047ZM404.773 172.237L405.111 172.659C400.639 177.722 395.745 181.013 393.72 181.013C388.657 181.013 385.704 177.637 385.619 170.718L385.535 137.98L379.207 136.208V135.701H385.957L393.382 124.732H393.804L393.72 135.701H404.52V138.739C401.989 138.739 398.192 138.233 393.72 137.558L393.635 169.453C393.635 173.25 395.323 175.19 398.614 175.19C400.301 175.19 401.904 174.684 404.773 172.237ZM442.89 174.515L451.496 169.875L451.834 170.296C447.699 174.684 443.565 180.844 440.021 180.844C437.912 180.844 435.971 179.831 435.127 171.225C430.064 177.637 425.592 180.928 423.652 180.928C416.226 181.181 410.91 176.878 410.91 166.668V138.57L404.582 136.208V135.701H419.18V166.246C419.18 172.406 422.808 174.937 426.774 174.937C429.98 174.937 432.68 172.068 434.621 169.115V138.57L428.292 136.208V135.701H442.89V174.515ZM486.945 138.739L487.198 139.076C485.848 141.102 483.063 146.417 480.11 146.417C477.072 146.417 474.288 141.692 471.335 141.692C469.9 141.692 467.875 144.392 466.441 147.008V177.047L472.769 179.494V180H451.928V179.494L458.256 177.047V141.102L449.565 145.742L449.312 145.32C453.446 140.848 457.581 134.689 461.125 134.689C463.319 134.689 465.259 135.87 466.019 145.067C468.888 140.68 473.697 134.689 474.794 134.689C477.072 134.689 481.376 139.92 484.329 139.92C485.426 139.92 486.101 139.414 486.945 138.739ZM485.637 157.387V155.868H512.301V157.387H485.637ZM568.716 174.515L577.323 169.875L577.66 170.296C573.526 174.684 569.391 180.844 565.847 180.844C563.738 180.844 561.797 179.831 560.953 171.225C555.89 177.637 551.418 180.928 549.478 180.928C542.052 181.181 536.737 176.878 536.737 166.668V138.57L530.408 136.208V135.701H545.006V166.246C545.006 172.406 548.634 174.937 552.6 174.937C555.806 174.937 558.506 172.068 560.447 169.115V138.57L554.118 136.208V135.701H568.716V174.515ZM615.983 149.117V177.047L622.227 179.494V180H601.386V179.494L607.714 177.047L607.798 149.455C607.798 143.38 604.17 140.848 600.204 140.848C596.829 140.848 594.045 143.97 592.02 147.092V177.047L598.348 179.494V180H577.506V179.494L583.835 177.047V141.102L575.144 145.742L574.891 145.32C579.025 140.848 583.16 134.689 586.704 134.689C588.898 134.689 590.838 135.87 591.598 144.899C596.745 138.233 601.386 134.858 603.326 134.773C610.752 134.604 615.983 138.908 615.983 149.117ZM657.424 174.515L666.031 169.79L666.368 170.212C662.234 174.684 658.099 180.844 654.555 180.844C652.53 180.844 650.674 179.916 649.746 172.068C645.02 176.709 640.464 180.759 639.367 180.759C629.495 180.253 622.829 173.081 622.829 160.34C622.829 141.102 637.848 135.279 641.73 135.279C644.936 135.279 647.299 135.701 649.155 136.208V120.513L641.814 120.007V119.501L656.918 115.535H657.424V174.515ZM641.561 174.853C644.767 174.853 647.214 172.828 649.155 170.634V142.367C647.467 139.667 644.767 138.064 641.392 138.064C636.583 138.064 630.592 141.017 630.592 154.855C630.592 166.668 634.726 174.853 641.561 174.853ZM721.982 123.045V123.551L693.04 178.481H705.781C713.291 178.481 713.966 177.553 718.776 165.824C719.535 164.221 720.379 162.365 721.307 160.255H721.813V180H682.493V179.494L711.688 124.563H699.875C692.45 124.563 691.69 125.492 686.965 137.22L684.349 142.789H683.843V123.045H721.982ZM761.451 174.515L770.058 169.875L770.396 170.296C766.261 174.684 762.126 180.844 758.583 180.844C756.473 180.844 754.532 179.831 753.689 171.225C748.626 177.637 744.154 180.928 742.213 180.928C734.788 181.181 729.472 176.878 729.472 166.668V138.57L723.144 136.208V135.701H737.741V166.246C737.741 172.406 741.369 174.937 745.335 174.937C748.542 174.937 751.242 172.068 753.182 169.115V138.57L746.854 136.208V135.701H761.451V174.515ZM787.371 156.543L793.53 153.252L810.322 179.494V180H793.615V179.494L799.606 177.131L786.611 157.302L783.827 159.749V177.047H783.911L790.155 179.494V180H769.314V179.494L775.473 177.131V120.513L768.217 120.007V119.501L783.321 115.535H783.827V157.808L794.037 148.021C799.774 143.042 798.677 138.655 792.771 136.208V135.701H809.731V136.123L787.371 156.543ZM847.478 174.515L856.084 169.875L856.422 170.296C852.287 174.684 848.153 180.844 844.609 180.844C842.5 180.844 840.559 179.831 839.715 171.225C834.652 177.637 830.18 180.928 828.24 180.928C820.814 181.181 815.498 176.878 815.498 166.668V138.57L809.17 136.208V135.701H823.768V166.246C823.768 172.406 827.396 174.937 831.362 174.937C834.568 174.937 837.268 172.068 839.209 169.115V138.57L832.88 136.208V135.701H847.478V174.515ZM894.745 149.117V177.047L900.989 179.494V180H880.148V179.494L886.476 177.047L886.56 149.455C886.56 143.38 882.932 140.848 878.966 140.848C875.591 140.848 872.807 143.97 870.781 147.092V177.047L877.11 179.494V180H856.268V179.494L862.597 177.047V141.102L853.906 145.742L853.653 145.32C857.787 140.848 861.922 134.689 865.466 134.689C867.659 134.689 869.6 135.87 870.36 144.899C875.507 138.233 880.148 134.858 882.088 134.773C889.514 134.604 894.745 138.908 894.745 149.117ZM921.816 114.86C928.904 114.86 933.123 117.982 935.654 121.61L930.676 130.385L930.254 130.132C929.579 123.382 923.419 118.404 918.188 118.404C914.138 118.404 911.944 121.019 911.944 125.154C911.944 129.035 914.728 133.592 916.331 135.701H928.651V138.739C925.782 138.739 921.394 138.148 916.331 137.473V177.047L924.094 179.494V180H901.734V179.494L908.062 177.047V137.895L901.396 136.208V135.701H908.062L907.809 132.073C907.05 117.982 918.694 114.86 921.816 114.86ZM952.162 172.237L952.499 172.659C948.027 177.722 943.133 181.013 941.108 181.013C936.046 181.013 933.092 177.637 933.008 170.718L932.924 137.98L926.595 136.208V135.701H933.345L940.771 124.732H941.193L941.108 135.701H951.909V138.739C949.377 138.739 945.58 138.233 941.108 137.558L941.024 169.453C941.024 173.25 942.711 175.19 946.002 175.19C947.69 175.19 949.293 174.684 952.162 172.237ZM970.685 151.143L975.916 154.433C981.992 157.808 987.561 161.268 987.561 168.356C987.561 174.6 983.257 181.013 972.372 181.013C965.96 181.013 962.078 178.734 957.269 178.65L955.075 158.737H955.75C960.138 174.009 971.697 178.397 977.182 178.397C980.642 178.397 983.173 176.456 983.173 172.997C983.173 169.115 979.545 166.499 972.541 162.787L967.394 159.749C961.572 156.543 957.184 153.168 957.184 146.924C957.184 139.414 963.26 134.436 971.782 134.436C975.326 134.436 979.545 135.279 982.498 137.558L985.114 134.689H985.62V154.349H984.945C981.317 144.224 975.157 136.967 967.563 136.967C963.681 136.967 961.825 139.161 961.825 142.03C961.825 146.164 965.707 148.527 970.685 151.143ZM1004.83 177.047H1004.91L1011.15 179.494V180H990.313V179.494L996.472 177.131V120.513L989.216 120.007V119.501L1004.32 115.535H1004.83V177.047ZM1044.31 174.347L1052.91 169.706L1053.25 170.128C1049.12 174.6 1044.98 180.759 1041.44 180.759C1039.24 180.759 1037.3 179.578 1036.46 170.381C1032.16 177.216 1028.28 181.013 1021.95 181.013C1016.29 181.013 1013.17 177.891 1013.17 173.418C1013.17 166.246 1021.36 160.509 1029.54 155.53L1036.38 151.564C1036.38 144.392 1035.11 138.401 1029.03 138.486C1023.3 138.57 1020.34 143.549 1021.69 151.902L1012.16 155.783L1011.91 155.446C1018.74 138.486 1030.38 134.351 1033.34 134.351C1043.89 134.351 1045.32 141.861 1044.98 149.455L1044.31 170.296V174.347ZM1026.5 175.444C1029.29 175.444 1032.83 173.334 1036.21 168.271L1036.38 153.59C1026.25 159.918 1021.95 164.896 1021.95 170.043C1021.95 173.587 1024.06 175.444 1026.5 175.444ZM1073.82 134.773C1083.78 135.279 1090.7 142.789 1090.7 156.712C1090.7 175.19 1076.44 180.844 1072.56 180.844C1066.4 180.844 1062.18 178.228 1059.98 174.515H1059.9L1056.27 181.856H1055.77V120.513L1048.51 120.007V119.501L1063.61 115.535H1064.12V141.692C1068.51 137.642 1072.64 134.689 1073.82 134.773ZM1073.91 178.059C1077.7 178.059 1082.85 175.612 1082.85 161.352C1082.85 149.539 1078.29 140.511 1070.87 140.511C1067.92 140.511 1065.64 141.945 1064.03 143.295V165.065C1064.2 173.334 1068.08 178.059 1073.91 178.059ZM1112.89 181.013C1102.51 181.013 1094.32 173.165 1094.32 159.496C1094.32 140.005 1108.58 134.773 1112.21 134.773C1122.68 134.773 1130.86 142.536 1130.86 156.29C1130.86 175.697 1116.52 181.013 1112.89 181.013ZM1116.85 177.047C1120.4 176.625 1124.7 172.743 1123.1 159.496C1121.41 146.249 1115.76 138.233 1108.33 138.655C1104.7 139.076 1100.4 142.958 1102 156.29C1103.69 169.453 1109.43 177.469 1116.85 177.047ZM1169.39 138.739L1169.64 139.076C1168.29 141.102 1165.51 146.417 1162.55 146.417C1159.52 146.417 1156.73 141.692 1153.78 141.692C1152.34 141.692 1150.32 144.392 1148.88 147.008V177.047L1155.21 179.494V180H1134.37V179.494L1140.7 177.047V141.102L1132.01 145.742L1131.76 145.32C1135.89 140.848 1140.02 134.689 1143.57 134.689C1145.76 134.689 1147.7 135.87 1148.46 145.067C1151.33 140.68 1156.14 134.689 1157.24 134.689C1159.52 134.689 1163.82 139.92 1166.77 139.92C1167.87 139.92 1168.54 139.414 1169.39 138.739ZM19.1582 279H8.19888V230.301C8.19888 226.95 8.84435 224.135 10.1353 221.855C11.4262 219.548 13.2665 217.804 15.6562 216.623C18.0458 215.442 20.8611 214.851 24.1022 214.851C25.1734 214.851 26.1897 214.92 27.1511 215.057C28.1399 215.194 29.115 215.387 30.0763 215.634L29.8703 223.915C29.3484 223.778 28.7716 223.682 28.1399 223.627C27.5356 223.572 26.8627 223.544 26.1211 223.544C24.6378 223.544 23.3744 223.805 22.3306 224.327C21.2869 224.849 20.4903 225.618 19.941 226.634C19.4191 227.623 19.1582 228.845 19.1582 230.301V279ZM28.1811 234.421V242.249H1.48321V234.421H28.1811ZM61.4298 268.411V234.421H72.3891V279H62.089L61.4298 268.411ZM62.8306 259.183L66.2091 259.1C66.2091 262.094 65.8795 264.855 65.2202 267.381C64.561 269.908 63.531 272.106 62.1302 273.974C60.7569 275.814 59.0127 277.256 56.8978 278.3C54.7828 279.316 52.2833 279.824 49.3993 279.824C47.2019 279.824 45.1968 279.522 43.384 278.918C41.5712 278.286 40.0056 277.311 38.6872 275.992C37.3962 274.646 36.3937 272.93 35.6796 270.842C34.9654 268.727 34.6083 266.187 34.6083 263.22V234.421H45.4852V263.303C45.4852 264.786 45.6501 266.022 45.9797 267.011C46.3367 267.999 46.8174 268.81 47.4217 269.442C48.0534 270.046 48.7813 270.485 49.6053 270.76C50.4568 271.007 51.3632 271.131 52.3245 271.131C54.9613 271.131 57.0351 270.609 58.5458 269.565C60.0839 268.494 61.1826 267.066 61.8418 265.28C62.501 263.467 62.8306 261.435 62.8306 259.183ZM38.3164 222.638C38.3164 221.237 38.8245 220.07 39.8408 219.136C40.8571 218.174 42.148 217.694 43.7136 217.694C45.3067 217.694 46.5977 218.174 47.5865 219.136C48.6027 220.07 49.1109 221.237 49.1109 222.638C49.1109 224.011 48.6027 225.179 47.5865 226.14C46.5977 227.074 45.3067 227.541 43.7136 227.541C42.148 227.541 40.8571 227.074 39.8408 226.14C38.8245 225.179 38.3164 224.011 38.3164 222.638ZM57.969 222.679C57.969 221.278 58.4634 220.111 59.4522 219.177C60.4685 218.216 61.7731 217.735 63.3662 217.735C64.9318 217.735 66.2228 218.216 67.2391 219.177C68.2553 220.111 68.7635 221.278 68.7635 222.679C68.7635 224.052 68.2553 225.22 67.2391 226.181C66.2228 227.115 64.9318 227.582 63.3662 227.582C61.7731 227.582 60.4685 227.115 59.4522 226.181C58.4634 225.22 57.969 224.052 57.969 222.679ZM92.9069 243.526V279H82.03V234.421H92.3301L92.9069 243.526ZM106.462 234.133L106.297 244.268C105.693 244.158 105.006 244.076 104.237 244.021C103.495 243.966 102.795 243.938 102.136 243.938C100.46 243.938 98.9908 244.172 97.7274 244.639C96.4639 245.078 95.4064 245.724 94.5549 246.575C93.7309 247.427 93.0992 248.47 92.6597 249.707C92.2202 250.915 91.973 252.288 91.9181 253.827L89.5697 253.538C89.5697 250.709 89.8581 248.086 90.4349 245.669C91.0117 243.252 91.8494 241.137 92.9481 239.324C94.0468 237.511 95.4201 236.11 97.0682 235.122C98.7436 234.105 100.666 233.597 102.836 233.597C103.44 233.597 104.086 233.652 104.773 233.762C105.487 233.844 106.05 233.968 106.462 234.133ZM165.667 263.426C165.667 262.273 165.488 261.243 165.131 260.336C164.802 259.402 164.184 258.565 163.277 257.823C162.398 257.054 161.149 256.312 159.528 255.598C157.935 254.857 155.875 254.087 153.348 253.291C150.546 252.412 147.937 251.423 145.52 250.325C143.103 249.226 140.974 247.949 139.134 246.493C137.321 245.037 135.906 243.362 134.89 241.466C133.874 239.544 133.366 237.319 133.366 234.792C133.366 232.32 133.888 230.068 134.931 228.035C136.003 226.003 137.513 224.258 139.463 222.803C141.414 221.319 143.707 220.18 146.344 219.383C149.008 218.586 151.947 218.188 155.161 218.188C159.61 218.188 163.456 218.998 166.697 220.619C169.965 222.24 172.492 224.437 174.278 227.211C176.063 229.985 176.956 233.103 176.956 236.564H165.667C165.667 234.696 165.269 233.048 164.472 231.62C163.703 230.191 162.522 229.065 160.929 228.241C159.363 227.417 157.386 227.005 154.996 227.005C152.689 227.005 150.766 227.348 149.228 228.035C147.717 228.722 146.577 229.656 145.808 230.837C145.067 232.018 144.696 233.336 144.696 234.792C144.696 235.891 144.957 236.879 145.479 237.758C146.001 238.61 146.783 239.42 147.827 240.189C148.871 240.931 150.162 241.631 151.7 242.29C153.266 242.922 155.078 243.554 157.138 244.186C160.434 245.174 163.318 246.273 165.79 247.482C168.29 248.69 170.364 250.064 172.012 251.602C173.687 253.14 174.937 254.87 175.761 256.793C176.612 258.716 177.038 260.899 177.038 263.344C177.038 265.926 176.53 268.233 175.514 270.266C174.497 272.298 173.042 274.028 171.146 275.457C169.251 276.885 166.972 277.97 164.307 278.712C161.67 279.453 158.718 279.824 155.449 279.824C152.538 279.824 149.654 279.439 146.797 278.67C143.968 277.874 141.4 276.693 139.093 275.127C136.785 273.534 134.945 271.529 133.572 269.112C132.198 266.667 131.512 263.811 131.512 260.542H142.883C142.883 262.437 143.185 264.058 143.789 265.404C144.421 266.722 145.3 267.807 146.426 268.659C147.58 269.483 148.926 270.087 150.464 270.472C152.002 270.856 153.664 271.048 155.449 271.048C157.756 271.048 159.652 270.732 161.135 270.101C162.645 269.442 163.772 268.535 164.513 267.381C165.282 266.228 165.667 264.909 165.667 263.426ZM209.504 269.524V248.965C209.504 247.454 209.243 246.15 208.721 245.051C208.199 243.952 207.403 243.101 206.332 242.496C205.26 241.892 203.901 241.59 202.253 241.59C200.797 241.59 199.52 241.837 198.421 242.332C197.35 242.826 196.526 243.526 195.949 244.433C195.372 245.312 195.084 246.328 195.084 247.482H184.166C184.166 245.641 184.605 243.897 185.484 242.249C186.363 240.574 187.613 239.091 189.233 237.8C190.881 236.481 192.845 235.451 195.125 234.71C197.432 233.968 200.014 233.597 202.871 233.597C206.249 233.597 209.257 234.174 211.894 235.328C214.558 236.454 216.645 238.157 218.156 240.436C219.694 242.716 220.463 245.586 220.463 249.047V268.494C220.463 270.719 220.601 272.628 220.875 274.221C221.178 275.786 221.617 277.146 222.194 278.3V279H211.111C210.589 277.874 210.191 276.446 209.916 274.715C209.641 272.957 209.504 271.227 209.504 269.524ZM211.028 251.849L211.111 258.317H204.23C202.527 258.317 201.031 258.496 199.74 258.853C198.449 259.183 197.391 259.677 196.567 260.336C195.743 260.968 195.125 261.737 194.713 262.643C194.301 263.522 194.095 264.525 194.095 265.651C194.095 266.75 194.342 267.739 194.837 268.617C195.359 269.496 196.1 270.197 197.062 270.719C198.05 271.213 199.204 271.46 200.522 271.46C202.445 271.46 204.121 271.076 205.549 270.307C206.977 269.51 208.09 268.549 208.886 267.423C209.683 266.297 210.108 265.225 210.163 264.209L213.295 268.906C212.91 270.032 212.333 271.227 211.564 272.49C210.795 273.754 209.806 274.935 208.598 276.034C207.389 277.132 205.933 278.039 204.23 278.753C202.527 279.467 200.55 279.824 198.298 279.824C195.414 279.824 192.832 279.247 190.552 278.094C188.272 276.94 186.473 275.361 185.155 273.356C183.836 271.35 183.177 269.071 183.177 266.516C183.177 264.154 183.616 262.067 184.495 260.254C185.374 258.441 186.679 256.917 188.409 255.681C190.14 254.417 192.282 253.469 194.837 252.838C197.419 252.179 200.371 251.849 203.695 251.849H211.028ZM248.562 271.254C250.1 271.254 251.474 270.952 252.682 270.348C253.891 269.744 254.852 268.892 255.566 267.793C256.308 266.695 256.706 265.418 256.761 263.962H267.02C266.965 266.983 266.113 269.689 264.465 272.078C262.817 274.468 260.62 276.363 257.873 277.764C255.154 279.137 252.105 279.824 248.727 279.824C245.293 279.824 242.3 279.247 239.745 278.094C237.191 276.94 235.062 275.333 233.359 273.273C231.684 271.213 230.42 268.823 229.569 266.104C228.745 263.385 228.333 260.474 228.333 257.37V256.051C228.333 252.948 228.745 250.036 229.569 247.317C230.42 244.598 231.684 242.208 233.359 240.148C235.062 238.088 237.191 236.481 239.745 235.328C242.3 234.174 245.28 233.597 248.686 233.597C252.284 233.597 255.443 234.298 258.162 235.698C260.908 237.099 263.051 239.077 264.589 241.631C266.155 244.186 266.965 247.193 267.02 250.654H256.761C256.706 249.061 256.349 247.633 255.69 246.369C255.031 245.106 254.097 244.09 252.888 243.32C251.68 242.551 250.21 242.167 248.48 242.167C246.639 242.167 245.101 242.551 243.865 243.32C242.657 244.09 241.709 245.147 241.022 246.493C240.363 247.811 239.896 249.295 239.622 250.943C239.374 252.563 239.251 254.266 239.251 256.051V257.37C239.251 259.183 239.374 260.913 239.622 262.561C239.896 264.209 240.363 265.692 241.022 267.011C241.709 268.302 242.657 269.332 243.865 270.101C245.101 270.87 246.667 271.254 248.562 271.254ZM284.942 215.716V279H274.024V215.716H284.942ZM283.212 255.104H279.998C279.998 252 280.41 249.143 281.234 246.534C282.058 243.925 283.225 241.659 284.736 239.736C286.247 237.786 288.046 236.275 290.133 235.204C292.248 234.133 294.583 233.597 297.137 233.597C299.335 233.597 301.326 233.913 303.111 234.545C304.924 235.149 306.476 236.124 307.767 237.47C309.058 238.816 310.047 240.574 310.733 242.744C311.448 244.886 311.805 247.495 311.805 250.572V279H300.845V250.489C300.845 248.429 300.543 246.809 299.939 245.628C299.335 244.419 298.469 243.554 297.343 243.032C296.245 242.51 294.885 242.249 293.264 242.249C291.507 242.249 289.996 242.593 288.732 243.279C287.469 243.938 286.425 244.859 285.601 246.04C284.805 247.221 284.2 248.58 283.788 250.119C283.404 251.657 283.212 253.318 283.212 255.104ZM345.919 266.805C345.919 265.871 345.671 265.033 345.177 264.291C344.683 263.55 343.749 262.877 342.375 262.273C341.03 261.641 339.052 261.05 336.443 260.501C334.135 260.007 332.007 259.389 330.056 258.647C328.106 257.905 326.431 257.013 325.03 255.969C323.629 254.898 322.531 253.648 321.734 252.22C320.965 250.764 320.58 249.089 320.58 247.193C320.58 245.353 320.979 243.623 321.775 242.002C322.572 240.354 323.725 238.912 325.236 237.676C326.747 236.413 328.587 235.424 330.757 234.71C332.927 233.968 335.371 233.597 338.091 233.597C341.881 233.597 345.136 234.215 347.855 235.451C350.602 236.687 352.703 238.39 354.159 240.56C355.614 242.702 356.342 245.12 356.342 247.811H345.465C345.465 246.63 345.191 245.559 344.641 244.598C344.12 243.636 343.309 242.867 342.211 242.29C341.112 241.686 339.725 241.384 338.049 241.384C336.539 241.384 335.261 241.631 334.218 242.126C333.201 242.62 332.432 243.266 331.91 244.062C331.389 244.859 331.128 245.738 331.128 246.699C331.128 247.413 331.265 248.058 331.54 248.635C331.842 249.185 332.322 249.693 332.982 250.16C333.641 250.627 334.534 251.052 335.66 251.437C336.813 251.821 338.228 252.192 339.903 252.549C343.227 253.209 346.125 254.087 348.597 255.186C351.096 256.257 353.046 257.686 354.447 259.471C355.848 261.256 356.548 263.536 356.548 266.31C356.548 268.288 356.123 270.101 355.271 271.749C354.42 273.369 353.184 274.784 351.563 275.992C349.943 277.201 348.006 278.149 345.754 278.835C343.502 279.494 340.961 279.824 338.132 279.824C334.039 279.824 330.578 279.096 327.749 277.64C324.92 276.157 322.778 274.289 321.322 272.037C319.866 269.757 319.138 267.395 319.138 264.951H329.562C329.644 266.681 330.111 268.068 330.963 269.112C331.814 270.156 332.886 270.911 334.177 271.378C335.495 271.817 336.882 272.037 338.338 272.037C339.986 272.037 341.373 271.817 342.499 271.378C343.625 270.911 344.477 270.293 345.053 269.524C345.63 268.727 345.919 267.821 345.919 266.805ZM384.853 279.824C381.475 279.824 378.439 279.275 375.748 278.176C373.056 277.077 370.762 275.553 368.867 273.603C366.999 271.625 365.557 269.332 364.541 266.722C363.552 264.085 363.058 261.256 363.058 258.235V256.587C363.058 253.154 363.552 250.036 364.541 247.234C365.53 244.405 366.931 241.975 368.744 239.942C370.556 237.909 372.726 236.344 375.253 235.245C377.78 234.146 380.568 233.597 383.617 233.597C386.776 233.597 389.564 234.133 391.981 235.204C394.398 236.248 396.417 237.731 398.037 239.654C399.658 241.576 400.88 243.884 401.704 246.575C402.528 249.24 402.94 252.192 402.94 255.433V260.007H368.002V252.508H392.228V251.684C392.173 249.954 391.843 248.374 391.239 246.946C390.635 245.49 389.701 244.337 388.437 243.485C387.174 242.606 385.54 242.167 383.535 242.167C381.914 242.167 380.499 242.524 379.291 243.238C378.11 243.925 377.121 244.914 376.325 246.204C375.555 247.468 374.979 248.979 374.594 250.737C374.21 252.494 374.017 254.445 374.017 256.587V258.235C374.017 260.103 374.264 261.833 374.759 263.426C375.281 265.019 376.036 266.406 377.025 267.587C378.041 268.741 379.25 269.648 380.651 270.307C382.079 270.938 383.699 271.254 385.512 271.254C387.792 271.254 389.852 270.815 391.692 269.936C393.56 269.03 395.181 267.697 396.554 265.939L402.034 271.625C401.1 272.998 399.836 274.317 398.243 275.58C396.678 276.844 394.782 277.874 392.557 278.67C390.333 279.439 387.764 279.824 384.853 279.824ZM420.903 243.938V279H410.026V234.421H420.244L420.903 243.938ZM419.173 255.104H415.959C415.987 251.863 416.426 248.924 417.278 246.287C418.129 243.65 419.324 241.384 420.862 239.489C422.428 237.594 424.282 236.138 426.424 235.122C428.567 234.105 430.956 233.597 433.593 233.597C435.735 233.597 437.672 233.899 439.402 234.504C441.133 235.108 442.616 236.069 443.852 237.388C445.115 238.706 446.077 240.436 446.736 242.579C447.423 244.694 447.766 247.303 447.766 250.407V279H436.807V250.325C436.807 248.292 436.505 246.685 435.9 245.504C435.323 244.323 434.472 243.485 433.346 242.991C432.247 242.496 430.888 242.249 429.267 242.249C427.592 242.249 426.122 242.593 424.859 243.279C423.623 243.938 422.579 244.859 421.727 246.04C420.903 247.221 420.272 248.58 419.832 250.119C419.393 251.657 419.173 253.318 419.173 255.104ZM457.819 273.685C457.819 272.037 458.382 270.65 459.508 269.524C460.634 268.398 462.159 267.835 464.081 267.835C466.004 267.835 467.528 268.398 468.655 269.524C469.781 270.65 470.344 272.037 470.344 273.685C470.344 275.306 469.781 276.679 468.655 277.805C467.528 278.904 466.004 279.453 464.081 279.453C462.159 279.453 460.634 278.904 459.508 277.805C458.382 276.679 457.819 275.306 457.819 273.685Z" fill="#1A1A1A"/>
<path d="M390.421 202.359C348.007 202.359 305.594 202.359 263.18 202.359C222.44 202.359 173.627 195.982 134.984 209.78C117.952 215.862 114 237.577 114 251.338C114 264.387 118.401 271.062 130.787 278.962C154.892 294.334 181.781 310.194 211.196 316.48C242.028 323.068 275.955 325.289 307.628 325.55C337.738 325.798 368.904 327.39 398.624 322.581C418.696 319.334 441.447 315.091 459.765 306.997C470.395 302.3 479.233 298.801 482.275 288.279C485.171 278.267 486.401 268.14 487.903 257.935C489.395 247.804 473.305 240.005 465.583 235.012C443.054 220.444 416.154 205.464 389.658 196.752C365.439 188.788 340.325 189.001 314.877 189.001" stroke="#F2F2F2" stroke-width="5.27365" stroke-linecap="round"/>
</svg>
