<svg width="1487" height="736" viewBox="0 0 1487 736" fill="none" xmlns="http://www.w3.org/2000/svg">
<g filter="url(#filter0_dddddd_948_713)">
<path d="M137.649 78H124.712L124.795 69.1007H137.649C141.137 69.1007 144.063 68.3316 146.425 66.7935C148.787 65.2279 150.572 62.9893 151.781 60.0778C152.989 57.1389 153.594 53.6231 153.594 49.5305V46.4405C153.594 43.2818 153.25 40.4939 152.564 38.0768C151.877 35.6597 150.861 33.6272 149.515 31.9791C148.196 30.3311 146.562 29.0814 144.612 28.2299C142.662 27.3784 140.423 26.9527 137.896 26.9527H124.465V18.0122H137.896C141.906 18.0122 145.56 18.6851 148.856 20.031C152.179 21.3769 155.049 23.3133 157.466 25.8403C159.911 28.3398 161.779 31.3337 163.07 34.822C164.388 38.3103 165.047 42.2106 165.047 46.5229V49.5305C165.047 53.8154 164.388 57.7157 163.07 61.2314C161.779 64.7197 159.911 67.7136 157.466 70.2131C155.049 72.7126 152.165 74.6353 148.814 75.9812C145.463 77.3271 141.742 78 137.649 78ZM131.057 18.0122V78H119.727V18.0122H131.057ZM198.42 68.5239V47.9649C198.42 46.4542 198.159 45.1495 197.637 44.0509C197.115 42.9522 196.318 42.1007 195.247 41.4964C194.176 40.8922 192.816 40.59 191.168 40.59C189.713 40.59 188.435 40.8372 187.337 41.3316C186.266 41.826 185.442 42.5264 184.865 43.4329C184.288 44.3118 183.999 45.3281 183.999 46.4817H173.081C173.081 44.6414 173.521 42.8973 174.4 41.2492C175.279 39.5738 176.528 38.0905 178.149 36.7996C179.797 35.4812 181.761 34.4512 184.041 33.7096C186.348 32.968 188.93 32.5972 191.786 32.5972C195.165 32.5972 198.172 33.174 200.809 34.3276C203.474 35.4537 205.561 37.1567 207.072 39.4364C208.61 41.7162 209.379 44.5865 209.379 48.0473V67.4939C209.379 69.7187 209.516 71.6277 209.791 73.2208C210.093 74.7864 210.533 76.146 211.109 77.2996V78H200.026C199.505 76.8739 199.106 75.4456 198.832 73.7152C198.557 71.9573 198.42 70.2269 198.42 68.5239ZM199.944 50.8489L200.026 57.3174H193.146C191.443 57.3174 189.946 57.4959 188.655 57.853C187.364 58.1826 186.307 58.677 185.483 59.3362C184.659 59.968 184.041 60.737 183.629 61.6434C183.217 62.5224 183.011 63.5249 183.011 64.6511C183.011 65.7497 183.258 66.7386 183.752 67.6175C184.274 68.4964 185.016 69.1968 185.977 69.7187C186.966 70.2131 188.12 70.4603 189.438 70.4603C191.361 70.4603 193.036 70.0758 194.464 69.3067C195.893 68.5102 197.005 67.5488 197.802 66.4227C198.598 65.2965 199.024 64.2253 199.079 63.2091L202.21 67.9059C201.826 69.032 201.249 70.2269 200.48 71.4903C199.711 72.7538 198.722 73.9349 197.513 75.0336C196.305 76.1322 194.849 77.0387 193.146 77.7528C191.443 78.4669 189.465 78.824 187.213 78.824C184.329 78.824 181.747 78.2472 179.467 77.0936C177.188 75.94 175.389 74.3606 174.07 72.3555C172.752 70.3505 172.093 68.0707 172.093 65.5163C172.093 63.1541 172.532 61.0666 173.411 59.2538C174.29 57.441 175.595 55.9166 177.325 54.6806C179.055 53.4171 181.198 52.4695 183.752 51.8377C186.334 51.1785 189.287 50.8489 192.61 50.8489H199.944ZM243.699 65.8047C243.699 64.8708 243.452 64.0331 242.957 63.2915C242.463 62.5498 241.529 61.8769 240.156 61.2726C238.81 60.6409 236.832 60.0504 234.223 59.501C231.916 59.0066 229.787 58.3886 227.837 57.647C225.887 56.9054 224.211 56.0127 222.81 54.969C221.409 53.8978 220.311 52.648 219.514 51.2197C218.745 49.764 218.361 48.0885 218.361 46.1933C218.361 44.353 218.759 42.6226 219.555 41.002C220.352 39.354 221.506 37.912 223.016 36.676C224.527 35.4125 226.367 34.4237 228.537 33.7096C230.707 32.968 233.152 32.5972 235.871 32.5972C239.661 32.5972 242.916 33.2152 245.635 34.4512C248.382 35.6872 250.483 37.3901 251.939 39.56C253.395 41.7024 254.123 44.1195 254.123 46.8113H243.246C243.246 45.6302 242.971 44.559 242.422 43.5977C241.9 42.6363 241.09 41.8672 239.991 41.2904C238.892 40.6862 237.505 40.384 235.83 40.384C234.319 40.384 233.042 40.6312 231.998 41.1256C230.982 41.62 230.213 42.2655 229.691 43.0621C229.169 43.8586 228.908 44.7375 228.908 45.6989C228.908 46.413 229.045 47.0585 229.32 47.6353C229.622 48.1846 230.103 48.6928 230.762 49.1597C231.421 49.6267 232.314 50.0524 233.44 50.4369C234.594 50.8215 236.008 51.1923 237.684 51.5493C241.007 52.2085 243.905 53.0875 246.377 54.1862C248.876 55.2574 250.827 56.6857 252.227 58.471C253.628 60.2564 254.329 62.5361 254.329 65.3103C254.329 67.2879 253.903 69.1007 253.051 70.7487C252.2 72.3693 250.964 73.7838 249.343 74.9924C247.723 76.2009 245.786 77.1485 243.534 77.8352C241.282 78.4944 238.741 78.824 235.912 78.824C231.819 78.824 228.359 78.0961 225.529 76.6404C222.7 75.1572 220.558 73.2894 219.102 71.0371C217.646 68.7574 216.919 66.3952 216.919 63.9507H227.342C227.425 65.6811 227.892 67.0682 228.743 68.1119C229.595 69.1556 230.666 69.911 231.957 70.3779C233.275 70.8174 234.662 71.0371 236.118 71.0371C237.766 71.0371 239.153 70.8174 240.279 70.3779C241.405 69.911 242.257 69.293 242.834 68.5239C243.41 67.7274 243.699 66.821 243.699 65.8047ZM295.776 18.0122V78H284.446V18.0122H295.776ZM319.961 43.9273V52.8678H292.81V43.9273H319.961ZM323.133 18.0122V26.9527H292.81V18.0122H323.133ZM353.168 68.5239V47.9649C353.168 46.4542 352.907 45.1495 352.386 44.0509C351.864 42.9522 351.067 42.1007 349.996 41.4964C348.925 40.8922 347.565 40.59 345.917 40.59C344.461 40.59 343.184 40.8372 342.085 41.3316C341.014 41.826 340.19 42.5264 339.613 43.4329C339.037 44.3118 338.748 45.3281 338.748 46.4817H327.83C327.83 44.6414 328.27 42.8973 329.149 41.2492C330.027 39.5738 331.277 38.0905 332.898 36.7996C334.546 35.4812 336.51 34.4512 338.789 33.7096C341.097 32.968 343.679 32.5972 346.535 32.5972C349.914 32.5972 352.921 33.174 355.558 34.3276C358.222 35.4537 360.31 37.1567 361.82 39.4364C363.359 41.7162 364.128 44.5865 364.128 48.0473V67.4939C364.128 69.7187 364.265 71.6277 364.54 73.2208C364.842 74.7864 365.281 76.146 365.858 77.2996V78H354.775C354.253 76.8739 353.855 75.4456 353.58 73.7152C353.306 71.9573 353.168 70.2269 353.168 68.5239ZM354.693 50.8489L354.775 57.3174H347.895C346.192 57.3174 344.695 57.4959 343.404 57.853C342.113 58.1826 341.055 58.677 340.231 59.3362C339.407 59.968 338.789 60.737 338.377 61.6434C337.965 62.5224 337.759 63.5249 337.759 64.6511C337.759 65.7497 338.007 66.7386 338.501 67.6175C339.023 68.4964 339.764 69.1968 340.726 69.7187C341.715 70.2131 342.868 70.4603 344.187 70.4603C346.109 70.4603 347.785 70.0758 349.213 69.3067C350.641 68.5102 351.754 67.5488 352.55 66.4227C353.347 65.2965 353.773 64.2253 353.828 63.2091L356.959 67.9059C356.574 69.032 355.997 70.2269 355.228 71.4903C354.459 72.7538 353.47 73.9349 352.262 75.0336C351.053 76.1322 349.598 77.0387 347.895 77.7528C346.192 78.4669 344.214 78.824 341.962 78.824C339.078 78.824 336.496 78.2472 334.216 77.0936C331.936 75.94 330.137 74.3606 328.819 72.3555C327.501 70.3505 326.841 68.0707 326.841 65.5163C326.841 63.1541 327.281 61.0666 328.16 59.2538C329.039 57.441 330.343 55.9166 332.074 54.6806C333.804 53.4171 335.947 52.4695 338.501 51.8377C341.083 51.1785 344.036 50.8489 347.359 50.8489H354.693ZM373.892 14.7162H384.81V68.1531L383.739 78H373.892V14.7162ZM413.486 55.2574V56.1226C413.486 59.4461 413.115 62.4949 412.373 65.2691C411.659 68.0432 410.574 70.4466 409.119 72.4791C407.663 74.4842 405.85 76.0498 403.68 77.176C401.538 78.2747 399.024 78.824 396.14 78.824C393.394 78.824 391.004 78.2884 388.972 77.2172C386.966 76.146 385.277 74.6353 383.904 72.6851C382.531 70.7075 381.432 68.3866 380.608 65.7223C379.784 63.0305 379.166 60.0916 378.754 56.9054V54.557C379.166 51.3433 379.784 48.4044 380.608 45.7401C381.432 43.0758 382.531 40.7548 383.904 38.7772C385.277 36.7996 386.966 35.2752 388.972 34.204C390.977 33.1328 393.339 32.5972 396.058 32.5972C398.969 32.5972 401.51 33.1602 403.68 34.2864C405.877 35.385 407.69 36.9507 409.119 38.9832C410.574 40.9883 411.659 43.3779 412.373 46.1521C413.115 48.8988 413.486 51.9339 413.486 55.2574ZM402.568 56.1226V55.2574C402.568 53.3622 402.417 51.5768 402.114 49.9013C401.812 48.1984 401.318 46.7014 400.631 45.4105C399.945 44.1195 399.011 43.1033 397.83 42.3616C396.649 41.62 395.165 41.2492 393.38 41.2492C391.677 41.2492 390.221 41.5376 389.013 42.1144C387.832 42.6913 386.843 43.4878 386.046 44.5041C385.277 45.5203 384.673 46.7152 384.233 48.0885C383.821 49.4619 383.547 50.9451 383.409 52.5381V58.9654C383.602 61.0804 384.055 62.9893 384.769 64.6923C385.483 66.3678 386.541 67.6999 387.942 68.6887C389.37 69.6775 391.21 70.1719 393.462 70.1719C395.22 70.1719 396.69 69.8286 397.871 69.1419C399.052 68.4278 399.986 67.439 400.672 66.1755C401.359 64.8845 401.84 63.3876 402.114 61.6846C402.417 59.9817 402.568 58.1277 402.568 56.1226ZM432.232 42.5677V78H421.355V33.4212H431.614L432.232 42.5677ZM430.625 54.1038H427.288C427.288 51 427.659 48.1434 428.4 45.5341C429.169 42.9247 430.296 40.6587 431.779 38.736C433.262 36.7859 435.088 35.2752 437.258 34.204C439.456 33.1328 441.996 32.5972 444.88 32.5972C446.886 32.5972 448.726 32.8993 450.401 33.5036C452.077 34.0804 453.519 35.0005 454.727 36.264C455.963 37.5 456.911 39.1205 457.57 41.1256C458.229 43.1033 458.559 45.4791 458.559 48.2533V78H447.682V49.3657C447.682 47.2782 447.38 45.6439 446.776 44.4629C446.199 43.2818 445.361 42.4578 444.262 41.9908C443.164 41.4964 441.845 41.2492 440.307 41.2492C438.604 41.2492 437.135 41.5926 435.899 42.2792C434.69 42.9385 433.688 43.8586 432.891 45.0397C432.122 46.2208 431.545 47.5804 431.161 49.1185C430.804 50.6567 430.625 52.3184 430.625 54.1038ZM457.735 52.0849L453.244 52.909C453.272 50.1073 453.656 47.4842 454.398 45.0397C455.139 42.5677 456.224 40.4115 457.653 38.5712C459.108 36.7035 460.907 35.2477 463.05 34.204C465.22 33.1328 467.719 32.5972 470.548 32.5972C472.746 32.5972 474.723 32.913 476.481 33.5448C478.267 34.149 479.791 35.1241 481.054 36.47C482.318 37.7884 483.279 39.5051 483.938 41.62C484.625 43.735 484.968 46.3169 484.968 49.3657V78H474.009V49.3245C474.009 47.1546 473.707 45.4929 473.103 44.3393C472.526 43.1857 471.688 42.3891 470.59 41.9496C469.491 41.4827 468.2 41.2492 466.717 41.2492C465.206 41.2492 463.888 41.5376 462.761 42.1144C461.663 42.6638 460.729 43.4329 459.96 44.4217C459.218 45.4105 458.655 46.5641 458.271 47.8825C457.914 49.1734 457.735 50.5743 457.735 52.0849ZM492.797 56.1638V55.2986C492.797 52.03 493.263 49.0224 494.197 46.2757C495.131 43.5015 496.491 41.0982 498.276 39.0656C500.062 37.0331 502.245 35.4537 504.827 34.3276C507.409 33.174 510.348 32.5972 513.644 32.5972C516.995 32.5972 519.961 33.174 522.543 34.3276C525.153 35.4537 527.35 37.0331 529.135 39.0656C530.921 41.0982 532.28 43.5015 533.214 46.2757C534.148 49.0224 534.615 52.03 534.615 55.2986V56.1638C534.615 59.4049 534.148 62.4125 533.214 65.1867C532.28 67.9334 530.921 70.3367 529.135 72.3967C527.35 74.4293 525.166 76.0086 522.584 77.1348C520.003 78.2609 517.05 78.824 513.726 78.824C510.43 78.824 507.478 78.2609 504.868 77.1348C502.259 76.0086 500.062 74.4293 498.276 72.3967C496.491 70.3367 495.131 67.9334 494.197 65.1867C493.263 62.4125 492.797 59.4049 492.797 56.1638ZM503.673 55.2986V56.1638C503.673 58.1139 503.866 59.9405 504.25 61.6434C504.635 63.3464 505.225 64.8433 506.022 66.1343C506.818 67.4252 507.848 68.4415 509.112 69.1831C510.403 69.8973 511.941 70.2543 513.726 70.2543C515.484 70.2543 516.995 69.8973 518.258 69.1831C519.522 68.4415 520.552 67.4252 521.348 66.1343C522.172 64.8433 522.777 63.3464 523.161 61.6434C523.546 59.9405 523.738 58.1139 523.738 56.1638V55.2986C523.738 53.3759 523.546 51.5768 523.161 49.9013C522.777 48.1984 522.172 46.7014 521.348 45.4105C520.552 44.0921 519.508 43.0621 518.217 42.3204C516.954 41.5514 515.429 41.1668 513.644 41.1668C511.886 41.1668 510.375 41.5514 509.112 42.3204C507.848 43.0621 506.818 44.0921 506.022 45.4105C505.225 46.7014 504.635 48.1984 504.25 49.9013C503.866 51.5768 503.673 53.3759 503.673 55.2986ZM542.484 14.7162H553.402V68.1531L552.331 78H542.484V14.7162ZM582.078 55.2574V56.1226C582.078 59.4461 581.707 62.4949 580.965 65.2691C580.251 68.0432 579.166 70.4466 577.711 72.4791C576.255 74.4842 574.442 76.0498 572.272 77.176C570.13 78.2747 567.616 78.824 564.732 78.824C561.986 78.824 559.596 78.2884 557.564 77.2172C555.558 76.146 553.869 74.6353 552.496 72.6851C551.123 70.7075 550.024 68.3866 549.2 65.7223C548.376 63.0305 547.758 60.0916 547.346 56.9054V54.557C547.758 51.3433 548.376 48.4044 549.2 45.7401C550.024 43.0758 551.123 40.7548 552.496 38.7772C553.869 36.7996 555.558 35.2752 557.564 34.204C559.569 33.1328 561.931 32.5972 564.65 32.5972C567.562 32.5972 570.102 33.1602 572.272 34.2864C574.469 35.385 576.282 36.9507 577.711 38.9832C579.166 40.9883 580.251 43.3779 580.965 46.1521C581.707 48.8988 582.078 51.9339 582.078 55.2574ZM571.16 56.1226V55.2574C571.16 53.3622 571.009 51.5768 570.707 49.9013C570.404 48.1984 569.91 46.7014 569.223 45.4105C568.537 44.1195 567.603 43.1033 566.422 42.3616C565.241 41.62 563.757 41.2492 561.972 41.2492C560.269 41.2492 558.813 41.5376 557.605 42.1144C556.424 42.6913 555.435 43.4878 554.638 44.5041C553.869 45.5203 553.265 46.7152 552.826 48.0885C552.414 49.4619 552.139 50.9451 552.002 52.5381V58.9654C552.194 61.0804 552.647 62.9893 553.361 64.6923C554.075 66.3678 555.133 67.6999 556.534 68.6887C557.962 69.6775 559.802 70.1719 562.054 70.1719C563.812 70.1719 565.282 69.8286 566.463 69.1419C567.644 68.4278 568.578 67.439 569.265 66.1755C569.951 64.8845 570.432 63.3876 570.707 61.6846C571.009 59.9817 571.16 58.1277 571.16 56.1226ZM601.524 33.4212V78H590.606V33.4212H601.524ZM589.865 21.7614C589.865 20.1409 590.414 18.795 591.513 17.7238C592.639 16.6526 594.15 16.117 596.045 16.117C597.94 16.117 599.437 16.6526 600.536 17.7238C601.662 18.795 602.225 20.1409 602.225 21.7614C602.225 23.3545 601.662 24.6867 600.536 25.7579C599.437 26.8291 597.94 27.3647 596.045 27.3647C594.15 27.3647 592.639 26.8291 591.513 25.7579C590.414 24.6867 589.865 23.3545 589.865 21.7614ZM623.443 14.7162V78H612.525V14.7162H623.443ZM666.374 33.4212V78H655.456V33.4212H666.374ZM654.714 21.7614C654.714 20.1409 655.263 18.795 656.362 17.7238C657.488 16.6526 658.999 16.117 660.894 16.117C662.789 16.117 664.286 16.6526 665.385 17.7238C666.511 18.795 667.074 20.1409 667.074 21.7614C667.074 23.3545 666.511 24.6867 665.385 25.7579C664.286 26.8291 662.789 27.3647 660.894 27.3647C658.999 27.3647 657.488 26.8291 656.362 25.7579C655.263 24.6867 654.714 23.3545 654.714 21.7614ZM701.271 65.8047C701.271 64.8708 701.023 64.0331 700.529 63.2915C700.035 62.5498 699.101 61.8769 697.727 61.2726C696.381 60.6409 694.404 60.0504 691.795 59.501C689.487 59.0066 687.359 58.3886 685.408 57.647C683.458 56.9054 681.783 56.0127 680.382 54.969C678.981 53.8978 677.883 52.648 677.086 51.2197C676.317 49.764 675.932 48.0885 675.932 46.1933C675.932 44.353 676.331 42.6226 677.127 41.002C677.924 39.354 679.077 37.912 680.588 36.676C682.099 35.4125 683.939 34.4237 686.109 33.7096C688.279 32.968 690.723 32.5972 693.443 32.5972C697.233 32.5972 700.488 33.2152 703.207 34.4512C705.954 35.6872 708.055 37.3901 709.511 39.56C710.966 41.7024 711.694 44.1195 711.694 46.8113H700.817C700.817 45.6302 700.543 44.559 699.993 43.5977C699.472 42.6363 698.661 41.8672 697.563 41.2904C696.464 40.6862 695.077 40.384 693.401 40.384C691.891 40.384 690.613 40.6312 689.57 41.1256C688.553 41.62 687.784 42.2655 687.262 43.0621C686.741 43.8586 686.48 44.7375 686.48 45.6989C686.48 46.413 686.617 47.0585 686.892 47.6353C687.194 48.1846 687.674 48.6928 688.334 49.1597C688.993 49.6267 689.886 50.0524 691.012 50.4369C692.165 50.8215 693.58 51.1923 695.255 51.5493C698.579 52.2085 701.477 53.0875 703.949 54.1862C706.448 55.2574 708.398 56.6857 709.799 58.471C711.2 60.2564 711.9 62.5361 711.9 65.3103C711.9 67.2879 711.475 69.1007 710.623 70.7487C709.772 72.3693 708.536 73.7838 706.915 74.9924C705.295 76.2009 703.358 77.1485 701.106 77.8352C698.854 78.4944 696.313 78.824 693.484 78.824C689.391 78.824 685.93 78.0961 683.101 76.6404C680.272 75.1572 678.13 73.2894 676.674 71.0371C675.218 68.7574 674.49 66.3952 674.49 63.9507H684.914C684.996 65.6811 685.463 67.0682 686.315 68.1119C687.166 69.1556 688.238 69.911 689.528 70.3779C690.847 70.8174 692.234 71.0371 693.69 71.0371C695.338 71.0371 696.725 70.8174 697.851 70.3779C698.977 69.911 699.829 69.293 700.405 68.5239C700.982 67.7274 701.271 66.821 701.271 65.8047ZM741.276 33.4212V41.2492H715.732V33.4212H741.276ZM722.571 22.4619H733.489V65.1455C733.489 66.4639 733.668 67.4802 734.025 68.1943C734.382 68.9084 734.918 69.3891 735.632 69.6363C736.346 69.8835 737.197 70.0071 738.186 70.0071C738.9 70.0071 739.56 69.9659 740.164 69.8835C740.768 69.8011 741.276 69.7187 741.688 69.6363L741.729 77.794C740.823 78.0961 739.793 78.3433 738.639 78.5356C737.513 78.7279 736.236 78.824 734.808 78.824C732.363 78.824 730.221 78.412 728.38 77.588C726.54 76.7365 725.112 75.3769 724.096 73.5092C723.079 71.6139 722.571 69.1144 722.571 66.0107V22.4619ZM789.563 78.824C786.185 78.824 783.15 78.2747 780.458 77.176C777.766 76.0773 775.473 74.5529 773.577 72.6027C771.71 70.6251 770.268 68.3316 769.251 65.7223C768.262 63.0855 767.768 60.2564 767.768 57.235V55.587C767.768 52.1536 768.262 49.0361 769.251 46.2345C770.24 43.4054 771.641 40.9746 773.454 38.942C775.267 36.9095 777.436 35.3438 779.963 34.2452C782.49 33.1465 785.278 32.5972 788.327 32.5972C791.486 32.5972 794.274 33.1328 796.691 34.204C799.108 35.2477 801.127 36.7309 802.747 38.6536C804.368 40.5763 805.59 42.8835 806.414 45.5753C807.238 48.2396 807.65 51.1923 807.65 54.4334V59.0066H772.712V51.5081H796.938V50.6841C796.883 48.9537 796.553 47.3744 795.949 45.9461C795.345 44.4903 794.411 43.3367 793.148 42.4852C791.884 41.6063 790.25 41.1668 788.245 41.1668C786.624 41.1668 785.21 41.5239 784.001 42.238C782.82 42.9247 781.831 43.9135 781.035 45.2045C780.266 46.468 779.689 47.9786 779.304 49.7365C778.92 51.4944 778.727 53.4446 778.727 55.587V57.235C778.727 59.1027 778.975 60.8332 779.469 62.4262C779.991 64.0193 780.746 65.4064 781.735 66.5875C782.751 67.7411 783.96 68.6475 785.361 69.3067C786.789 69.9385 788.409 70.2543 790.222 70.2543C792.502 70.2543 794.562 69.8149 796.402 68.9359C798.27 68.0295 799.891 66.6974 801.264 64.9395L806.744 70.6251C805.81 71.9985 804.546 73.3169 802.953 74.5804C801.388 75.8438 799.492 76.8739 797.268 77.6704C795.043 78.4395 792.475 78.824 789.563 78.824ZM826.479 33.4212V78H815.561V33.4212H826.479ZM814.819 21.7614C814.819 20.1409 815.368 18.795 816.467 17.7238C817.593 16.6526 819.104 16.117 820.999 16.117C822.894 16.117 824.391 16.6526 825.49 17.7238C826.616 18.795 827.179 20.1409 827.179 21.7614C827.179 23.3545 826.616 24.6867 825.49 25.7579C824.391 26.8291 822.894 27.3647 820.999 27.3647C819.104 27.3647 817.593 26.8291 816.467 25.7579C815.368 24.6867 814.819 23.3545 814.819 21.7614ZM847.532 42.9385V78H836.655V33.4212H846.873L847.532 42.9385ZM845.802 54.1038H842.588C842.615 50.8627 843.055 47.9237 843.906 45.2869C844.758 42.6501 845.953 40.384 847.491 38.4888C849.056 36.5936 850.911 35.1378 853.053 34.1216C855.195 33.1053 857.585 32.5972 860.222 32.5972C862.364 32.5972 864.301 32.8993 866.031 33.5036C867.761 34.1078 869.245 35.0692 870.481 36.3876C871.744 37.706 872.706 39.4364 873.365 41.5788C874.051 43.6938 874.395 46.3032 874.395 49.4069V78H863.435V49.3245C863.435 47.292 863.133 45.6851 862.529 44.5041C861.952 43.323 861.101 42.4852 859.975 41.9908C858.876 41.4964 857.516 41.2492 855.896 41.2492C854.22 41.2492 852.751 41.5926 851.487 42.2792C850.251 42.9385 849.208 43.8586 848.356 45.0397C847.532 46.2208 846.9 47.5804 846.461 49.1185C846.021 50.6567 845.802 52.3184 845.802 54.1038ZM919.262 78H908.303V29.3011C908.303 25.9502 908.948 23.1348 910.239 20.855C911.53 18.5478 913.37 16.8037 915.76 15.6226C918.15 14.4415 920.965 13.851 924.206 13.851C925.277 13.851 926.293 13.9196 927.255 14.057C928.244 14.1943 929.219 14.3866 930.18 14.6338L929.974 22.9151C929.452 22.7777 928.875 22.6816 928.244 22.6267C927.639 22.5717 926.966 22.5443 926.225 22.5443C924.742 22.5443 923.478 22.8052 922.434 23.3271C921.391 23.8489 920.594 24.618 920.045 25.6343C919.523 26.6231 919.262 27.8454 919.262 29.3011V78ZM928.285 33.4212V41.2492H901.587V33.4212H928.285ZM959.556 68.5239V47.9649C959.556 46.4542 959.295 45.1495 958.773 44.0509C958.251 42.9522 957.455 42.1007 956.384 41.4964C955.312 40.8922 953.953 40.59 952.305 40.59C950.849 40.59 949.572 40.8372 948.473 41.3316C947.402 41.826 946.578 42.5264 946.001 43.4329C945.424 44.3118 945.136 45.3281 945.136 46.4817H934.218C934.218 44.6414 934.657 42.8973 935.536 41.2492C936.415 39.5738 937.665 38.0905 939.285 36.7996C940.933 35.4812 942.897 34.4512 945.177 33.7096C947.484 32.968 950.066 32.5972 952.923 32.5972C956.301 32.5972 959.309 33.174 961.946 34.3276C964.61 35.4537 966.697 37.1567 968.208 39.4364C969.746 41.7162 970.515 44.5865 970.515 48.0473V67.4939C970.515 69.7187 970.653 71.6277 970.927 73.2208C971.229 74.7864 971.669 76.146 972.246 77.2996V78H961.163C960.641 76.8739 960.243 75.4456 959.968 73.7152C959.693 71.9573 959.556 70.2269 959.556 68.5239ZM961.08 50.8489L961.163 57.3174H954.282C952.579 57.3174 951.082 57.4959 949.791 57.853C948.501 58.1826 947.443 58.677 946.619 59.3362C945.795 59.968 945.177 60.737 944.765 61.6434C944.353 62.5224 944.147 63.5249 944.147 64.6511C944.147 65.7497 944.394 66.7386 944.889 67.6175C945.41 68.4964 946.152 69.1968 947.113 69.7187C948.102 70.2131 949.256 70.4603 950.574 70.4603C952.497 70.4603 954.172 70.0758 955.601 69.3067C957.029 68.5102 958.141 67.5488 958.938 66.4227C959.734 65.2965 960.16 64.2253 960.215 63.2091L963.346 67.9059C962.962 69.032 962.385 70.2269 961.616 71.4903C960.847 72.7538 959.858 73.9349 958.65 75.0336C957.441 76.1322 955.985 77.0387 954.282 77.7528C952.579 78.4669 950.602 78.824 948.349 78.824C945.465 78.824 942.884 78.2472 940.604 77.0936C938.324 75.94 936.525 74.3606 935.207 72.3555C933.888 70.3505 933.229 68.0707 933.229 65.5163C933.229 63.1541 933.668 61.0666 934.547 59.2538C935.426 57.441 936.731 55.9166 938.461 54.6806C940.192 53.4171 942.334 52.4695 944.889 51.8377C947.47 51.1785 950.423 50.8489 953.747 50.8489H961.08ZM990.992 14.7162V78H980.074V14.7162H990.992ZM989.261 54.1038H986.048C986.048 51 986.46 48.1434 987.284 45.5341C988.108 42.9247 989.275 40.6587 990.786 38.736C992.297 36.7859 994.096 35.2752 996.183 34.204C998.298 33.1328 1000.63 32.5972 1003.19 32.5972C1005.38 32.5972 1007.38 32.913 1009.16 33.5448C1010.97 34.149 1012.53 35.1241 1013.82 36.47C1015.11 37.8159 1016.1 39.5738 1016.78 41.7436C1017.5 43.8861 1017.85 46.4954 1017.85 49.5717V78H1006.9V49.4893C1006.9 47.4293 1006.59 45.8087 1005.99 44.6277C1005.38 43.4191 1004.52 42.5539 1003.39 42.032C1002.29 41.5102 1000.93 41.2492 999.314 41.2492C997.556 41.2492 996.046 41.5926 994.782 42.2792C993.519 42.9385 992.475 43.8586 991.651 45.0397C990.855 46.2208 990.25 47.5804 989.838 49.1185C989.454 50.6567 989.261 52.3184 989.261 54.1038ZM1038.33 42.5264V78H1027.45V33.4212H1037.75L1038.33 42.5264ZM1051.89 33.1328L1051.72 43.2681C1051.12 43.1582 1050.43 43.0758 1049.66 43.0209C1048.92 42.9659 1048.22 42.9385 1047.56 42.9385C1045.88 42.9385 1044.42 43.1719 1043.15 43.6389C1041.89 44.0783 1040.83 44.7238 1039.98 45.5753C1039.16 46.4268 1038.52 47.4705 1038.08 48.7065C1037.64 49.9151 1037.4 51.2884 1037.34 52.8266L1034.99 52.5381C1034.99 49.7091 1035.28 47.086 1035.86 44.6689C1036.44 42.2518 1037.27 40.1368 1038.37 38.324C1039.47 36.5112 1040.84 35.1104 1042.49 34.1216C1044.17 33.1053 1046.09 32.5972 1048.26 32.5972C1048.86 32.5972 1049.51 32.6521 1050.2 32.762C1050.91 32.8444 1051.47 32.968 1051.89 33.1328ZM1077.06 78.824C1073.68 78.824 1070.65 78.2747 1067.95 77.176C1065.26 76.0773 1062.97 74.5529 1061.07 72.6027C1059.21 70.6251 1057.76 68.3316 1056.75 65.7223C1055.76 63.0855 1055.26 60.2564 1055.26 57.235V55.587C1055.26 52.1536 1055.76 49.0361 1056.75 46.2345C1057.74 43.4054 1059.14 40.9746 1060.95 38.942C1062.76 36.9095 1064.93 35.3438 1067.46 34.2452C1069.99 33.1465 1072.77 32.5972 1075.82 32.5972C1078.98 32.5972 1081.77 33.1328 1084.19 34.204C1086.6 35.2477 1088.62 36.7309 1090.24 38.6536C1091.86 40.5763 1093.09 42.8835 1093.91 45.5753C1094.73 48.2396 1095.15 51.1923 1095.15 54.4334V59.0066H1060.21V51.5081H1084.43V50.6841C1084.38 48.9537 1084.05 47.3744 1083.45 45.9461C1082.84 44.4903 1081.91 43.3367 1080.64 42.4852C1079.38 41.6063 1077.75 41.1668 1075.74 41.1668C1074.12 41.1668 1072.71 41.5239 1071.5 42.238C1070.32 42.9247 1069.33 43.9135 1068.53 45.2045C1067.76 46.468 1067.19 47.9786 1066.8 49.7365C1066.42 51.4944 1066.22 53.4446 1066.22 55.587V57.235C1066.22 59.1027 1066.47 60.8332 1066.97 62.4262C1067.49 64.0193 1068.24 65.4064 1069.23 66.5875C1070.25 67.7411 1071.46 68.6475 1072.86 69.3067C1074.29 69.9385 1075.91 70.2543 1077.72 70.2543C1080 70.2543 1082.06 69.8149 1083.9 68.9359C1085.77 68.0295 1087.39 66.6974 1088.76 64.9395L1094.24 70.6251C1093.31 71.9985 1092.04 73.3169 1090.45 74.5804C1088.88 75.8438 1086.99 76.8739 1084.76 77.6704C1082.54 78.4395 1079.97 78.824 1077.06 78.824ZM1113.11 42.9385V78H1102.23V33.4212H1112.45L1113.11 42.9385ZM1111.38 54.1038H1108.17C1108.19 50.8627 1108.63 47.9237 1109.48 45.2869C1110.34 42.6501 1111.53 40.384 1113.07 38.4888C1114.63 36.5936 1116.49 35.1378 1118.63 34.1216C1120.77 33.1053 1123.16 32.5972 1125.8 32.5972C1127.94 32.5972 1129.88 32.8993 1131.61 33.5036C1133.34 34.1078 1134.82 35.0692 1136.06 36.3876C1137.32 37.706 1138.28 39.4364 1138.94 41.5788C1139.63 43.6938 1139.97 46.3032 1139.97 49.4069V78H1129.01V49.3245C1129.01 47.292 1128.71 45.6851 1128.11 44.5041C1127.53 43.323 1126.68 42.4852 1125.55 41.9908C1124.45 41.4964 1123.09 41.2492 1121.47 41.2492C1119.8 41.2492 1118.33 41.5926 1117.07 42.2792C1115.83 42.9385 1114.79 43.8586 1113.93 45.0397C1113.11 46.2208 1112.48 47.5804 1112.04 49.1185C1111.6 50.6567 1111.38 52.3184 1111.38 54.1038ZM1176.31 68.5239V14.7162H1187.27V78H1177.38L1176.31 68.5239ZM1147.68 56.2462V55.381C1147.68 51.9751 1148.06 48.885 1148.83 46.1109C1149.63 43.3093 1150.78 40.9059 1152.29 38.9008C1153.8 36.8957 1155.63 35.3438 1157.77 34.2452C1159.94 33.1465 1162.4 32.5972 1165.15 32.5972C1167.81 32.5972 1170.13 33.1328 1172.11 34.204C1174.11 35.2752 1175.82 36.7996 1177.22 38.7772C1178.65 40.7548 1179.79 43.1033 1180.64 45.8225C1181.49 48.5142 1182.11 51.4807 1182.49 54.7218V57.0702C1182.11 60.2289 1181.49 63.1267 1180.64 65.7635C1179.79 68.4003 1178.65 70.7075 1177.22 72.6851C1175.82 74.6353 1174.11 76.146 1172.11 77.2172C1170.1 78.2884 1167.76 78.824 1165.06 78.824C1162.34 78.824 1159.9 78.2609 1157.73 77.1348C1155.59 76.0086 1153.76 74.4293 1152.25 72.3967C1150.77 70.3642 1149.63 67.9746 1148.83 65.2279C1148.06 62.4812 1147.68 59.4873 1147.68 56.2462ZM1158.6 55.381V56.2462C1158.6 58.1689 1158.76 59.968 1159.09 61.6434C1159.42 63.3189 1159.95 64.8021 1160.7 66.0931C1161.44 67.3566 1162.39 68.3454 1163.54 69.0595C1164.72 69.7737 1166.15 70.1307 1167.82 70.1307C1169.97 70.1307 1171.72 69.6638 1173.1 68.7299C1174.5 67.7686 1175.58 66.4639 1176.35 64.8159C1177.12 63.1404 1177.62 61.2589 1177.84 59.1714V52.703C1177.73 51.0549 1177.44 49.5305 1176.97 48.1297C1176.53 46.7289 1175.9 45.5203 1175.08 44.5041C1174.28 43.4878 1173.29 42.6913 1172.11 42.1144C1170.93 41.5376 1169.53 41.2492 1167.91 41.2492C1166.23 41.2492 1164.8 41.62 1163.62 42.3616C1162.44 43.0758 1161.48 44.0783 1160.74 45.3693C1160 46.6602 1159.45 48.1572 1159.09 49.8601C1158.76 51.5631 1158.6 53.4034 1158.6 55.381ZM1217.14 78.824C1213.76 78.824 1210.73 78.2747 1208.04 77.176C1205.34 76.0773 1203.05 74.5529 1201.16 72.6027C1199.29 70.6251 1197.85 68.3316 1196.83 65.7223C1195.84 63.0855 1195.35 60.2564 1195.35 57.235V55.587C1195.35 52.1536 1195.84 49.0361 1196.83 46.2345C1197.82 43.4054 1199.22 40.9746 1201.03 38.942C1202.84 36.9095 1205.01 35.3438 1207.54 34.2452C1210.07 33.1465 1212.86 32.5972 1215.9 32.5972C1219.06 32.5972 1221.85 33.1328 1224.27 34.204C1226.69 35.2477 1228.7 36.7309 1230.32 38.6536C1231.95 40.5763 1233.17 42.8835 1233.99 45.5753C1234.82 48.2396 1235.23 51.1923 1235.23 54.4334V59.0066H1200.29V51.5081H1224.52V50.6841C1224.46 48.9537 1224.13 47.3744 1223.53 45.9461C1222.92 44.4903 1221.99 43.3367 1220.73 42.4852C1219.46 41.6063 1217.83 41.1668 1215.82 41.1668C1214.2 41.1668 1212.79 41.5239 1211.58 42.238C1210.4 42.9247 1209.41 43.9135 1208.61 45.2045C1207.84 46.468 1207.27 47.9786 1206.88 49.7365C1206.5 51.4944 1206.31 53.4446 1206.31 55.587V57.235C1206.31 59.1027 1206.55 60.8332 1207.05 62.4262C1207.57 64.0193 1208.32 65.4064 1209.31 66.5875C1210.33 67.7411 1211.54 68.6475 1212.94 69.3067C1214.37 69.9385 1215.99 70.2543 1217.8 70.2543C1220.08 70.2543 1222.14 69.8149 1223.98 68.9359C1225.85 68.0295 1227.47 66.6974 1228.84 64.9395L1234.32 70.6251C1233.39 71.9985 1232.12 73.3169 1230.53 74.5804C1228.97 75.8438 1227.07 76.8739 1224.85 77.6704C1222.62 78.4395 1220.05 78.824 1217.14 78.824ZM1267.03 65.8047C1267.03 64.8708 1266.79 64.0331 1266.29 63.2915C1265.8 62.5498 1264.86 61.8769 1263.49 61.2726C1262.15 60.6409 1260.17 60.0504 1257.56 59.501C1255.25 59.0066 1253.12 58.3886 1251.17 57.647C1249.22 56.9054 1247.55 56.0127 1246.15 54.969C1244.75 53.8978 1243.65 52.648 1242.85 51.2197C1242.08 49.764 1241.7 48.0885 1241.7 46.1933C1241.7 44.353 1242.09 42.6226 1242.89 41.002C1243.69 39.354 1244.84 37.912 1246.35 36.676C1247.86 35.4125 1249.7 34.4237 1251.87 33.7096C1254.04 32.968 1256.49 32.5972 1259.21 32.5972C1263 32.5972 1266.25 33.2152 1268.97 34.4512C1271.72 35.6872 1273.82 37.3901 1275.27 39.56C1276.73 41.7024 1277.46 44.1195 1277.46 46.8113H1266.58C1266.58 45.6302 1266.31 44.559 1265.76 43.5977C1265.24 42.6363 1264.43 41.8672 1263.33 41.2904C1262.23 40.6862 1260.84 40.384 1259.17 40.384C1257.65 40.384 1256.38 40.6312 1255.33 41.1256C1254.32 41.62 1253.55 42.2655 1253.03 43.0621C1252.5 43.8586 1252.24 44.7375 1252.24 45.6989C1252.24 46.413 1252.38 47.0585 1252.66 47.6353C1252.96 48.1846 1253.44 48.6928 1254.1 49.1597C1254.76 49.6267 1255.65 50.0524 1256.78 50.4369C1257.93 50.8215 1259.34 51.1923 1261.02 51.5493C1264.34 52.2085 1267.24 53.0875 1269.71 54.1862C1272.21 55.2574 1274.16 56.6857 1275.56 58.471C1276.96 60.2564 1277.66 62.5361 1277.66 65.3103C1277.66 67.2879 1277.24 69.1007 1276.39 70.7487C1275.54 72.3693 1274.3 73.7838 1272.68 74.9924C1271.06 76.2009 1269.12 77.1485 1266.87 77.8352C1264.62 78.4944 1262.08 78.824 1259.25 78.824C1255.16 78.824 1251.69 78.0961 1248.87 76.6404C1246.04 75.1572 1243.89 73.2894 1242.44 71.0371C1240.98 68.7574 1240.25 66.3952 1240.25 63.9507H1250.68C1250.76 65.6811 1251.23 67.0682 1252.08 68.1119C1252.93 69.1556 1254 69.911 1255.29 70.3779C1256.61 70.8174 1258 71.0371 1259.45 71.0371C1261.1 71.0371 1262.49 70.8174 1263.61 70.3779C1264.74 69.911 1265.59 69.293 1266.17 68.5239C1266.75 67.7274 1267.03 66.821 1267.03 65.8047ZM136.107 149.371L140.748 146.164L162.011 179.494V180H144.798V179.494L150.198 176.54L133.745 151.733L130.032 155.53V176.203L136.36 179.494V180H114.759V179.494L121.003 176.203V126.842L114.759 123.551V123.045H136.36V123.551L130.032 126.842V153.336L144.292 138.486C150.873 131.567 148.764 126.842 144.376 123.551V123.045H161.674V123.551L136.107 149.371ZM197.375 174.515L205.982 169.875L206.319 170.296C202.185 174.684 198.05 180.844 194.506 180.844C192.397 180.844 190.456 179.831 189.612 171.225C184.55 177.637 180.078 180.928 178.137 180.928C170.712 181.181 165.396 176.878 165.396 166.668V138.57L159.067 136.208V135.701H173.665V166.246C173.665 172.406 177.293 174.937 181.259 174.937C184.465 174.937 187.165 172.068 189.106 169.115V138.57L182.778 136.208V135.701H197.375V174.515ZM244.642 149.117V177.047L250.886 179.494V180H230.045V179.494L236.373 177.047L236.457 149.455C236.457 143.38 232.829 140.848 228.863 140.848C225.488 140.848 222.704 143.97 220.679 147.092V177.047L227.007 179.494V180H206.166V179.494L212.494 177.047V141.102L203.803 145.742L203.55 145.32C207.684 140.848 211.819 134.689 215.363 134.689C217.557 134.689 219.497 135.87 220.257 144.899C225.404 138.233 230.045 134.858 231.985 134.773C239.411 134.604 244.642 138.908 244.642 149.117ZM268.422 151.143L273.654 154.433C279.729 157.808 285.298 161.268 285.298 168.356C285.298 174.6 280.995 181.013 270.11 181.013C263.697 181.013 259.816 178.734 255.006 178.65L252.812 158.737H253.487C257.875 174.009 269.435 178.397 274.92 178.397C278.379 178.397 280.91 176.456 280.91 172.997C280.91 169.115 277.282 166.499 270.279 162.787L265.132 159.749C259.31 156.543 254.922 153.168 254.922 146.924C254.922 139.414 260.997 134.436 269.519 134.436C273.063 134.436 277.282 135.279 280.235 137.558L282.851 134.689H283.357V154.349H282.682C279.054 144.224 272.894 136.967 265.3 136.967C261.419 136.967 259.563 139.161 259.563 142.03C259.563 146.164 263.444 148.527 268.422 151.143ZM312.689 172.237L313.026 172.659C308.554 177.722 303.66 181.013 301.635 181.013C296.573 181.013 293.619 177.637 293.535 170.718L293.451 137.98L287.122 136.208V135.701H293.872L301.298 124.732H301.72L301.635 135.701H312.436V138.739C309.904 138.739 306.107 138.233 301.635 137.558L301.551 169.453C301.551 173.25 303.238 175.19 306.529 175.19C308.217 175.19 309.82 174.684 312.689 172.237ZM315.602 157.387V155.868H342.265V157.387H315.602ZM359.663 175.19V175.612C359.579 177.131 359.41 179.578 353.335 195.188H348.778V194.682L357.047 180.084L356.794 179.916L356.879 179.831C356.204 180.084 355.36 180.253 354.516 180.253C351.394 180.253 349.285 178.228 349.285 175.19C349.285 172.322 351.394 170.212 354.516 170.212C357.638 170.212 359.663 172.322 359.663 175.19ZM402.674 149.371L407.315 146.164L428.578 179.494V180H411.365V179.494L416.765 176.54L400.311 151.733L396.599 155.53V176.203L402.927 179.494V180H381.326V179.494L387.57 176.203V126.842L381.326 123.551V123.045H402.927V123.551L396.599 126.842V153.336L410.858 138.486C417.44 131.567 415.331 126.842 410.943 123.551V123.045H428.24V123.551L402.674 149.371ZM463.942 174.515L472.548 169.875L472.886 170.296C468.751 174.684 464.617 180.844 461.073 180.844C458.963 180.844 457.023 179.831 456.179 171.225C451.116 177.637 446.644 180.928 444.703 180.928C437.278 181.181 431.962 176.878 431.962 166.668V138.57L425.634 136.208V135.701H440.231V166.246C440.231 172.406 443.86 174.937 447.825 174.937C451.032 174.937 453.732 172.068 455.673 169.115V138.57L449.344 136.208V135.701H463.942V174.515ZM486.317 177.047H486.402L492.646 179.494V180H471.804V179.494L477.964 177.131V120.513L470.707 120.007V119.501L485.811 115.535H486.317V177.047ZM518.773 172.237L519.111 172.659C514.639 177.722 509.745 181.013 507.72 181.013C502.657 181.013 499.704 177.637 499.619 170.718L499.535 137.98L493.207 136.208V135.701H499.957L507.382 124.732H507.804L507.72 135.701H518.52V138.739C515.989 138.739 512.192 138.233 507.72 137.558L507.635 169.453C507.635 173.25 509.323 175.19 512.614 175.19C514.301 175.19 515.904 174.684 518.773 172.237ZM556.89 174.515L565.496 169.875L565.834 170.296C561.699 174.684 557.565 180.844 554.021 180.844C551.912 180.844 549.971 179.831 549.127 171.225C544.064 177.637 539.592 180.928 537.652 180.928C530.226 181.181 524.91 176.878 524.91 166.668V138.57L518.582 136.208V135.701H533.18V166.246C533.18 172.406 536.808 174.937 540.774 174.937C543.98 174.937 546.68 172.068 548.621 169.115V138.57L542.292 136.208V135.701H556.89V174.515ZM600.945 138.739L601.198 139.076C599.848 141.102 597.063 146.417 594.11 146.417C591.072 146.417 588.288 141.692 585.335 141.692C583.9 141.692 581.875 144.392 580.441 147.008V177.047L586.769 179.494V180H565.928V179.494L572.256 177.047V141.102L563.565 145.742L563.312 145.32C567.446 140.848 571.581 134.689 575.125 134.689C577.319 134.689 579.259 135.87 580.019 145.067C582.888 140.68 587.697 134.689 588.794 134.689C591.072 134.689 595.376 139.92 598.329 139.92C599.426 139.92 600.101 139.414 600.945 138.739ZM599.637 157.387V155.868H626.301V157.387H599.637ZM682.716 174.515L691.323 169.875L691.66 170.296C687.526 174.684 683.391 180.844 679.847 180.844C677.738 180.844 675.797 179.831 674.953 171.225C669.89 177.637 665.418 180.928 663.478 180.928C656.052 181.181 650.737 176.878 650.737 166.668V138.57L644.408 136.208V135.701H659.006V166.246C659.006 172.406 662.634 174.937 666.6 174.937C669.806 174.937 672.506 172.068 674.447 169.115V138.57L668.118 136.208V135.701H682.716V174.515ZM729.983 149.117V177.047L736.227 179.494V180H715.386V179.494L721.714 177.047L721.798 149.455C721.798 143.38 718.17 140.848 714.204 140.848C710.829 140.848 708.045 143.97 706.02 147.092V177.047L712.348 179.494V180H691.506V179.494L697.835 177.047V141.102L689.144 145.742L688.891 145.32C693.025 140.848 697.16 134.689 700.704 134.689C702.898 134.689 704.838 135.87 705.598 144.899C710.745 138.233 715.386 134.858 717.326 134.773C724.752 134.604 729.983 138.908 729.983 149.117ZM771.424 174.515L780.031 169.79L780.368 170.212C776.234 174.684 772.099 180.844 768.555 180.844C766.53 180.844 764.674 179.916 763.746 172.068C759.02 176.709 754.464 180.759 753.367 180.759C743.495 180.253 736.829 173.081 736.829 160.34C736.829 141.102 751.848 135.279 755.73 135.279C758.936 135.279 761.299 135.701 763.155 136.208V120.513L755.814 120.007V119.501L770.918 115.535H771.424V174.515ZM755.561 174.853C758.767 174.853 761.214 172.828 763.155 170.634V142.367C761.467 139.667 758.767 138.064 755.392 138.064C750.583 138.064 744.592 141.017 744.592 154.855C744.592 166.668 748.726 174.853 755.561 174.853ZM835.982 123.045V123.551L807.04 178.481H819.781C827.291 178.481 827.966 177.553 832.776 165.824C833.535 164.221 834.379 162.365 835.307 160.255H835.813V180H796.493V179.494L825.688 124.563H813.875C806.45 124.563 805.69 125.492 800.965 137.22L798.349 142.789H797.843V123.045H835.982ZM875.451 174.515L884.058 169.875L884.396 170.296C880.261 174.684 876.126 180.844 872.583 180.844C870.473 180.844 868.532 179.831 867.689 171.225C862.626 177.637 858.154 180.928 856.213 180.928C848.788 181.181 843.472 176.878 843.472 166.668V138.57L837.144 136.208V135.701H851.741V166.246C851.741 172.406 855.369 174.937 859.335 174.937C862.542 174.937 865.242 172.068 867.182 169.115V138.57L860.854 136.208V135.701H875.451V174.515ZM901.371 156.543L907.53 153.252L924.322 179.494V180H907.615V179.494L913.606 177.131L900.611 157.302L897.827 159.749V177.047H897.911L904.155 179.494V180H883.314V179.494L889.473 177.131V120.513L882.217 120.007V119.501L897.321 115.535H897.827V157.808L908.037 148.021C913.774 143.042 912.677 138.655 906.771 136.208V135.701H923.731V136.123L901.371 156.543ZM961.478 174.515L970.084 169.875L970.422 170.296C966.287 174.684 962.153 180.844 958.609 180.844C956.5 180.844 954.559 179.831 953.715 171.225C948.652 177.637 944.18 180.928 942.24 180.928C934.814 181.181 929.498 176.878 929.498 166.668V138.57L923.17 136.208V135.701H937.768V166.246C937.768 172.406 941.396 174.937 945.362 174.937C948.568 174.937 951.268 172.068 953.209 169.115V138.57L946.88 136.208V135.701H961.478V174.515ZM1008.74 149.117V177.047L1014.99 179.494V180H994.148V179.494L1000.48 177.047L1000.56 149.455C1000.56 143.38 996.932 140.848 992.966 140.848C989.591 140.848 986.807 143.97 984.781 147.092V177.047L991.11 179.494V180H970.268V179.494L976.597 177.047V141.102L967.906 145.742L967.653 145.32C971.787 140.848 975.922 134.689 979.466 134.689C981.659 134.689 983.6 135.87 984.36 144.899C989.507 138.233 994.148 134.858 996.088 134.773C1003.51 134.604 1008.74 138.908 1008.74 149.117ZM1035.82 114.86C1042.9 114.86 1047.12 117.982 1049.65 121.61L1044.68 130.385L1044.25 130.132C1043.58 123.382 1037.42 118.404 1032.19 118.404C1028.14 118.404 1025.94 121.019 1025.94 125.154C1025.94 129.035 1028.73 133.592 1030.33 135.701H1042.65V138.739C1039.78 138.739 1035.39 138.148 1030.33 137.473V177.047L1038.09 179.494V180H1015.73V179.494L1022.06 177.047V137.895L1015.4 136.208V135.701H1022.06L1021.81 132.073C1021.05 117.982 1032.69 114.86 1035.82 114.86ZM1066.16 172.237L1066.5 172.659C1062.03 177.722 1057.13 181.013 1055.11 181.013C1050.05 181.013 1047.09 177.637 1047.01 170.718L1046.92 137.98L1040.6 136.208V135.701H1047.35L1054.77 124.732H1055.19L1055.11 135.701H1065.91V138.739C1063.38 138.739 1059.58 138.233 1055.11 137.558L1055.02 169.453C1055.02 173.25 1056.71 175.19 1060 175.19C1061.69 175.19 1063.29 174.684 1066.16 172.237ZM1084.68 151.143L1089.92 154.433C1095.99 157.808 1101.56 161.268 1101.56 168.356C1101.56 174.6 1097.26 181.013 1086.37 181.013C1079.96 181.013 1076.08 178.734 1071.27 178.65L1069.07 158.737H1069.75C1074.14 174.009 1085.7 178.397 1091.18 178.397C1094.64 178.397 1097.17 176.456 1097.17 172.997C1097.17 169.115 1093.54 166.499 1086.54 162.787L1081.39 159.749C1075.57 156.543 1071.18 153.168 1071.18 146.924C1071.18 139.414 1077.26 134.436 1085.78 134.436C1089.33 134.436 1093.54 135.279 1096.5 137.558L1099.11 134.689H1099.62V154.349H1098.94C1095.32 144.224 1089.16 136.967 1081.56 136.967C1077.68 136.967 1075.83 139.161 1075.83 142.03C1075.83 146.164 1079.71 148.527 1084.68 151.143ZM1118.83 177.047H1118.91L1125.15 179.494V180H1104.31V179.494L1110.47 177.131V120.513L1103.22 120.007V119.501L1118.32 115.535H1118.83V177.047ZM1158.31 174.347L1166.91 169.706L1167.25 170.128C1163.12 174.6 1158.98 180.759 1155.44 180.759C1153.24 180.759 1151.3 179.578 1150.46 170.381C1146.16 177.216 1142.28 181.013 1135.95 181.013C1130.29 181.013 1127.17 177.891 1127.17 173.418C1127.17 166.246 1135.36 160.509 1143.54 155.53L1150.38 151.564C1150.38 144.392 1149.11 138.401 1143.03 138.486C1137.3 138.57 1134.34 143.549 1135.69 151.902L1126.16 155.783L1125.91 155.446C1132.74 138.486 1144.38 134.351 1147.34 134.351C1157.89 134.351 1159.32 141.861 1158.98 149.455L1158.31 170.296V174.347ZM1140.5 175.444C1143.29 175.444 1146.83 173.334 1150.21 168.271L1150.38 153.59C1140.25 159.918 1135.95 164.896 1135.95 170.043C1135.95 173.587 1138.06 175.444 1140.5 175.444ZM1187.82 134.773C1197.78 135.279 1204.7 142.789 1204.7 156.712C1204.7 175.19 1190.44 180.844 1186.56 180.844C1180.4 180.844 1176.18 178.228 1173.98 174.515H1173.9L1170.27 181.856H1169.77V120.513L1162.51 120.007V119.501L1177.61 115.535H1178.12V141.692C1182.51 137.642 1186.64 134.689 1187.82 134.773ZM1187.91 178.059C1191.7 178.059 1196.85 175.612 1196.85 161.352C1196.85 149.539 1192.29 140.511 1184.87 140.511C1181.92 140.511 1179.64 141.945 1178.03 143.295V165.065C1178.2 173.334 1182.08 178.059 1187.91 178.059ZM1226.89 181.013C1216.51 181.013 1208.32 173.165 1208.32 159.496C1208.32 140.005 1222.58 134.773 1226.21 134.773C1236.68 134.773 1244.86 142.536 1244.86 156.29C1244.86 175.697 1230.52 181.013 1226.89 181.013ZM1230.85 177.047C1234.4 176.625 1238.7 172.743 1237.1 159.496C1235.41 146.249 1229.76 138.233 1222.33 138.655C1218.7 139.076 1214.4 142.958 1216 156.29C1217.69 169.453 1223.43 177.469 1230.85 177.047ZM1283.39 138.739L1283.64 139.076C1282.29 141.102 1279.51 146.417 1276.55 146.417C1273.52 146.417 1270.73 141.692 1267.78 141.692C1266.34 141.692 1264.32 144.392 1262.88 147.008V177.047L1269.21 179.494V180H1248.37V179.494L1254.7 177.047V141.102L1246.01 145.742L1245.76 145.32C1249.89 140.848 1254.02 134.689 1257.57 134.689C1259.76 134.689 1261.7 135.87 1262.46 145.067C1265.33 140.68 1270.14 134.689 1271.24 134.689C1273.52 134.689 1277.82 139.92 1280.77 139.92C1281.87 139.92 1282.54 139.414 1283.39 138.739ZM133.158 279H122.199V230.301C122.199 226.95 122.844 224.135 124.135 221.855C125.426 219.548 127.267 217.804 129.656 216.623C132.046 215.442 134.861 214.851 138.102 214.851C139.173 214.851 140.19 214.92 141.151 215.057C142.14 215.194 143.115 215.387 144.076 215.634L143.87 223.915C143.348 223.778 142.772 223.682 142.14 223.627C141.536 223.572 140.863 223.544 140.121 223.544C138.638 223.544 137.374 223.805 136.331 224.327C135.287 224.849 134.49 225.618 133.941 226.634C133.419 227.623 133.158 228.845 133.158 230.301V279ZM142.181 234.421V242.249H115.483V234.421H142.181ZM175.43 268.411V234.421H186.389V279H176.089L175.43 268.411ZM176.831 259.183L180.209 259.1C180.209 262.094 179.879 264.855 179.22 267.381C178.561 269.908 177.531 272.106 176.13 273.974C174.757 275.814 173.013 277.256 170.898 278.3C168.783 279.316 166.283 279.824 163.399 279.824C161.202 279.824 159.197 279.522 157.384 278.918C155.571 278.286 154.006 277.311 152.687 275.992C151.396 274.646 150.394 272.93 149.68 270.842C148.965 268.727 148.608 266.187 148.608 263.22V234.421H159.485V263.303C159.485 264.786 159.65 266.022 159.98 267.011C160.337 267.999 160.817 268.81 161.422 269.442C162.053 270.046 162.781 270.485 163.605 270.76C164.457 271.007 165.363 271.131 166.325 271.131C168.961 271.131 171.035 270.609 172.546 269.565C174.084 268.494 175.183 267.066 175.842 265.28C176.501 263.467 176.831 261.435 176.831 259.183ZM152.316 222.638C152.316 221.237 152.825 220.07 153.841 219.136C154.857 218.174 156.148 217.694 157.714 217.694C159.307 217.694 160.598 218.174 161.586 219.136C162.603 220.07 163.111 221.237 163.111 222.638C163.111 224.011 162.603 225.179 161.586 226.14C160.598 227.074 159.307 227.541 157.714 227.541C156.148 227.541 154.857 227.074 153.841 226.14C152.825 225.179 152.316 224.011 152.316 222.638ZM171.969 222.679C171.969 221.278 172.463 220.111 173.452 219.177C174.468 218.216 175.773 217.735 177.366 217.735C178.932 217.735 180.223 218.216 181.239 219.177C182.255 220.111 182.763 221.278 182.763 222.679C182.763 224.052 182.255 225.22 181.239 226.181C180.223 227.115 178.932 227.582 177.366 227.582C175.773 227.582 174.468 227.115 173.452 226.181C172.463 225.22 171.969 224.052 171.969 222.679ZM206.907 243.526V279H196.03V234.421H206.33L206.907 243.526ZM220.462 234.133L220.297 244.268C219.693 244.158 219.006 244.076 218.237 244.021C217.495 243.966 216.795 243.938 216.136 243.938C214.46 243.938 212.991 244.172 211.727 244.639C210.464 245.078 209.406 245.724 208.555 246.575C207.731 247.427 207.099 248.47 206.66 249.707C206.22 250.915 205.973 252.288 205.918 253.827L203.57 253.538C203.57 250.709 203.858 248.086 204.435 245.669C205.012 243.252 205.849 241.137 206.948 239.324C208.047 237.511 209.42 236.11 211.068 235.122C212.744 234.105 214.666 233.597 216.836 233.597C217.44 233.597 218.086 233.652 218.773 233.762C219.487 233.844 220.05 233.968 220.462 234.133ZM279.667 263.426C279.667 262.273 279.488 261.243 279.131 260.336C278.802 259.402 278.184 258.565 277.277 257.823C276.398 257.054 275.149 256.312 273.528 255.598C271.935 254.857 269.875 254.087 267.348 253.291C264.546 252.412 261.937 251.423 259.52 250.325C257.103 249.226 254.974 247.949 253.134 246.493C251.321 245.037 249.906 243.362 248.89 241.466C247.874 239.544 247.366 237.319 247.366 234.792C247.366 232.32 247.888 230.068 248.931 228.035C250.003 226.003 251.513 224.258 253.463 222.803C255.414 221.319 257.707 220.18 260.344 219.383C263.008 218.586 265.947 218.188 269.161 218.188C273.61 218.188 277.456 218.998 280.697 220.619C283.965 222.24 286.492 224.437 288.278 227.211C290.063 229.985 290.956 233.103 290.956 236.564H279.667C279.667 234.696 279.269 233.048 278.472 231.62C277.703 230.191 276.522 229.065 274.929 228.241C273.363 227.417 271.386 227.005 268.996 227.005C266.689 227.005 264.766 227.348 263.228 228.035C261.717 228.722 260.577 229.656 259.808 230.837C259.067 232.018 258.696 233.336 258.696 234.792C258.696 235.891 258.957 236.879 259.479 237.758C260.001 238.61 260.783 239.42 261.827 240.189C262.871 240.931 264.162 241.631 265.7 242.29C267.266 242.922 269.078 243.554 271.138 244.186C274.434 245.174 277.318 246.273 279.79 247.482C282.29 248.69 284.364 250.064 286.012 251.602C287.687 253.14 288.937 254.87 289.761 256.793C290.612 258.716 291.038 260.899 291.038 263.344C291.038 265.926 290.53 268.233 289.514 270.266C288.497 272.298 287.042 274.028 285.146 275.457C283.251 276.885 280.972 277.97 278.307 278.712C275.67 279.453 272.718 279.824 269.449 279.824C266.538 279.824 263.654 279.439 260.797 278.67C257.968 277.874 255.4 276.693 253.093 275.127C250.785 273.534 248.945 271.529 247.572 269.112C246.198 266.667 245.512 263.811 245.512 260.542H256.883C256.883 262.437 257.185 264.058 257.789 265.404C258.421 266.722 259.3 267.807 260.426 268.659C261.58 269.483 262.926 270.087 264.464 270.472C266.002 270.856 267.664 271.048 269.449 271.048C271.756 271.048 273.652 270.732 275.135 270.101C276.645 269.442 277.772 268.535 278.513 267.381C279.282 266.228 279.667 264.909 279.667 263.426ZM323.504 269.524V248.965C323.504 247.454 323.243 246.15 322.721 245.051C322.199 243.952 321.403 243.101 320.332 242.496C319.26 241.892 317.901 241.59 316.253 241.59C314.797 241.59 313.52 241.837 312.421 242.332C311.35 242.826 310.526 243.526 309.949 244.433C309.372 245.312 309.084 246.328 309.084 247.482H298.166C298.166 245.641 298.605 243.897 299.484 242.249C300.363 240.574 301.613 239.091 303.233 237.8C304.881 236.481 306.845 235.451 309.125 234.71C311.432 233.968 314.014 233.597 316.871 233.597C320.249 233.597 323.257 234.174 325.894 235.328C328.558 236.454 330.645 238.157 332.156 240.436C333.694 242.716 334.463 245.586 334.463 249.047V268.494C334.463 270.719 334.601 272.628 334.875 274.221C335.178 275.786 335.617 277.146 336.194 278.3V279H325.111C324.589 277.874 324.191 276.446 323.916 274.715C323.641 272.957 323.504 271.227 323.504 269.524ZM325.028 251.849L325.111 258.317H318.23C316.527 258.317 315.031 258.496 313.74 258.853C312.449 259.183 311.391 259.677 310.567 260.336C309.743 260.968 309.125 261.737 308.713 262.643C308.301 263.522 308.095 264.525 308.095 265.651C308.095 266.75 308.342 267.739 308.837 268.617C309.359 269.496 310.1 270.197 311.062 270.719C312.05 271.213 313.204 271.46 314.522 271.46C316.445 271.46 318.121 271.076 319.549 270.307C320.977 269.51 322.09 268.549 322.886 267.423C323.683 266.297 324.108 265.225 324.163 264.209L327.295 268.906C326.91 270.032 326.333 271.227 325.564 272.49C324.795 273.754 323.806 274.935 322.598 276.034C321.389 277.132 319.933 278.039 318.23 278.753C316.527 279.467 314.55 279.824 312.298 279.824C309.414 279.824 306.832 279.247 304.552 278.094C302.272 276.94 300.473 275.361 299.155 273.356C297.836 271.35 297.177 269.071 297.177 266.516C297.177 264.154 297.616 262.067 298.495 260.254C299.374 258.441 300.679 256.917 302.409 255.681C304.14 254.417 306.282 253.469 308.837 252.838C311.419 252.179 314.371 251.849 317.695 251.849H325.028ZM362.562 271.254C364.1 271.254 365.474 270.952 366.682 270.348C367.891 269.744 368.852 268.892 369.566 267.793C370.308 266.695 370.706 265.418 370.761 263.962H381.02C380.965 266.983 380.113 269.689 378.465 272.078C376.817 274.468 374.62 276.363 371.873 277.764C369.154 279.137 366.105 279.824 362.727 279.824C359.293 279.824 356.3 279.247 353.745 278.094C351.191 276.94 349.062 275.333 347.359 273.273C345.684 271.213 344.42 268.823 343.569 266.104C342.745 263.385 342.333 260.474 342.333 257.37V256.051C342.333 252.948 342.745 250.036 343.569 247.317C344.42 244.598 345.684 242.208 347.359 240.148C349.062 238.088 351.191 236.481 353.745 235.328C356.3 234.174 359.28 233.597 362.686 233.597C366.284 233.597 369.443 234.298 372.162 235.698C374.908 237.099 377.051 239.077 378.589 241.631C380.155 244.186 380.965 247.193 381.02 250.654H370.761C370.706 249.061 370.349 247.633 369.69 246.369C369.031 245.106 368.097 244.09 366.888 243.32C365.68 242.551 364.21 242.167 362.48 242.167C360.639 242.167 359.101 242.551 357.865 243.32C356.657 244.09 355.709 245.147 355.022 246.493C354.363 247.811 353.896 249.295 353.622 250.943C353.374 252.563 353.251 254.266 353.251 256.051V257.37C353.251 259.183 353.374 260.913 353.622 262.561C353.896 264.209 354.363 265.692 355.022 267.011C355.709 268.302 356.657 269.332 357.865 270.101C359.101 270.87 360.667 271.254 362.562 271.254ZM398.942 215.716V279H388.024V215.716H398.942ZM397.212 255.104H393.998C393.998 252 394.41 249.143 395.234 246.534C396.058 243.925 397.225 241.659 398.736 239.736C400.247 237.786 402.046 236.275 404.133 235.204C406.248 234.133 408.583 233.597 411.137 233.597C413.335 233.597 415.326 233.913 417.111 234.545C418.924 235.149 420.476 236.124 421.767 237.47C423.058 238.816 424.047 240.574 424.733 242.744C425.448 244.886 425.805 247.495 425.805 250.572V279H414.845V250.489C414.845 248.429 414.543 246.809 413.939 245.628C413.335 244.419 412.469 243.554 411.343 243.032C410.245 242.51 408.885 242.249 407.264 242.249C405.507 242.249 403.996 242.593 402.732 243.279C401.469 243.938 400.425 244.859 399.601 246.04C398.805 247.221 398.2 248.58 397.788 250.119C397.404 251.657 397.212 253.318 397.212 255.104ZM459.919 266.805C459.919 265.871 459.671 265.033 459.177 264.291C458.683 263.55 457.749 262.877 456.375 262.273C455.03 261.641 453.052 261.05 450.443 260.501C448.135 260.007 446.007 259.389 444.056 258.647C442.106 257.905 440.431 257.013 439.03 255.969C437.629 254.898 436.531 253.648 435.734 252.22C434.965 250.764 434.58 249.089 434.58 247.193C434.58 245.353 434.979 243.623 435.775 242.002C436.572 240.354 437.725 238.912 439.236 237.676C440.747 236.413 442.587 235.424 444.757 234.71C446.927 233.968 449.371 233.597 452.091 233.597C455.881 233.597 459.136 234.215 461.855 235.451C464.602 236.687 466.703 238.39 468.159 240.56C469.614 242.702 470.342 245.12 470.342 247.811H459.465C459.465 246.63 459.191 245.559 458.641 244.598C458.12 243.636 457.309 242.867 456.211 242.29C455.112 241.686 453.725 241.384 452.049 241.384C450.539 241.384 449.261 241.631 448.218 242.126C447.201 242.62 446.432 243.266 445.91 244.062C445.389 244.859 445.128 245.738 445.128 246.699C445.128 247.413 445.265 248.058 445.54 248.635C445.842 249.185 446.322 249.693 446.982 250.16C447.641 250.627 448.534 251.052 449.66 251.437C450.813 251.821 452.228 252.192 453.903 252.549C457.227 253.209 460.125 254.087 462.597 255.186C465.096 256.257 467.046 257.686 468.447 259.471C469.848 261.256 470.548 263.536 470.548 266.31C470.548 268.288 470.123 270.101 469.271 271.749C468.42 273.369 467.184 274.784 465.563 275.992C463.943 277.201 462.006 278.149 459.754 278.835C457.502 279.494 454.961 279.824 452.132 279.824C448.039 279.824 444.578 279.096 441.749 277.64C438.92 276.157 436.778 274.289 435.322 272.037C433.866 269.757 433.138 267.395 433.138 264.951H443.562C443.644 266.681 444.111 268.068 444.963 269.112C445.814 270.156 446.886 270.911 448.177 271.378C449.495 271.817 450.882 272.037 452.338 272.037C453.986 272.037 455.373 271.817 456.499 271.378C457.625 270.911 458.477 270.293 459.053 269.524C459.63 268.727 459.919 267.821 459.919 266.805ZM498.853 279.824C495.475 279.824 492.439 279.275 489.748 278.176C487.056 277.077 484.762 275.553 482.867 273.603C480.999 271.625 479.557 269.332 478.541 266.722C477.552 264.085 477.058 261.256 477.058 258.235V256.587C477.058 253.154 477.552 250.036 478.541 247.234C479.53 244.405 480.931 241.975 482.744 239.942C484.556 237.909 486.726 236.344 489.253 235.245C491.78 234.146 494.568 233.597 497.617 233.597C500.776 233.597 503.564 234.133 505.981 235.204C508.398 236.248 510.417 237.731 512.037 239.654C513.658 241.576 514.88 243.884 515.704 246.575C516.528 249.24 516.94 252.192 516.94 255.433V260.007H482.002V252.508H506.228V251.684C506.173 249.954 505.843 248.374 505.239 246.946C504.635 245.49 503.701 244.337 502.437 243.485C501.174 242.606 499.54 242.167 497.535 242.167C495.914 242.167 494.499 242.524 493.291 243.238C492.11 243.925 491.121 244.914 490.325 246.204C489.555 247.468 488.979 248.979 488.594 250.737C488.21 252.494 488.017 254.445 488.017 256.587V258.235C488.017 260.103 488.264 261.833 488.759 263.426C489.281 265.019 490.036 266.406 491.025 267.587C492.041 268.741 493.25 269.648 494.651 270.307C496.079 270.938 497.699 271.254 499.512 271.254C501.792 271.254 503.852 270.815 505.692 269.936C507.56 269.03 509.181 267.697 510.554 265.939L516.034 271.625C515.1 272.998 513.836 274.317 512.243 275.58C510.678 276.844 508.782 277.874 506.557 278.67C504.333 279.439 501.764 279.824 498.853 279.824ZM534.903 243.938V279H524.026V234.421H534.244L534.903 243.938ZM533.173 255.104H529.959C529.987 251.863 530.426 248.924 531.278 246.287C532.129 243.65 533.324 241.384 534.862 239.489C536.428 237.594 538.282 236.138 540.424 235.122C542.567 234.105 544.956 233.597 547.593 233.597C549.735 233.597 551.672 233.899 553.402 234.504C555.133 235.108 556.616 236.069 557.852 237.388C559.115 238.706 560.077 240.436 560.736 242.579C561.423 244.694 561.766 247.303 561.766 250.407V279H550.807V250.325C550.807 248.292 550.505 246.685 549.9 245.504C549.323 244.323 548.472 243.485 547.346 242.991C546.247 242.496 544.888 242.249 543.267 242.249C541.592 242.249 540.122 242.593 538.859 243.279C537.623 243.938 536.579 244.859 535.727 246.04C534.903 247.221 534.272 248.58 533.832 250.119C533.393 251.657 533.173 253.318 533.173 255.104ZM571.819 273.685C571.819 272.037 572.382 270.65 573.508 269.524C574.634 268.398 576.159 267.835 578.081 267.835C580.004 267.835 581.528 268.398 582.655 269.524C583.781 270.65 584.344 272.037 584.344 273.685C584.344 275.306 583.781 276.679 582.655 277.805C581.528 278.904 580.004 279.453 578.081 279.453C576.159 279.453 574.634 278.904 573.508 277.805C572.382 276.679 571.819 275.306 571.819 273.685Z" fill="#1A1A1A"/>
</g>
<path d="M504.421 202.359C462.007 202.359 419.594 202.359 377.18 202.359C336.44 202.359 287.627 195.982 248.984 209.78C231.952 215.862 228 237.577 228 251.338C228 264.387 232.401 271.062 244.787 278.962C268.892 294.334 295.781 310.194 325.196 316.48C356.028 323.068 389.955 325.289 421.628 325.55C451.738 325.798 482.904 327.39 512.624 322.581C532.696 319.334 555.447 315.091 573.765 306.997C584.395 302.3 593.233 298.801 596.275 288.279C599.171 278.267 600.401 268.14 601.903 257.935C603.395 247.804 587.305 240.005 579.583 235.012C557.054 220.444 530.154 205.464 503.658 196.752C479.439 188.788 454.325 189.001 428.877 189.001" stroke="#F2F2F2" stroke-width="5.27365" stroke-linecap="round"/>
<defs>
<filter id="filter0_dddddd_948_713" x="-87.8209" y="12.9229" width="1574.04" height="722.708" filterUnits="userSpaceOnUse" color-interpolation-filters="sRGB">
<feFlood flood-opacity="0" result="BackgroundImageFix"/>
<feColorMatrix in="SourceAlpha" type="matrix" values="0 0 0 0 0 0 0 0 0 0 0 0 0 0 0 0 0 0 127 0" result="hardAlpha"/>
<feOffset dy="7.00741"/>
<feGaussianBlur stdDeviation="3.96756"/>
<feColorMatrix type="matrix" values="0 0 0 0 0 0 0 0 0 0 0 0 0 0 0 0 0 0 0.030926 0"/>
<feBlend mode="normal" in2="BackgroundImageFix" result="effect1_dropShadow_948_713"/>
<feColorMatrix in="SourceAlpha" type="matrix" values="0 0 0 0 0 0 0 0 0 0 0 0 0 0 0 0 0 0 127 0" result="hardAlpha"/>
<feOffset dy="16.8398"/>
<feGaussianBlur stdDeviation="8.43342"/>
<feColorMatrix type="matrix" values="0 0 0 0 0 0 0 0 0 0 0 0 0 0 0 0 0 0 0.0444282 0"/>
<feBlend mode="normal" in2="effect1_dropShadow_948_713" result="effect2_dropShadow_948_713"/>
<feColorMatrix in="SourceAlpha" type="matrix" values="0 0 0 0 0 0 0 0 0 0 0 0 0 0 0 0 0 0 127 0" result="hardAlpha"/>
<feOffset dy="31.7078"/>
<feGaussianBlur stdDeviation="13.9268"/>
<feColorMatrix type="matrix" values="0 0 0 0 0 0 0 0 0 0 0 0 0 0 0 0 0 0 0.055 0"/>
<feBlend mode="normal" in2="effect2_dropShadow_948_713" result="effect3_dropShadow_948_713"/>
<feColorMatrix in="SourceAlpha" type="matrix" values="0 0 0 0 0 0 0 0 0 0 0 0 0 0 0 0 0 0 127 0" result="hardAlpha"/>
<feOffset dy="56.5613"/>
<feGaussianBlur stdDeviation="21.8201"/>
<feColorMatrix type="matrix" values="0 0 0 0 0 0 0 0 0 0 0 0 0 0 0 0 0 0 0.0655718 0"/>
<feBlend mode="normal" in2="effect3_dropShadow_948_713" result="effect4_dropShadow_948_713"/>
<feColorMatrix in="SourceAlpha" type="matrix" values="0 0 0 0 0 0 0 0 0 0 0 0 0 0 0 0 0 0 127 0" result="hardAlpha"/>
<feOffset dy="105.792"/>
<feGaussianBlur stdDeviation="37.3229"/>
<feColorMatrix type="matrix" values="0 0 0 0 0 0 0 0 0 0 0 0 0 0 0 0 0 0 0.079074 0"/>
<feBlend mode="normal" in2="effect4_dropShadow_948_713" result="effect5_dropShadow_948_713"/>
<feColorMatrix in="SourceAlpha" type="matrix" values="0 0 0 0 0 0 0 0 0 0 0 0 0 0 0 0 0 0 127 0" result="hardAlpha"/>
<feOffset dy="253.226"/>
<feGaussianBlur stdDeviation="101.29"/>
<feColorMatrix type="matrix" values="0 0 0 0 0.486275 0 0 0 0 0 0 0 0 0 1 0 0 0 0.11 0"/>
<feBlend mode="normal" in2="effect5_dropShadow_948_713" result="effect6_dropShadow_948_713"/>
<feBlend mode="normal" in="SourceGraphic" in2="effect6_dropShadow_948_713" result="shape"/>
</filter>
</defs>
</svg>
