<svg width="590" height="334" viewBox="0 0 590 334" fill="none" xmlns="http://www.w3.org/2000/svg">
<path d="M23.5908 44.0035V44.5098L17.2624 47.8006V97.162L23.5908 100.453V100.959H1.98987V100.453L8.23388 97.162V47.8006L1.98987 44.5098V44.0035H23.5908ZM64.2216 70.0765V98.0057L70.4656 100.453V100.959H49.6241V100.453L55.9525 98.0057L56.0369 70.414C56.0369 64.3387 52.4086 61.8074 48.4428 61.8074C45.0677 61.8074 42.2832 64.9294 40.2581 68.0514V98.0057L46.5865 100.453V100.959H25.745V100.453L32.0734 98.0057V62.0605L23.3824 66.7013L23.1293 66.2794C27.2639 61.8074 31.3984 55.6478 34.9423 55.6478C37.1361 55.6478 39.0768 56.8291 39.8362 65.8576C44.9833 59.1917 49.6241 55.8165 51.5648 55.7321C58.9901 55.5634 64.2216 59.8667 64.2216 70.0765ZM131.744 56.6603V59.6136C127.103 59.5292 120.691 58.7698 115.797 57.7572L115.628 58.0104C120.944 60.7105 123.138 65.0981 123.138 69.9921C123.138 81.1301 110.734 86.5303 107.359 86.5303C103.646 86.5303 100.355 85.6865 97.6552 84.0833C95.9677 85.7709 94.2801 87.3741 94.2801 89.6523C94.2801 92.1836 95.6302 94.7994 101.452 95.1369L115.037 95.9807C121.112 96.2338 127.863 98.0057 127.863 105.094C127.863 109.228 123.813 122.729 105.671 122.729C96.1364 122.729 87.0236 119.1 85.6735 112.35C85.5047 111.506 88.5424 108.891 97.0646 101.634C91.4956 100.706 87.2767 97.5838 87.2767 92.7743C87.2767 91.9305 92.0863 88.0491 96.5583 83.3239C93.1832 80.8769 91.1581 76.9955 91.1581 72.0172C91.1581 60.5417 103.899 55.479 106.852 55.479C108.034 55.479 115.375 56.6603 121.112 56.6603H131.744ZM115.965 72.1859C114.784 63.9169 110.143 58.6854 104.237 58.6854C100.271 58.7698 97.0646 61.723 98.1615 69.9921C99.2584 78.1768 103.899 83.4083 109.384 83.4083C113.856 83.3239 117.062 80.455 115.965 72.1859ZM111.578 102.647L99.6803 101.972C99.2584 101.972 98.8365 101.887 98.4146 101.887C94.9551 104.334 93.0144 106.444 93.0144 108.384C93.0144 113.869 102.296 117.075 111.578 117.075C120.1 117.075 125.5 113.363 125.5 109.228C125.5 104.587 118.919 103.068 111.578 102.647ZM161.542 95.3056L170.148 90.6648L170.486 91.0867C166.351 95.5588 162.217 101.718 158.673 101.718C156.479 101.718 154.538 100.537 153.694 91.3398C149.391 98.1745 145.51 101.972 139.181 101.972C133.528 101.972 130.406 98.8495 130.406 94.3775C130.406 87.2053 138.591 81.4676 146.775 76.4892L153.61 72.5235C153.61 65.3513 152.344 59.3604 146.269 59.4448C140.531 59.5292 137.578 64.5075 138.928 72.861L129.393 76.7424L129.14 76.4049C135.975 59.4448 147.619 55.3103 150.572 55.3103C161.12 55.3103 162.554 62.8199 162.217 70.414L161.542 91.2555V95.3056ZM143.738 96.4025C146.522 96.4025 150.066 94.2931 153.441 89.2304L153.61 74.5485C143.485 80.8769 139.181 85.8552 139.181 91.0023C139.181 94.5462 141.291 96.4025 143.738 96.4025ZM208.341 70.0765V98.0057L214.585 100.453V100.959H193.743V100.453L200.072 98.0057L200.156 70.414C200.156 64.3387 196.528 61.8074 192.562 61.8074C189.187 61.8074 186.402 64.9294 184.377 68.0514V98.0057L190.706 100.453V100.959H169.864V100.453L176.192 98.0057V62.0605L167.501 66.7013L167.248 66.2794C171.383 61.8074 175.517 55.6478 179.061 55.6478C181.255 55.6478 183.196 56.8291 183.955 65.8576C189.102 59.1917 193.743 55.8165 195.684 55.7321C203.109 55.5634 208.341 59.8667 208.341 70.0765ZM249.672 56.6603V57.1666L225.792 99.3558H232.965C242.921 99.3558 243.512 95.3056 248.575 79.9488H249.081L249.165 100.706L248.912 101.043L216.933 100.959L217.101 100.875L216.342 100.959V100.453L239.884 58.1791H233.471C223.261 58.1791 223.261 61.3855 218.114 75.3079H217.523L217.439 56.9134L217.777 56.6603H249.672ZM288.982 66.5326L293.707 69.1483C301.976 73.4516 309.317 76.8268 309.317 85.6865C309.317 94.2087 302.736 102.225 289.826 102.225C282.063 102.225 277.253 99.4402 270.841 98.512L268.816 75.6455L269.406 75.5611C274.891 95.2213 288.729 98.6808 295.479 98.6808C302.904 98.6808 305.267 95.1369 305.267 91.3398C305.267 84.7583 297.589 81.5519 289.91 77.6705L284.847 74.8017C277.928 71.3422 270.925 67.7983 270.925 58.5166C271.009 48.1381 279.363 43.3285 288.982 43.3285C294.551 43.3285 299.361 45.1848 302.483 47.6318L306.026 43.4129H306.617V65.6888H306.111C300.879 53.8758 293.032 46.788 283.413 46.788C278.519 46.788 274.975 49.1506 274.975 53.5383C274.975 59.276 280.882 62.2293 288.982 66.5326ZM344.554 95.3056L353.16 90.6648L353.498 91.0867C349.363 95.5588 345.229 101.718 341.685 101.718C339.491 101.718 337.55 100.537 336.707 91.3398C332.403 98.1745 328.522 101.972 322.193 101.972C316.54 101.972 313.418 98.8495 313.418 94.3775C313.418 87.2053 321.603 81.4676 329.788 76.4892L336.622 72.5235C336.622 65.3513 335.357 59.3604 329.281 59.4448C323.544 59.5292 320.59 64.5075 321.94 72.861L312.406 76.7424L312.152 76.4049C318.987 59.4448 330.631 55.3103 333.585 55.3103C344.132 55.3103 345.566 62.8199 345.229 70.414L344.554 91.2555V95.3056ZM326.75 96.4025C329.534 96.4025 333.078 94.2931 336.453 89.2304L336.622 74.5485C326.497 80.8769 322.193 85.8552 322.193 91.0023C322.193 94.5462 324.303 96.4025 326.75 96.4025ZM372.303 101.972C360.996 101.972 352.052 94.3775 352.052 79.9488C352.052 61.048 367.325 55.5634 371.291 55.5634C380.91 55.5634 385.044 62.1449 385.297 65.6044L376.944 73.4516L376.606 73.1985C377.45 65.6044 373.231 59.276 367.747 59.276C363.696 59.276 358.381 61.5543 358.381 72.4391C358.381 84.7583 365.806 95.5588 376.944 95.5588C380.15 95.5588 382.428 94.2087 385.297 92.6055L385.635 93.1118C379.982 98.3433 374.919 101.972 372.303 101.972ZM424.135 70.0765V98.0057L430.379 100.453V100.959H409.537V100.453L415.781 98.0057L415.865 70.414C415.865 64.3387 412.237 61.8074 408.271 61.8074C404.727 61.8074 401.859 65.2669 399.834 68.5577V98.0057H399.918L406.162 100.453V100.959H385.32V100.453L391.48 98.0901V41.4722L384.224 40.9659V40.4596L399.327 36.4939H399.834V65.6044C404.981 59.1917 409.453 55.8165 411.393 55.7321C418.819 55.5634 424.135 59.8667 424.135 70.0765ZM447.929 72.1016L453.16 75.3923C459.235 78.7675 464.804 82.227 464.804 89.3148C464.804 95.5588 460.501 101.972 449.616 101.972C443.203 101.972 439.322 99.6933 434.512 99.6089L432.319 79.6956H432.994C437.381 94.9681 448.941 99.3558 454.426 99.3558C457.885 99.3558 460.417 97.4151 460.417 93.9556C460.417 90.0742 456.788 87.4584 449.785 83.7458L444.638 80.7082C438.816 77.5018 434.428 74.1266 434.428 67.8826C434.428 60.373 440.503 55.3946 449.025 55.3946C452.569 55.3946 456.788 56.2384 459.742 58.5166L462.357 55.6478H462.864V75.3079H462.189C458.56 65.1825 452.401 57.926 444.807 57.926C440.925 57.926 439.069 60.1198 439.069 62.9887C439.069 67.1232 442.95 69.4858 447.929 72.1016ZM501.73 92.6055L502.067 93.1118C496.414 98.3433 491.436 101.972 488.82 101.972C477.513 101.972 468.485 94.2931 468.485 80.0331C468.485 60.9636 483.926 55.5634 487.892 55.5634C497.511 55.5634 501.223 61.5543 501.477 69.9077C501.477 71.6797 494.389 75.6455 492.448 75.6455H475.319C476.332 86.7834 482.998 95.5588 493.461 95.5588C496.751 95.5588 498.945 94.2087 501.73 92.6055ZM484.432 59.276C480.466 59.276 475.151 61.6386 475.151 72.6078V74.1266H493.208C493.714 64.6763 489.41 59.276 484.432 59.276ZM543.3 70.0765V98.0057L549.544 100.453V100.959H528.702V100.453L535.031 98.0057L535.115 70.414C535.115 64.3387 531.487 61.8074 527.521 61.8074C524.146 61.8074 521.362 64.9294 519.336 68.0514V98.0057L525.665 100.453V100.959H504.823V100.453L511.152 98.0057V62.0605L502.461 66.7013L502.208 66.2794C506.342 61.8074 510.477 55.6478 514.021 55.6478C516.214 55.6478 518.155 56.8291 518.915 65.8576C524.062 59.1917 528.702 55.8165 530.643 55.7321C538.068 55.5634 543.3 59.8667 543.3 70.0765ZM39.2851 197.474L47.8917 192.834L48.2293 193.255C44.0947 197.643 39.9602 203.803 36.4163 203.803C34.3068 203.803 32.3661 202.79 31.5223 194.184C26.4596 200.596 21.9876 203.887 20.0469 203.887C12.6216 204.14 7.30572 199.837 7.30572 189.627V161.529L0.977333 159.167V158.66H15.5748V189.205C15.5748 195.365 19.2031 197.896 23.1689 197.896C26.3752 197.896 29.0754 195.027 31.0161 192.074V161.529L24.6877 159.167V158.66H39.2851V197.474ZM86.5522 172.076V200.006L92.7962 202.453V202.959H71.9548V202.453L78.2831 200.006L78.3675 172.414C78.3675 166.339 74.7392 163.807 70.7735 163.807C67.3983 163.807 64.6138 166.929 62.5888 170.051V200.006L68.9171 202.453V202.959H48.0757V202.453L54.404 200.006V164.061L45.7131 168.701L45.4599 168.279C49.5945 163.807 53.729 157.648 57.2729 157.648C59.4668 157.648 61.4075 158.829 62.1669 167.858C67.3139 161.192 71.9548 157.817 73.8955 157.732C81.3208 157.563 86.5522 161.867 86.5522 172.076ZM117.189 195.196L117.526 195.618C113.054 200.681 108.16 203.972 106.135 203.972C101.073 203.972 98.1193 200.596 98.0349 193.677L97.9506 160.939L91.6222 159.167V158.66H98.3725L105.798 147.691H106.22L106.135 158.66H116.936V161.698C114.404 161.698 110.607 161.192 106.135 160.517L106.051 192.412C106.051 196.209 107.738 198.149 111.029 198.149C112.717 198.149 114.32 197.643 117.189 195.196ZM152.268 194.606L152.605 195.112C146.952 200.343 141.974 203.972 139.358 203.972C128.051 203.972 119.023 196.293 119.023 182.033C119.023 162.964 134.464 157.563 138.43 157.563C148.049 157.563 151.762 163.554 152.015 171.908C152.015 173.68 144.927 177.645 142.986 177.645H125.857C126.87 188.783 133.536 197.559 143.999 197.559C147.29 197.559 149.483 196.209 152.268 194.606ZM134.97 161.276C131.005 161.276 125.689 163.639 125.689 174.608V176.127H143.746C144.252 166.676 139.949 161.276 134.97 161.276ZM190.626 161.698L190.879 162.035C189.529 164.061 186.744 169.376 183.791 169.376C180.753 169.376 177.969 164.651 175.016 164.651C173.581 164.651 171.556 167.351 170.122 169.967V200.006L176.45 202.453V202.959H155.609V202.453L161.937 200.006V164.061L153.246 168.701L152.993 168.279C157.128 163.807 161.262 157.648 164.806 157.648C167 157.648 168.941 158.829 169.7 168.026C172.569 163.639 177.378 157.648 178.475 157.648C180.753 157.648 185.057 162.879 188.01 162.879C189.107 162.879 189.782 162.373 190.626 161.698ZM231.896 159.167V158.66H246.156V159.167L229.112 204.9H228.521L217.383 173.089H216.961L205.908 204.9H205.317L188.104 159.167V158.66H204.473V159.167L197.638 161.614L197.47 161.529L208.439 191.821H208.945L213.248 178.658C216.455 167.689 216.286 162.457 208.186 159.167V158.66H227.93V159.167L221.264 161.614L232.149 191.821H232.655L237.043 178.658C240.756 167.52 239.743 163.385 231.896 159.167ZM278.012 194.606L278.349 195.112C272.696 200.343 267.717 203.972 265.102 203.972C253.795 203.972 244.766 196.293 244.766 182.033C244.766 162.964 260.208 157.563 264.173 157.563C273.793 157.563 277.505 163.554 277.758 171.908C277.758 173.68 270.671 177.645 268.73 177.645H251.601C252.614 188.783 259.279 197.559 269.742 197.559C273.033 197.559 275.227 196.209 278.012 194.606ZM260.714 161.276C256.748 161.276 251.432 163.639 251.432 174.608V176.127H269.489C269.996 166.676 265.692 161.276 260.714 161.276ZM324.397 158.66V161.614C319.756 161.529 313.344 160.77 308.45 159.757L308.281 160.01C313.597 162.71 315.791 167.098 315.791 171.992C315.791 183.13 303.387 188.53 300.012 188.53C296.299 188.53 293.008 187.686 290.308 186.083C288.621 187.771 286.933 189.374 286.933 191.652C286.933 194.184 288.283 196.799 294.105 197.137L307.69 197.981C313.766 198.234 320.516 200.006 320.516 207.094C320.516 211.228 316.466 224.729 298.324 224.729C288.79 224.729 279.677 221.1 278.327 214.35C278.158 213.506 281.195 210.891 289.718 203.634C284.149 202.706 279.93 199.584 279.93 194.774C279.93 193.93 284.739 190.049 289.211 185.324C285.836 182.877 283.811 178.996 283.811 174.017C283.811 162.542 296.552 157.479 299.506 157.479C300.687 157.479 308.028 158.66 313.766 158.66H324.397ZM308.618 174.186C307.437 165.917 302.796 160.685 296.89 160.685C292.924 160.77 289.718 163.723 290.815 171.992C291.912 180.177 296.552 185.408 302.037 185.408C306.509 185.324 309.715 182.455 308.618 174.186ZM304.231 204.647L292.333 203.972C291.912 203.972 291.49 203.887 291.068 203.887C287.608 206.334 285.668 208.444 285.668 210.384C285.668 215.869 294.949 219.075 304.231 219.075C312.753 219.075 318.153 215.363 318.153 211.228C318.153 206.587 311.572 205.068 304.231 204.647ZM338.995 174.102L344.226 177.392C350.301 180.767 355.87 184.227 355.87 191.315C355.87 197.559 351.567 203.972 340.682 203.972C334.27 203.972 330.388 201.693 325.579 201.609L323.385 181.696H324.06C328.447 196.968 340.007 201.356 345.492 201.356C348.951 201.356 351.483 199.415 351.483 195.956C351.483 192.074 347.854 189.458 340.851 185.746L335.704 182.708C329.882 179.502 325.494 176.127 325.494 169.883C325.494 162.373 331.569 157.395 340.092 157.395C343.636 157.395 347.854 158.238 350.808 160.517L353.423 157.648H353.93V177.308H353.255C349.626 167.183 343.467 159.926 335.873 159.926C331.991 159.926 330.135 162.12 330.135 164.989C330.135 169.123 334.016 171.486 338.995 174.102ZM367.567 189.796H366.976C366.554 186.252 363.095 162.035 362.251 145.666H372.292C371.448 162.035 368.073 186.168 367.567 189.796ZM367.482 203.212C364.276 203.212 362.166 201.187 362.166 198.149C362.166 195.281 364.276 193.171 367.482 193.171C370.52 193.171 372.629 195.281 372.629 198.149C372.629 201.187 370.52 203.212 367.482 203.212Z" fill="#F2F2F2"/>
<path d="M82.838 127.167C126.936 127.167 171.034 127.167 215.132 127.167C248.605 127.167 282.192 126.382 315.64 127.804C335.935 128.667 356.158 130.899 376.415 132.327C399.771 133.972 423.199 135.331 446.599 136.085C463.819 136.639 480.998 138.537 498.22 138.633C522.803 138.769 546.639 139.338 570.311 132.9C575.703 131.434 580.998 131.103 583.534 126.021C592.2 108.656 580.999 89.6474 568.976 76.7198C544.476 50.3752 515.705 31.6678 481.564 20.0301C465.171 14.4422 449.087 9.21699 431.787 7.41826C408.361 4.98255 384.764 3.74975 361.222 3.4054C326.083 2.89143 291.728 5.95887 257.026 11.3674C226.147 16.1803 195.132 18.5128 164.338 24.2341C144.49 27.9217 123.333 33.6517 105.279 42.8971C93.7357 48.8085 80.9424 53.8175 72.5393 64.1079C62.7825 76.0561 55.723 93.2697 61.0962 108.823C66.1699 123.508 84.6237 130.607 98.8583 130.607" stroke="#DDBBFC" stroke-width="5.27365" stroke-linecap="round"/>
</svg>
