<svg width="886" height="67" viewBox="0 0 886 67" fill="none" xmlns="http://www.w3.org/2000/svg">
<path d="M25.184 1.64V45.128H65.792V65H0.704V1.64H25.184ZM111.658 66.152C102.57 66.152 94.6343 64.84 87.8503 62.216C81.1303 59.528 75.9463 55.72 72.2983 50.792C68.7143 45.864 66.9223 40.04 66.9223 33.32C66.9223 26.6 68.7143 20.776 72.2983 15.848C75.9463 10.92 81.1303 7.144 87.8503 4.51999C94.6343 1.832 102.57 0.487995 111.658 0.487995C120.746 0.487995 128.65 1.832 135.37 4.51999C142.154 7.144 147.338 10.92 150.922 15.848C154.57 20.776 156.394 26.6 156.394 33.32C156.394 40.04 154.57 45.864 150.922 50.792C147.338 55.72 142.154 59.528 135.37 62.216C128.65 64.84 120.746 66.152 111.658 66.152ZM111.658 45.512C117.738 45.512 122.602 44.392 126.25 42.152C129.962 39.912 131.818 36.968 131.818 33.32C131.818 29.672 129.962 26.728 126.25 24.488C122.602 22.248 117.738 21.128 111.658 21.128C105.578 21.128 100.682 22.248 96.9703 24.488C93.3223 26.728 91.4983 29.672 91.4983 33.32C91.4983 36.968 93.3223 39.912 96.9703 42.152C100.682 44.392 105.578 45.512 111.658 45.512ZM242.759 65H214.247L196.487 43.976L187.559 52.328V65H163.079V1.64H187.559V23.528L210.887 1.64H241.607L212.423 29L242.759 65ZM329.487 65H303.087L298.383 52.328H275.055L270.351 65H243.951L271.407 1.64H301.935L329.487 65ZM286.671 21.128L279.375 40.808H294.063L286.671 21.128ZM357.903 1.64V45.128H398.511V65H333.423V1.64H357.903ZM428.684 1.64V45.128H469.292V65H404.204V1.64H428.684ZM556.924 65H530.524L525.82 52.328H502.492L497.788 65H471.388L498.844 1.64H529.372L556.924 65ZM514.108 21.128L506.812 40.808H521.5L514.108 21.128ZM610.972 27.464C619.292 27.528 625.628 29.16 629.98 32.36C634.396 35.56 636.604 40.168 636.604 46.184C636.604 58.728 626.396 65 605.98 65H560.86V1.64H608.476C617.308 1.64 623.868 2.696 628.156 4.808C632.508 6.856 634.684 10.024 634.684 14.312C634.684 18.536 632.828 21.672 629.116 23.72C625.404 25.768 619.356 27.016 610.972 27.464ZM585.34 20.072V27.464H604.732C606.588 27.464 607.932 27.176 608.764 26.6C609.66 25.96 610.108 25 610.108 23.72C610.108 22.44 609.66 21.512 608.764 20.936C607.932 20.36 606.588 20.072 604.732 20.072H585.34ZM605.788 46.568C607.964 46.568 609.532 46.248 610.492 45.608C611.516 44.904 612.028 43.816 612.028 42.344C612.028 40.872 611.516 39.784 610.492 39.08C609.532 38.376 607.964 38.024 605.788 38.024H585.34V46.568H605.788ZM684.377 66.152C675.289 66.152 667.353 64.84 660.569 62.216C653.849 59.528 648.665 55.72 645.017 50.792C641.433 45.864 639.641 40.04 639.641 33.32C639.641 26.6 641.433 20.776 645.017 15.848C648.665 10.92 653.849 7.144 660.569 4.51999C667.353 1.832 675.289 0.487995 684.377 0.487995C693.465 0.487995 701.369 1.832 708.089 4.51999C714.873 7.144 720.057 10.92 723.641 15.848C727.289 20.776 729.113 26.6 729.113 33.32C729.113 40.04 727.289 45.864 723.641 50.792C720.057 55.72 714.873 59.528 708.089 62.216C701.369 64.84 693.465 66.152 684.377 66.152ZM684.377 45.512C690.457 45.512 695.321 44.392 698.969 42.152C702.681 39.912 704.537 36.968 704.537 33.32C704.537 29.672 702.681 26.728 698.969 24.488C695.321 22.248 690.457 21.128 684.377 21.128C678.297 21.128 673.401 22.248 669.689 24.488C666.041 26.728 664.217 29.672 664.217 33.32C664.217 36.968 666.041 39.912 669.689 42.152C673.401 44.392 678.297 45.512 684.377 45.512ZM810.102 51.848C810.678 57.16 811.99 61.544 814.038 65H788.31C787.03 61.288 786.198 57.672 785.814 54.152C785.494 51.4 784.502 49.448 782.838 48.296C781.238 47.144 778.742 46.568 775.35 46.568H760.278V65H735.798V1.64H781.686C791.222 1.64 798.486 3.112 803.478 6.056C808.47 8.936 810.966 13.192 810.966 18.824C810.966 28.616 802.454 34.024 785.43 35.048C792.918 35.048 798.71 36.328 802.806 38.888C806.966 41.448 809.398 45.768 810.102 51.848ZM760.278 21.512V35.048H777.846C783.478 35.048 786.294 32.776 786.294 28.232C786.294 23.752 783.478 21.512 777.846 21.512H760.278ZM885.857 21.512H843.809V28.04H879.809V38.6H843.809V45.128H885.857V65H819.329V1.64H885.857V21.512Z" fill="#1A1A1A"/>
</svg>
